{
.appVersion = "3108";
DisplayStrings = (

glyphs = (
{
color = 1;
glyphname = A;
lastChange = "2021-08-11 11:22:11 +0000";
layers = (
{
anchors = (
{
name = bottom;
position = "{356, 20}";
},
{
name = ogonek;
position = "{628, 0}";
},
{
name = top;
position = "{379, 668}";
}
);
layerId = "083550D2-F2E8-44E3-BE3D-E8BDF41EDFC4";
paths = (
{
closed = 1;
nodes = (
"69 -10 OFFCURVE",
"87 0 OFFCURVE",
"119 0 CURVE SMOOTH",
"149 0 OFFCURVE",
"171 -10 OFFCURVE",
"200 -10 CURVE SMOOTH",
"220 -10 OFFCURVE",
"230 -2 OFFCURVE",
"230 10 CURVE SMOOTH",
"230 22 OFFCURVE",
"223 30 OFFCURVE",
"210 30 CURVE SMOOTH",
"177 30 OFFCURVE",
"164 43 OFFCURVE",
"164 64 CURVE SMOOTH",
"164 84 OFFCURVE",
"171 103 OFFCURVE",
"183 134 CURVE SMOOTH",
"192 154 OFFCURVE",
"206 166 OFFCURVE",
"234 166 CURVE SMOOTH",
"275 166 OFFCURVE",
"318 138 OFFCURVE",
"376 138 CURVE SMOOTH",
"421 138 OFFCURVE",
"454 156 OFFCURVE",
"476 186 CURVE SMOOTH",
"482 194 OFFCURVE",
"485 198 OFFCURVE",
"488 198 CURVE SMOOTH",
"490 198 OFFCURVE",
"491 196 OFFCURVE",
"493 191 CURVE SMOOTH",
"504 164 OFFCURVE",
"513 143 OFFCURVE",
"518 130 CURVE SMOOTH",
"527 105 OFFCURVE",
"536 82 OFFCURVE",
"536 64 CURVE SMOOTH",
"536 54 OFFCURVE",
"533 46 OFFCURVE",
"528 40 CURVE SMOOTH",
"514 23 OFFCURVE",
"498 22 OFFCURVE",
"498 10 CURVE SMOOTH",
"498 -1 OFFCURVE",
"506 -10 OFFCURVE",
"528 -10 CURVE SMOOTH",
"550 -10 OFFCURVE",
"584 0 OFFCURVE",
"628 0 CURVE SMOOTH",
"678 0 OFFCURVE",
"709 -10 OFFCURVE",
"739 -10 CURVE SMOOTH",
"759 -10 OFFCURVE",
"769 -2 OFFCURVE",
"769 10 CURVE SMOOTH",
"769 21 OFFCURVE",
"763 30 OFFCURVE",
"751 30 CURVE SMOOTH",
"750 30 OFFCURVE",
"750 30 OFFCURVE",
"749 30 CURVE SMOOTH",
"732 29 OFFCURVE",
"717 40 OFFCURVE",
"699 58 CURVE SMOOTH",
"682 75 OFFCURVE",
"664 104 OFFCURVE",
"649 140 CURVE SMOOTH",
"610 234 OFFCURVE",
"493 482 OFFCURVE",
"469 548 CURVE SMOOTH",
"458 579 OFFCURVE",
"453 590 OFFCURVE",
"450 609 CURVE SMOOTH",
"442 654 LINE SMOOTH",
"440 667 OFFCURVE",
"433 678 OFFCURVE",
"414 678 CURVE SMOOTH",
"394 678 OFFCURVE",
"383 668 OFFCURVE",
"346 668 CURVE SMOOTH",
"323 668 LINE SMOOTH",
"296 668 OFFCURVE",
"283 659 OFFCURVE",
"283 644 CURVE SMOOTH",
"283 635 OFFCURVE",
"290 628 OFFCURVE",
"299 628 CURVE SMOOTH",
"310 628 OFFCURVE",
"315 621 OFFCURVE",
"315 611 CURVE SMOOTH",
"315 601 OFFCURVE",
"313 592 OFFCURVE",
"303 568 CURVE SMOOTH",
"263 472 OFFCURVE",
"180 275 OFFCURVE",
"128 162 CURVE SMOOTH",
"86 71 OFFCURVE",
"86 51 OFFCURVE",
"50 40 CURVE SMOOTH",
"22 31 OFFCURVE",
"10 22 OFFCURVE",
"10 10 CURVE SMOOTH",
"10 -1 OFFCURVE",
"18 -10 OFFCURVE",
"40 -10 CURVE SMOOTH"
);
},
{
closed = 1;
nodes = (
"415 206 OFFCURVE",
"399 210 OFFCURVE",
"380 220 CURVE SMOOTH",
"344 238 OFFCURVE",
"316 258 OFFCURVE",
"288 258 CURVE SMOOTH",
"271 258 OFFCURVE",
"258 252 OFFCURVE",
"243 243 CURVE SMOOTH",
"239 241 OFFCURVE",
"236 239 OFFCURVE",
"233 239 CURVE SMOOTH",
"230 239 OFFCURVE",
"227 241 OFFCURVE",
"230 249 CURVE SMOOTH",
"247 290 OFFCURVE",
"334 499 OFFCURVE",
"337 506 CURVE SMOOTH",
"339 511 OFFCURVE",
"343 514 OFFCURVE",
"347 514 CURVE SMOOTH",
"351 514 OFFCURVE",
"354 511 OFFCURVE",
"357 505 CURVE SMOOTH",
"360 497 OFFCURVE",
"423 356 OFFCURVE",
"464 260 CURVE SMOOTH",
"468 249 OFFCURVE",
"471 233 OFFCURVE",
"461 220 CURVE SMOOTH",
"455 212 OFFCURVE",
"443 206 OFFCURVE",
"428 206 CURVE SMOOTH"
);
}
);
width = 779;
},
{
associatedMasterId = "083550D2-F2E8-44E3-BE3D-E8BDF41EDFC4";
layerId = "0AAF2CB4-2EBD-42C4-BAB4-4CEC92C737FB";
width = 600;
},
{
anchors = (
{
name = bottom;
position = "{376, 20}";
},
{
name = ogonek;
position = "{648, 0}";
},
{
name = top;
position = "{399, 668}";
}
);
layerId = "9D9E1BAB-54C5-4388-83C1-CB7B88B482E6";
paths = (
{
closed = 1;
nodes = (
"69 -10 OFFCURVE",
"87 0 OFFCURVE",
"139 0 CURVE SMOOTH",
"169 0 OFFCURVE",
"191 -10 OFFCURVE",
"220 -10 CURVE SMOOTH",
"240 -10 OFFCURVE",
"250 -2 OFFCURVE",
"250 10 CURVE SMOOTH",
"250 22 OFFCURVE",
"243 30 OFFCURVE",
"230 30 CURVE SMOOTH",
"197 30 OFFCURVE",
"184 43 OFFCURVE",
"184 64 CURVE SMOOTH",
"184 84 OFFCURVE",
"191 103 OFFCURVE",
"203 134 CURVE SMOOTH",
"212 154 OFFCURVE",
"226 166 OFFCURVE",
"254 166 CURVE SMOOTH",
"305 166 OFFCURVE",
"339 128 OFFCURVE",
"393 128 CURVE SMOOTH",
"432 128 OFFCURVE",
"456 143 OFFCURVE",
"481 176 CURVE SMOOTH",
"487 184 OFFCURVE",
"490 188 OFFCURVE",
"493 188 CURVE SMOOTH",
"495 188 OFFCURVE",
"496 186 OFFCURVE",
"498 181 CURVE SMOOTH",
"509 154 OFFCURVE",
"513 143 OFFCURVE",
"518 130 CURVE SMOOTH",
"528 105 OFFCURVE",
"536 82 OFFCURVE",
"536 64 CURVE SMOOTH",
"536 54 OFFCURVE",
"533 46 OFFCURVE",
"528 40 CURVE SMOOTH",
"514 23 OFFCURVE",
"498 22 OFFCURVE",
"498 10 CURVE SMOOTH",
"498 -1 OFFCURVE",
"506 -10 OFFCURVE",
"528 -10 CURVE SMOOTH",
"550 -10 OFFCURVE",
"584 0 OFFCURVE",
"648 0 CURVE SMOOTH",
"718 0 OFFCURVE",
"749 -10 OFFCURVE",
"779 -10 CURVE SMOOTH",
"799 -10 OFFCURVE",
"809 -2 OFFCURVE",
"809 10 CURVE SMOOTH",
"809 21 OFFCURVE",
"803 30 OFFCURVE",
"791 30 CURVE SMOOTH",
"790 30 OFFCURVE",
"790 30 OFFCURVE",
"789 30 CURVE SMOOTH",
"772 30 OFFCURVE",
"757 40 OFFCURVE",
"739 58 CURVE SMOOTH",
"722 75 OFFCURVE",
"704 104 OFFCURVE",
"689 140 CURVE SMOOTH",
"650 234 OFFCURVE",
"532 482 OFFCURVE",
"509 548 CURVE SMOOTH",
"498 579 OFFCURVE",
"493 590 OFFCURVE",
"490 609 CURVE SMOOTH",
"482 654 LINE SMOOTH",
"480 667 OFFCURVE",
"473 678 OFFCURVE",
"454 678 CURVE SMOOTH",
"434 678 OFFCURVE",
"423 668 OFFCURVE",
"366 668 CURVE SMOOTH",
"323 668 LINE SMOOTH",
"296 668 OFFCURVE",
"283 659 OFFCURVE",
"283 644 CURVE SMOOTH",
"283 635 OFFCURVE",
"290 628 OFFCURVE",
"299 628 CURVE SMOOTH",
"310 628 OFFCURVE",
"315 621 OFFCURVE",
"315 611 CURVE SMOOTH",
"315 601 OFFCURVE",
"313 592 OFFCURVE",
"303 568 CURVE SMOOTH",
"263 472 OFFCURVE",
"180 275 OFFCURVE",
"128 162 CURVE SMOOTH",
"86 71 OFFCURVE",
"86 52 OFFCURVE",
"50 40 CURVE SMOOTH",
"22 31 OFFCURVE",
"10 22 OFFCURVE",
"10 10 CURVE SMOOTH",
"10 -1 OFFCURVE",
"18 -10 OFFCURVE",
"40 -10 CURVE SMOOTH"
);
},
{
closed = 1;
nodes = (
"414 230 OFFCURVE",
"398 238 OFFCURVE",
"378 248 CURVE SMOOTH",
"349 263 OFFCURVE",
"334 271 OFFCURVE",
"314 271 CURVE SMOOTH",
"297 271 OFFCURVE",
"286 266 OFFCURVE",
"269 258 CURVE SMOOTH",
"265 256 OFFCURVE",
"262 254 OFFCURVE",
"259 254 CURVE SMOOTH",
"256 254 OFFCURVE",
"253 256 OFFCURVE",
"257 267 CURVE SMOOTH",
"272 307 OFFCURVE",
"344 469 OFFCURVE",
"347 476 CURVE SMOOTH",
"349 481 OFFCURVE",
"353 484 OFFCURVE",
"357 484 CURVE SMOOTH",
"361 484 OFFCURVE",
"364 481 OFFCURVE",
"367 475 CURVE SMOOTH",
"371 467 OFFCURVE",
"431 331 OFFCURVE",
"462 261 CURVE SMOOTH",
"467 249 OFFCURVE",
"473 233 OFFCURVE",
"461 226 CURVE SMOOTH",
"455 222 OFFCURVE",
"441 222 OFFCURVE",
"427 226 CURVE SMOOTH"
);
}
);
width = 819;
},
{
associatedMasterId = "9D9E1BAB-54C5-4388-83C1-CB7B88B482E6";
layerId = "AED2F3DD-F336-4A6D-B056-F80B587C6291";
width = 600;
}
);
leftKerningGroup = A;
rightKerningGroup = A;
unicode = 0041;
},
{
color = 1;
glyphname = B;
lastChange = "2021-05-29 16:39:46 +0000";
layers = (
{
layerId = "083550D2-F2E8-44E3-BE3D-E8BDF41EDFC4";
paths = (
{
closed = 1;
nodes = (
"102 -10 OFFCURVE",
"115 0 OFFCURVE",
"159 0 CURVE SMOOTH",
"206 0 OFFCURVE",
"270 -10 OFFCURVE",
"340 -10 CURVE SMOOTH",
"516 -10 OFFCURVE",
"593 64 OFFCURVE",
"593 177 CURVE SMOOTH",
"593 276 OFFCURVE",
"523 348 OFFCURVE",
"414 368 CURVE SMOOTH",
"408 369 OFFCURVE",
"406 371 OFFCURVE",
"406 374 CURVE SMOOTH",
"406 377 OFFCURVE",
"409 381 OFFCURVE",
"414 384 CURVE SMOOTH",
"477 420 OFFCURVE",
"519 472 OFFCURVE",
"519 531 CURVE SMOOTH",
"519 625 OFFCURVE",
"439 678 OFFCURVE",
"300 678 CURVE SMOOTH",
"230 678 OFFCURVE",
"206 668 OFFCURVE",
"159 668 CURVE SMOOTH",
"118 668 OFFCURVE",
"98 678 OFFCURVE",
"70 678 CURVE SMOOTH",
"48 678 OFFCURVE",
"40 668 OFFCURVE",
"40 658 CURVE SMOOTH",
"40 647 OFFCURVE",
"47 638 OFFCURVE",
"58 638 CURVE SMOOTH",
"60 638 LINE SMOOTH",
"75 639 OFFCURVE",
"84 631 OFFCURVE",
"90 618 CURVE SMOOTH",
"99 598 OFFCURVE",
"100 565 OFFCURVE",
"100 538 CURVE SMOOTH",
"100 130 LINE SMOOTH",
"100 90 OFFCURVE",
"96 59 OFFCURVE",
"80 40 CURVE SMOOTH",
"66 23 OFFCURVE",
"50 22 OFFCURVE",
"50 10 CURVE SMOOTH",
"50 -1 OFFCURVE",
"58 -10 OFFCURVE",
"80 -10 CURVE SMOOTH"
);
},
{
closed = 1;
nodes = (
"247 40 OFFCURVE",
"220 66 OFFCURVE",
"220 150 CURVE SMOOTH",
"220 250 LINE SMOOTH",
"220 278 OFFCURVE",
"225 290 OFFCURVE",
"241 301 CURVE SMOOTH",
"256 311 OFFCURVE",
"289 324 OFFCURVE",
"331 324 CURVE SMOOTH",
"410 324 OFFCURVE",
"472 274 OFFCURVE",
"472 177 CURVE SMOOTH",
"472 102 OFFCURVE",
"427 40 OFFCURVE",
"340 40 CURVE SMOOTH"
);
},
{
closed = 1;
nodes = (
"228 354 OFFCURVE",
"220 364 OFFCURVE",
"220 385 CURVE SMOOTH",
"220 548 LINE SMOOTH",
"220 564 OFFCURVE",
"221 580 OFFCURVE",
"225 592 CURVE SMOOTH",
"236 622 OFFCURVE",
"263 638 OFFCURVE",
"300 638 CURVE SMOOTH",
"358 638 OFFCURVE",
"398 593 OFFCURVE",
"398 531 CURVE SMOOTH",
"398 424 OFFCURVE",
"333 368 OFFCURVE",
"250 357 CURVE SMOOTH"
);
}
);
width = 623;
},
{
associatedMasterId = "083550D2-F2E8-44E3-BE3D-E8BDF41EDFC4";
layerId = "0AAF2CB4-2EBD-42C4-BAB4-4CEC92C737FB";
width = 600;
},
{
layerId = "9D9E1BAB-54C5-4388-83C1-CB7B88B482E6";
paths = (
{
closed = 1;
nodes = (
"92 -10 OFFCURVE",
"105 0 OFFCURVE",
"169 0 CURVE SMOOTH",
"216 0 OFFCURVE",
"300 -10 OFFCURVE",
"370 -10 CURVE SMOOTH",
"546 -10 OFFCURVE",
"623 64 OFFCURVE",
"623 177 CURVE SMOOTH",
"623 276 OFFCURVE",
"553 350 OFFCURVE",
"444 368 CURVE SMOOTH",
"438 369 OFFCURVE",
"436 371 OFFCURVE",
"436 374 CURVE SMOOTH",
"436 377 OFFCURVE",
"439 381 OFFCURVE",
"444 384 CURVE SMOOTH",
"501 416 OFFCURVE",
"549 460 OFFCURVE",
"549 531 CURVE SMOOTH",
"549 625 OFFCURVE",
"469 678 OFFCURVE",
"330 678 CURVE SMOOTH",
"260 678 OFFCURVE",
"216 668 OFFCURVE",
"169 668 CURVE SMOOTH",
"108 668 OFFCURVE",
"88 678 OFFCURVE",
"60 678 CURVE SMOOTH",
"38 678 OFFCURVE",
"30 668 OFFCURVE",
"30 658 CURVE SMOOTH",
"30 647 OFFCURVE",
"37 638 OFFCURVE",
"48 638 CURVE SMOOTH",
"50 638 LINE SMOOTH",
"65 638 OFFCURVE",
"74 631 OFFCURVE",
"80 618 CURVE SMOOTH",
"89 598 OFFCURVE",
"90 565 OFFCURVE",
"90 538 CURVE SMOOTH",
"90 130 LINE SMOOTH",
"90 90 OFFCURVE",
"86 59 OFFCURVE",
"70 40 CURVE SMOOTH",
"56 23 OFFCURVE",
"40 22 OFFCURVE",
"40 10 CURVE SMOOTH",
"40 -1 OFFCURVE",
"48 -10 OFFCURVE",
"70 -10 CURVE SMOOTH"
);
},
{
closed = 1;
nodes = (
"287 60 OFFCURVE",
"250 86 OFFCURVE",
"250 170 CURVE SMOOTH",
"250 240 LINE SMOOTH",
"250 268 OFFCURVE",
"255 283 OFFCURVE",
"270 292 CURVE SMOOTH",
"285 301 OFFCURVE",
"304 310 OFFCURVE",
"341 310 CURVE SMOOTH",
"400 310 OFFCURVE",
"462 284 OFFCURVE",
"462 187 CURVE SMOOTH",
"462 112 OFFCURVE",
"427 60 OFFCURVE",
"350 60 CURVE SMOOTH"
);
},
{
closed = 1;
nodes = (
"262 366 OFFCURVE",
"250 369 OFFCURVE",
"250 390 CURVE SMOOTH",
"250 528 LINE SMOOTH",
"250 544 OFFCURVE",
"250 565 OFFCURVE",
"255 582 CURVE SMOOTH",
"261 603 OFFCURVE",
"278 618 OFFCURVE",
"310 618 CURVE SMOOTH",
"356 618 OFFCURVE",
"388 583 OFFCURVE",
"388 521 CURVE SMOOTH",
"388 428 OFFCURVE",
"336 386 OFFCURVE",
"283 372 CURVE SMOOTH"
);
}
);
width = 653;
},
{
associatedMasterId = "9D9E1BAB-54C5-4388-83C1-CB7B88B482E6";
layerId = "8C2649AD-DA97-4ACB-A965-B1D058634FE0";
width = 600;
}
);
leftKerningGroup = H;
leftMetricsKey = H;
rightKerningGroup = B;
unicode = 0042;
},
{
color = 1;
glyphname = C;
lastChange = "2021-05-29 16:44:15 +0000";
layers = (
{
anchors = (
{
name = bottom;
position = "{400, 0}";
},
{
name = top;
position = "{394, 680}";
}
);
layerId = "083550D2-F2E8-44E3-BE3D-E8BDF41EDFC4";
paths = (
{
closed = 1;
nodes = (
"565 -10 OFFCURVE",
"646 69 OFFCURVE",
"667 115 CURVE SMOOTH",
"670 122 OFFCURVE",
"672 129 OFFCURVE",
"672 134 CURVE SMOOTH",
"672 144 OFFCURVE",
"666 151 OFFCURVE",
"656 151 CURVE SMOOTH",
"640 151 OFFCURVE",
"622 134 OFFCURVE",
"592 112 CURVE SMOOTH",
"551 82 OFFCURVE",
"498 50 OFFCURVE",
"410 50 CURVE SMOOTH",
"274 50 OFFCURVE",
"170 147 OFFCURVE",
"170 334 CURVE SMOOTH",
"170 532 OFFCURVE",
"273 628 OFFCURVE",
"390 628 CURVE SMOOTH",
"462 628 OFFCURVE",
"512 601 OFFCURVE",
"534 565 CURVE SMOOTH",
"542 552 OFFCURVE",
"545 540 OFFCURVE",
"545 532 CURVE SMOOTH",
"545 520 OFFCURVE",
"539 514 OFFCURVE",
"531 518 CURVE SMOOTH",
"525 521 OFFCURVE",
"519 523 OFFCURVE",
"514 523 CURVE SMOOTH",
"498 523 OFFCURVE",
"485 510 OFFCURVE",
"485 482 CURVE SMOOTH",
"485 435 OFFCURVE",
"517 405 OFFCURVE",
"566 405 CURVE SMOOTH",
"618 405 OFFCURVE",
"649 445 OFFCURVE",
"649 494 CURVE SMOOTH",
"649 532 OFFCURVE",
"637 563 OFFCURVE",
"604 599 CURVE SMOOTH",
"570 637 OFFCURVE",
"502 678 OFFCURVE",
"390 678 CURVE SMOOTH",
"189 678 OFFCURVE",
"50 555 OFFCURVE",
"50 334 CURVE SMOOTH",
"50 117 OFFCURVE",
"193 -10 OFFCURVE",
"400 -10 CURVE SMOOTH"
);
}
);
width = 712;
},
{
associatedMasterId = "083550D2-F2E8-44E3-BE3D-E8BDF41EDFC4";
layerId = "0AAF2CB4-2EBD-42C4-BAB4-4CEC92C737FB";
width = 600;
},
{
anchors = (
{
name = bottom;
position = "{410, 0}";
},
{
name = top;
position = "{404, 680}";
}
);
layerId = "9D9E1BAB-54C5-4388-83C1-CB7B88B482E6";
paths = (
{
closed = 1;
nodes = (
"561 -12 OFFCURVE",
"657 69 OFFCURVE",
"677 115 CURVE SMOOTH",
"680 122 OFFCURVE",
"682 129 OFFCURVE",
"682 134 CURVE SMOOTH",
"682 144 OFFCURVE",
"676 151 OFFCURVE",
"666 151 CURVE SMOOTH",
"650 151 OFFCURVE",
"634 139 OFFCURVE",
"602 120 CURVE SMOOTH",
"559 94 OFFCURVE",
"508 70 OFFCURVE",
"420 70 CURVE SMOOTH",
"304 70 OFFCURVE",
"200 157 OFFCURVE",
"200 334 CURVE SMOOTH",
"200 522 OFFCURVE",
"303 608 OFFCURVE",
"400 608 CURVE SMOOTH",
"456 608 OFFCURVE",
"496 589 OFFCURVE",
"516 571 CURVE SMOOTH",
"529 559 OFFCURVE",
"535 550 OFFCURVE",
"535 542 CURVE SMOOTH",
"535 532 OFFCURVE",
"531 529 OFFCURVE",
"523 531 CURVE SMOOTH",
"517 533 OFFCURVE",
"515 533 OFFCURVE",
"507 533 CURVE SMOOTH",
"487 533 OFFCURVE",
"475 510 OFFCURVE",
"475 482 CURVE SMOOTH",
"475 435 OFFCURVE",
"517 405 OFFCURVE",
"576 405 CURVE SMOOTH",
"628 405 OFFCURVE",
"659 445 OFFCURVE",
"659 494 CURVE SMOOTH",
"659 532 OFFCURVE",
"647 563 OFFCURVE",
"614 599 CURVE SMOOTH",
"580 637 OFFCURVE",
"502 678 OFFCURVE",
"390 678 CURVE SMOOTH",
"189 678 OFFCURVE",
"40 555 OFFCURVE",
"40 334 CURVE SMOOTH",
"40 117 OFFCURVE",
"189 -12 OFFCURVE",
"396 -12 CURVE SMOOTH"
);
}
);
width = 722;
},
{
associatedMasterId = "9D9E1BAB-54C5-4388-83C1-CB7B88B482E6";
layerId = "093FA7C6-1568-403B-AEF4-68C215671152";
width = 600;
}
);
leftKerningGroup = O;
leftMetricsKey = O;
rightKerningGroup = C;
unicode = 0043;
},
{
color = 1;
glyphname = D;
lastChange = "2021-05-29 16:39:46 +0000";
layers = (
{
anchors = (
{
name = bottom;
position = "{323, 0}";
},
{
name = center;
position = "{166, 340}";
},
{
name = top;
position = "{403, 668}";
}
);
layerId = "083550D2-F2E8-44E3-BE3D-E8BDF41EDFC4";
paths = (
{
closed = 1;
nodes = (
"102 -10 OFFCURVE",
"125 0 OFFCURVE",
"169 0 CURVE SMOOTH",
"220 0 OFFCURVE",
"270 -10 OFFCURVE",
"350 -10 CURVE SMOOTH",
"570 -10 OFFCURVE",
"719 91 OFFCURVE",
"719 334 CURVE SMOOTH",
"719 572 OFFCURVE",
"568 678 OFFCURVE",
"350 678 CURVE SMOOTH",
"252 678 OFFCURVE",
"221 668 OFFCURVE",
"169 668 CURVE SMOOTH",
"128 668 OFFCURVE",
"98 678 OFFCURVE",
"70 678 CURVE SMOOTH",
"48 678 OFFCURVE",
"40 668 OFFCURVE",
"40 658 CURVE SMOOTH",
"40 647 OFFCURVE",
"47 638 OFFCURVE",
"58 638 CURVE SMOOTH",
"59 638 OFFCURVE",
"59 638 OFFCURVE",
"60 638 CURVE SMOOTH",
"75 639 OFFCURVE",
"84 631 OFFCURVE",
"90 618 CURVE SMOOTH",
"99 598 OFFCURVE",
"100 565 OFFCURVE",
"100 538 CURVE SMOOTH",
"100 120 LINE SMOOTH",
"100 80 OFFCURVE",
"96 59 OFFCURVE",
"80 40 CURVE SMOOTH",
"66 23 OFFCURVE",
"50 22 OFFCURVE",
"50 10 CURVE SMOOTH",
"50 -1 OFFCURVE",
"58 -10 OFFCURVE",
"80 -10 CURVE SMOOTH"
);
},
{
closed = 1;
nodes = (
"228 40 OFFCURVE",
"220 55 OFFCURVE",
"220 120 CURVE SMOOTH",
"220 548 LINE SMOOTH",
"220 615 OFFCURVE",
"231 628 OFFCURVE",
"340 628 CURVE SMOOTH",
"487 628 OFFCURVE",
"597 535 OFFCURVE",
"597 334 CURVE SMOOTH",
"597 124 OFFCURVE",
"487 40 OFFCURVE",
"340 40 CURVE SMOOTH"
);
}
);
width = 769;
},
{
associatedMasterId = "083550D2-F2E8-44E3-BE3D-E8BDF41EDFC4";
layerId = "0AAF2CB4-2EBD-42C4-BAB4-4CEC92C737FB";
width = 600;
},
{
anchors = (
{
name = bottom;
position = "{333, 0}";
},
{
name = center;
position = "{176, 340}";
},
{
name = top;
position = "{413, 668}";
}
);
layerId = "9D9E1BAB-54C5-4388-83C1-CB7B88B482E6";
paths = (
{
closed = 1;
nodes = (
"92 -10 OFFCURVE",
"115 0 OFFCURVE",
"179 0 CURVE SMOOTH",
"230 0 OFFCURVE",
"280 -10 OFFCURVE",
"360 -10 CURVE SMOOTH",
"590 -10 OFFCURVE",
"749 91 OFFCURVE",
"749 334 CURVE SMOOTH",
"749 572 OFFCURVE",
"588 678 OFFCURVE",
"360 678 CURVE SMOOTH",
"262 678 OFFCURVE",
"231 668 OFFCURVE",
"179 668 CURVE SMOOTH",
"118 668 OFFCURVE",
"88 678 OFFCURVE",
"60 678 CURVE SMOOTH",
"38 678 OFFCURVE",
"30 668 OFFCURVE",
"30 658 CURVE SMOOTH",
"30 647 OFFCURVE",
"37 638 OFFCURVE",
"48 638 CURVE SMOOTH",
"49 638 OFFCURVE",
"49 638 OFFCURVE",
"50 638 CURVE SMOOTH",
"65 638 OFFCURVE",
"74 631 OFFCURVE",
"80 618 CURVE SMOOTH",
"89 598 OFFCURVE",
"90 565 OFFCURVE",
"90 538 CURVE SMOOTH",
"90 120 LINE SMOOTH",
"90 80 OFFCURVE",
"86 59 OFFCURVE",
"70 40 CURVE SMOOTH",
"56 23 OFFCURVE",
"40 22 OFFCURVE",
"40 10 CURVE SMOOTH",
"40 -1 OFFCURVE",
"48 -10 OFFCURVE",
"70 -10 CURVE SMOOTH"
);
},
{
closed = 1;
nodes = (
"258 60 OFFCURVE",
"250 75 OFFCURVE",
"250 140 CURVE SMOOTH",
"250 528 LINE SMOOTH",
"250 595 OFFCURVE",
"261 608 OFFCURVE",
"350 608 CURVE SMOOTH",
"487 608 OFFCURVE",
"587 516 OFFCURVE",
"587 334 CURVE SMOOTH",
"587 144 OFFCURVE",
"487 60 OFFCURVE",
"350 60 CURVE SMOOTH"
);
}
);
width = 789;
},
{
associatedMasterId = "9D9E1BAB-54C5-4388-83C1-CB7B88B482E6";
layerId = "405F87BA-2F56-4F6B-BC81-A312670639C1";
width = 600;
}
);
leftKerningGroup = H;
leftMetricsKey = H;
rightKerningGroup = O;
rightMetricsKey = O;
unicode = 0044;
},
{
color = 1;
glyphname = E;
lastChange = "2021-08-11 11:22:11 +0000";
layers = (
{
anchors = (
{
name = bottom;
position = "{284, 0}";
},
{
name = ogonek;
position = "{425, -10}";
},
{
name = top;
position = "{294, 669}";
},
{
name = topleft;
position = "{30, 710}";
}
);
layerId = "083550D2-F2E8-44E3-BE3D-E8BDF41EDFC4";
paths = (
{
closed = 1;
nodes = (
"116 -10 OFFCURVE",
"134 10 OFFCURVE",
"189 10 CURVE SMOOTH",
"224 10 OFFCURVE",
"259 4 OFFCURVE",
"295 0 CURVE SMOOTH",
"356 -7 OFFCURVE",
"391 -10 OFFCURVE",
"425 -10 CURVE SMOOTH",
"453 -10 OFFCURVE",
"465 -8 OFFCURVE",
"475 10 CURVE SMOOTH",
"499 55 OFFCURVE",
"523 122 OFFCURVE",
"523 155 CURVE SMOOTH",
"523 172 OFFCURVE",
"516 183 OFFCURVE",
"499 183 CURVE SMOOTH",
"485 183 OFFCURVE",
"473 173 OFFCURVE",
"473 151 CURVE SMOOTH",
"473 122 OFFCURVE",
"441 50 OFFCURVE",
"320 50 CURVE SMOOTH",
"300 50 LINE SMOOTH",
"243 50 OFFCURVE",
"220 55 OFFCURVE",
"220 160 CURVE SMOOTH",
"220 289 LINE SMOOTH",
"220 323 OFFCURVE",
"225 329 OFFCURVE",
"250 329 CURVE SMOOTH",
"322 329 OFFCURVE",
"344 329 OFFCURVE",
"366 322 CURVE SMOOTH",
"384 316 OFFCURVE",
"386 308 OFFCURVE",
"386 284 CURVE SMOOTH",
"386 263 OFFCURVE",
"394 254 OFFCURVE",
"413 254 CURVE SMOOTH",
"426 254 OFFCURVE",
"436 265 OFFCURVE",
"436 284 CURVE SMOOTH",
"436 357 OFFCURVE",
"439 361 OFFCURVE",
"445 380 CURVE SMOOTH",
"446 384 OFFCURVE",
"447 388 OFFCURVE",
"447 391 CURVE SMOOTH",
"447 402 OFFCURVE",
"441 410 OFFCURVE",
"427 410 CURVE SMOOTH",
"409 410 OFFCURVE",
"396 396 OFFCURVE",
"383 390 CURVE SMOOTH",
"364 381 OFFCURVE",
"344 379 OFFCURVE",
"319 379 CURVE SMOOTH",
"250 379 LINE SMOOTH",
"224 379 OFFCURVE",
"220 384 OFFCURVE",
"220 419 CURVE SMOOTH",
"220 578 LINE SMOOTH",
"220 611 OFFCURVE",
"227 618 OFFCURVE",
"260 618 CURVE SMOOTH",
"291 618 LINE SMOOTH",
"354 618 OFFCURVE",
"383 615 OFFCURVE",
"402 599 CURVE SMOOTH",
"416 587 OFFCURVE",
"417 565 OFFCURVE",
"417 545 CURVE SMOOTH",
"417 517 OFFCURVE",
"423 505 OFFCURVE",
"442 505 CURVE SMOOTH",
"456 505 OFFCURVE",
"467 516 OFFCURVE",
"467 538 CURVE SMOOTH",
"467 608 OFFCURVE",
"478 636 OFFCURVE",
"478 656 CURVE SMOOTH",
"478 660 OFFCURVE",
"477 664 OFFCURVE",
"476 668 CURVE SMOOTH",
"474 674 OFFCURVE",
"468 678 OFFCURVE",
"457 678 CURVE SMOOTH",
"439 678 OFFCURVE",
"434 668 OFFCURVE",
"393 668 CURVE SMOOTH",
"70 668 LINE SMOOTH",
"48 668 OFFCURVE",
"40 658 OFFCURVE",
"40 648 CURVE SMOOTH",
"40 637 OFFCURVE",
"47 628 OFFCURVE",
"58 628 CURVE SMOOTH",
"60 628 LINE SMOOTH",
"75 628 OFFCURVE",
"84 621 OFFCURVE",
"90 608 CURVE SMOOTH",
"99 588 OFFCURVE",
"100 555 OFFCURVE",
"100 528 CURVE SMOOTH",
"100 140 LINE SMOOTH",
"100 100 OFFCURVE",
"96 69 OFFCURVE",
"80 50 CURVE SMOOTH",
"66 33 OFFCURVE",
"50 25 OFFCURVE",
"50 10 CURVE SMOOTH",
"50 -1 OFFCURVE",
"58 -10 OFFCURVE",
"80 -10 CURVE SMOOTH"
);
}
);
width = 533;
},
{
associatedMasterId = "083550D2-F2E8-44E3-BE3D-E8BDF41EDFC4";
layerId = "0AAF2CB4-2EBD-42C4-BAB4-4CEC92C737FB";
width = 600;
},
{
anchors = (
{
name = bottom;
position = "{294, 0}";
},
{
name = ogonek;
position = "{435, -10}";
},
{
name = top;
position = "{304, 669}";
},
{
name = topleft;
position = "{40, 710}";
}
);
layerId = "9D9E1BAB-54C5-4388-83C1-CB7B88B482E6";
paths = (
{
closed = 1;
nodes = (
"106 -10 OFFCURVE",
"124 10 OFFCURVE",
"199 10 CURVE SMOOTH",
"234 10 OFFCURVE",
"269 4 OFFCURVE",
"305 0 CURVE SMOOTH",
"366 -7 OFFCURVE",
"401 -10 OFFCURVE",
"435 -10 CURVE SMOOTH",
"463 -10 OFFCURVE",
"478 -9 OFFCURVE",
"485 10 CURVE SMOOTH",
"509 75 OFFCURVE",
"533 142 OFFCURVE",
"533 175 CURVE SMOOTH",
"533 192 OFFCURVE",
"526 203 OFFCURVE",
"509 203 CURVE SMOOTH",
"495 203 OFFCURVE",
"483 193 OFFCURVE",
"483 171 CURVE SMOOTH",
"483 142 OFFCURVE",
"451 70 OFFCURVE",
"340 70 CURVE SMOOTH",
"320 70 LINE SMOOTH",
"283 70 OFFCURVE",
"250 75 OFFCURVE",
"250 180 CURVE SMOOTH",
"250 279 LINE SMOOTH",
"250 313 OFFCURVE",
"255 319 OFFCURVE",
"280 319 CURVE SMOOTH",
"339 319 OFFCURVE",
"357 319 OFFCURVE",
"376 312 CURVE SMOOTH",
"394 305 OFFCURVE",
"396 298 OFFCURVE",
"396 274 CURVE SMOOTH",
"396 253 OFFCURVE",
"404 244 OFFCURVE",
"423 244 CURVE SMOOTH",
"436 244 OFFCURVE",
"446 255 OFFCURVE",
"446 274 CURVE SMOOTH",
"446 347 OFFCURVE",
"450 371 OFFCURVE",
"455 390 CURVE SMOOTH",
"456 394 OFFCURVE",
"457 398 OFFCURVE",
"457 401 CURVE SMOOTH",
"457 412 OFFCURVE",
"451 420 OFFCURVE",
"437 420 CURVE SMOOTH",
"419 420 OFFCURVE",
"406 406 OFFCURVE",
"393 400 CURVE SMOOTH",
"374 391 OFFCURVE",
"354 389 OFFCURVE",
"329 389 CURVE SMOOTH",
"280 389 LINE SMOOTH",
"254 389 OFFCURVE",
"250 394 OFFCURVE",
"250 429 CURVE SMOOTH",
"250 558 LINE SMOOTH",
"250 591 OFFCURVE",
"257 598 OFFCURVE",
"290 598 CURVE SMOOTH",
"301 598 LINE SMOOTH",
"364 598 OFFCURVE",
"393 595 OFFCURVE",
"412 579 CURVE SMOOTH",
"426 567 OFFCURVE",
"427 545 OFFCURVE",
"427 525 CURVE SMOOTH",
"427 497 OFFCURVE",
"433 485 OFFCURVE",
"452 485 CURVE SMOOTH",
"466 485 OFFCURVE",
"477 496 OFFCURVE",
"477 518 CURVE SMOOTH",
"477 588 OFFCURVE",
"488 636 OFFCURVE",
"488 656 CURVE SMOOTH",
"488 660 OFFCURVE",
"487 664 OFFCURVE",
"486 668 CURVE SMOOTH",
"484 674 OFFCURVE",
"478 678 OFFCURVE",
"467 678 CURVE SMOOTH",
"449 678 OFFCURVE",
"444 668 OFFCURVE",
"403 668 CURVE SMOOTH",
"60 668 LINE SMOOTH",
"38 668 OFFCURVE",
"30 658 OFFCURVE",
"30 648 CURVE SMOOTH",
"30 637 OFFCURVE",
"37 628 OFFCURVE",
"48 628 CURVE SMOOTH",
"50 628 LINE SMOOTH",
"65 628 OFFCURVE",
"74 621 OFFCURVE",
"80 608 CURVE SMOOTH",
"89 588 OFFCURVE",
"90 555 OFFCURVE",
"90 528 CURVE SMOOTH",
"90 140 LINE SMOOTH",
"90 100 OFFCURVE",
"86 69 OFFCURVE",
"70 50 CURVE SMOOTH",
"56 33 OFFCURVE",
"40 25 OFFCURVE",
"40 10 CURVE SMOOTH",
"40 -1 OFFCURVE",
"48 -10 OFFCURVE",
"70 -10 CURVE SMOOTH"
);
}
);
width = 543;
},
{
associatedMasterId = "9D9E1BAB-54C5-4388-83C1-CB7B88B482E6";
layerId = "C29CA7FD-870D-49E1-ACC2-3521FF9CF77F";
width = 600;
}
);
leftKerningGroup = H;
leftMetricsKey = H;
rightKerningGroup = E;
unicode = 0045;
},
{
color = 1;
glyphname = F;
lastChange = "2021-08-11 11:22:11 +0000";
layers = (
{
layerId = "083550D2-F2E8-44E3-BE3D-E8BDF41EDFC4";
paths = (
{
closed = 1;
nodes = (
"102 -10 OFFCURVE",
"115 0 OFFCURVE",
"159 0 CURVE SMOOTH",
"209 0 OFFCURVE",
"220 -10 OFFCURVE",
"250 -10 CURVE SMOOTH",
"270 -10 OFFCURVE",
"280 -2 OFFCURVE",
"280 10 CURVE SMOOTH",
"280 22 OFFCURVE",
"273 30 OFFCURVE",
"260 30 CURVE SMOOTH",
"243 30 OFFCURVE",
"236 39 OFFCURVE",
"230 60 CURVE SMOOTH",
"222 88 OFFCURVE",
"220 116 OFFCURVE",
"220 140 CURVE SMOOTH",
"220 289 LINE SMOOTH",
"220 323 OFFCURVE",
"225 329 OFFCURVE",
"250 329 CURVE SMOOTH",
"322 329 OFFCURVE",
"344 329 OFFCURVE",
"366 322 CURVE SMOOTH",
"384 316 OFFCURVE",
"386 308 OFFCURVE",
"386 284 CURVE SMOOTH",
"386 263 OFFCURVE",
"394 254 OFFCURVE",
"413 254 CURVE SMOOTH",
"426 254 OFFCURVE",
"436 265 OFFCURVE",
"436 284 CURVE SMOOTH",
"436 357 OFFCURVE",
"439 361 OFFCURVE",
"445 380 CURVE SMOOTH",
"446 384 OFFCURVE",
"447 388 OFFCURVE",
"447 391 CURVE SMOOTH",
"447 402 OFFCURVE",
"441 410 OFFCURVE",
"427 410 CURVE SMOOTH",
"409 410 OFFCURVE",
"396 396 OFFCURVE",
"383 390 CURVE SMOOTH",
"364 381 OFFCURVE",
"344 379 OFFCURVE",
"319 379 CURVE SMOOTH",
"250 379 LINE SMOOTH",
"224 379 OFFCURVE",
"220 384 OFFCURVE",
"220 419 CURVE SMOOTH",
"220 578 LINE SMOOTH",
"220 611 OFFCURVE",
"227 618 OFFCURVE",
"260 618 CURVE SMOOTH",
"291 618 LINE SMOOTH",
"354 618 OFFCURVE",
"383 615 OFFCURVE",
"402 599 CURVE SMOOTH",
"416 587 OFFCURVE",
"417 565 OFFCURVE",
"417 545 CURVE SMOOTH",
"417 517 OFFCURVE",
"423 505 OFFCURVE",
"442 505 CURVE SMOOTH",
"456 505 OFFCURVE",
"467 516 OFFCURVE",
"467 538 CURVE SMOOTH",
"467 608 OFFCURVE",
"478 636 OFFCURVE",
"478 656 CURVE SMOOTH",
"478 660 OFFCURVE",
"477 664 OFFCURVE",
"476 668 CURVE SMOOTH",
"474 674 OFFCURVE",
"468 678 OFFCURVE",
"457 678 CURVE SMOOTH",
"439 678 OFFCURVE",
"434 668 OFFCURVE",
"393 668 CURVE SMOOTH",
"70 668 LINE SMOOTH",
"48 668 OFFCURVE",
"40 658 OFFCURVE",
"40 648 CURVE SMOOTH",
"40 637 OFFCURVE",
"47 628 OFFCURVE",
"58 628 CURVE SMOOTH",
"60 628 LINE SMOOTH",
"75 629 OFFCURVE",
"84 621 OFFCURVE",
"90 608 CURVE SMOOTH",
"99 588 OFFCURVE",
"100 555 OFFCURVE",
"100 528 CURVE SMOOTH",
"100 130 LINE SMOOTH",
"100 90 OFFCURVE",
"96 59 OFFCURVE",
"80 40 CURVE SMOOTH",
"66 23 OFFCURVE",
"50 22 OFFCURVE",
"50 10 CURVE SMOOTH",
"50 -1 OFFCURVE",
"58 -10 OFFCURVE",
"80 -10 CURVE SMOOTH"
);
}
);
width = 508;
},
{
associatedMasterId = "083550D2-F2E8-44E3-BE3D-E8BDF41EDFC4";
layerId = "0AAF2CB4-2EBD-42C4-BAB4-4CEC92C737FB";
width = 600;
},
{
layerId = "9D9E1BAB-54C5-4388-83C1-CB7B88B482E6";
paths = (
{
closed = 1;
nodes = (
"92 -10 OFFCURVE",
"105 0 OFFCURVE",
"169 0 CURVE SMOOTH",
"239 0 OFFCURVE",
"250 -10 OFFCURVE",
"280 -10 CURVE SMOOTH",
"300 -10 OFFCURVE",
"310 -2 OFFCURVE",
"310 10 CURVE SMOOTH",
"310 22 OFFCURVE",
"303 30 OFFCURVE",
"290 30 CURVE SMOOTH",
"273 30 OFFCURVE",
"266 39 OFFCURVE",
"260 60 CURVE SMOOTH",
"252 88 OFFCURVE",
"250 116 OFFCURVE",
"250 140 CURVE SMOOTH",
"250 279 LINE SMOOTH",
"250 313 OFFCURVE",
"255 319 OFFCURVE",
"280 319 CURVE SMOOTH",
"343 319 OFFCURVE",
"352 319 OFFCURVE",
"376 312 CURVE SMOOTH",
"394 307 OFFCURVE",
"396 298 OFFCURVE",
"396 274 CURVE SMOOTH",
"396 253 OFFCURVE",
"404 244 OFFCURVE",
"423 244 CURVE SMOOTH",
"436 244 OFFCURVE",
"446 255 OFFCURVE",
"446 274 CURVE SMOOTH",
"446 347 OFFCURVE",
"450 371 OFFCURVE",
"455 390 CURVE SMOOTH",
"456 394 OFFCURVE",
"457 398 OFFCURVE",
"457 401 CURVE SMOOTH",
"457 412 OFFCURVE",
"451 420 OFFCURVE",
"437 420 CURVE SMOOTH",
"419 420 OFFCURVE",
"406 406 OFFCURVE",
"393 400 CURVE SMOOTH",
"374 391 OFFCURVE",
"354 389 OFFCURVE",
"329 389 CURVE SMOOTH",
"280 389 LINE SMOOTH",
"254 389 OFFCURVE",
"250 394 OFFCURVE",
"250 429 CURVE SMOOTH",
"250 558 LINE SMOOTH",
"250 591 OFFCURVE",
"257 598 OFFCURVE",
"290 598 CURVE SMOOTH",
"301 598 LINE SMOOTH",
"364 598 OFFCURVE",
"393 595 OFFCURVE",
"412 579 CURVE SMOOTH",
"426 567 OFFCURVE",
"427 545 OFFCURVE",
"427 525 CURVE SMOOTH",
"427 497 OFFCURVE",
"433 485 OFFCURVE",
"452 485 CURVE SMOOTH",
"466 485 OFFCURVE",
"477 496 OFFCURVE",
"477 518 CURVE SMOOTH",
"477 588 OFFCURVE",
"488 636 OFFCURVE",
"488 656 CURVE SMOOTH",
"488 660 OFFCURVE",
"487 664 OFFCURVE",
"486 668 CURVE SMOOTH",
"484 674 OFFCURVE",
"478 678 OFFCURVE",
"467 678 CURVE SMOOTH",
"449 678 OFFCURVE",
"444 668 OFFCURVE",
"403 668 CURVE SMOOTH",
"60 668 LINE SMOOTH",
"38 668 OFFCURVE",
"30 658 OFFCURVE",
"30 648 CURVE SMOOTH",
"30 637 OFFCURVE",
"37 628 OFFCURVE",
"48 628 CURVE SMOOTH",
"50 628 LINE SMOOTH",
"65 628 OFFCURVE",
"74 621 OFFCURVE",
"80 608 CURVE SMOOTH",
"89 588 OFFCURVE",
"90 555 OFFCURVE",
"90 528 CURVE SMOOTH",
"90 130 LINE SMOOTH",
"90 90 OFFCURVE",
"86 59 OFFCURVE",
"70 40 CURVE SMOOTH",
"56 23 OFFCURVE",
"40 22 OFFCURVE",
"40 10 CURVE SMOOTH",
"40 -1 OFFCURVE",
"48 -10 OFFCURVE",
"70 -10 CURVE SMOOTH"
);
}
);
width = 518;
},
{
associatedMasterId = "9D9E1BAB-54C5-4388-83C1-CB7B88B482E6";
layerId = "650205F6-3196-4CDE-BE3E-61B82A761A18";
width = 600;
}
);
leftKerningGroup = H;
leftMetricsKey = H;
rightKerningGroup = F;
unicode = 0046;
},
{
color = 1;
glyphname = G;
lastChange = "2021-12-12 14:14:16 +0000";
layers = (
{
anchors = (
{
name = bottom;
position = "{404, -10}";
},
{
name = top;
position = "{388, 679}";
}
);
layerId = "083550D2-F2E8-44E3-BE3D-E8BDF41EDFC4";
paths = (
{
closed = 1;
nodes = (
"479 -10 OFFCURVE",
"526 0 OFFCURVE",
"561 8 CURVE SMOOTH",
"602 17 OFFCURVE",
"624 20 OFFCURVE",
"661 20 CURVE SMOOTH",
"681 20 OFFCURVE",
"690 28 OFFCURVE",
"690 40 CURVE SMOOTH",
"690 52 OFFCURVE",
"687 59 OFFCURVE",
"680 72 CURVE SMOOTH",
"674 83 OFFCURVE",
"671 92 OFFCURVE",
"671 110 CURVE SMOOTH",
"671 214 LINE SMOOTH",
"671 241 OFFCURVE",
"676 244 OFFCURVE",
"698 244 CURVE SMOOTH",
"721 244 OFFCURVE",
"729 254 OFFCURVE",
"729 270 CURVE SMOOTH",
"729 287 OFFCURVE",
"717 294 OFFCURVE",
"698 294 CURVE SMOOTH",
"430 294 LINE SMOOTH",
"410 294 OFFCURVE",
"395 290 OFFCURVE",
"381 254 CURVE SMOOTH",
"379 249 OFFCURVE",
"378 244 OFFCURVE",
"378 240 CURVE SMOOTH",
"378 230 OFFCURVE",
"383 224 OFFCURVE",
"392 224 CURVE SMOOTH",
"401 224 OFFCURVE",
"417 228 OFFCURVE",
"432 232 CURVE SMOOTH",
"454 238 OFFCURVE",
"481 244 OFFCURVE",
"511 244 CURVE SMOOTH",
"545 244 OFFCURVE",
"551 240 OFFCURVE",
"551 204 CURVE SMOOTH",
"551 140 LINE SMOOTH",
"551 66 OFFCURVE",
"509 40 OFFCURVE",
"410 40 CURVE SMOOTH",
"263 40 OFFCURVE",
"170 146 OFFCURVE",
"170 334 CURVE SMOOTH",
"170 522 OFFCURVE",
"280 628 OFFCURVE",
"410 628 CURVE SMOOTH",
"485 628 OFFCURVE",
"545 603 OFFCURVE",
"567 567 CURVE SMOOTH",
"574 555 OFFCURVE",
"577 544 OFFCURVE",
"577 536 CURVE SMOOTH",
"577 522 OFFCURVE",
"570 514 OFFCURVE",
"561 518 CURVE SMOOTH",
"555 521 OFFCURVE",
"549 523 OFFCURVE",
"544 523 CURVE SMOOTH",
"528 523 OFFCURVE",
"515 510 OFFCURVE",
"515 482 CURVE SMOOTH",
"515 435 OFFCURVE",
"547 405 OFFCURVE",
"596 405 CURVE SMOOTH",
"648 405 OFFCURVE",
"679 445 OFFCURVE",
"679 494 CURVE SMOOTH",
"679 532 OFFCURVE",
"667 563 OFFCURVE",
"634 599 CURVE SMOOTH",
"600 637 OFFCURVE",
"527 678 OFFCURVE",
"410 678 CURVE SMOOTH",
"204 678 OFFCURVE",
"50 555 OFFCURVE",
"50 334 CURVE SMOOTH",
"50 101 OFFCURVE",
"190 -10 OFFCURVE",
"410 -10 CURVE SMOOTH"
);
}
);
width = 769;
},
{
associatedMasterId = "083550D2-F2E8-44E3-BE3D-E8BDF41EDFC4";
layerId = "0AAF2CB4-2EBD-42C4-BAB4-4CEC92C737FB";
width = 600;
},
{
anchors = (
{
name = bottom;
position = "{414, -10}";
},
{
name = top;
position = "{398, 679}";
}
);
layerId = "9D9E1BAB-54C5-4388-83C1-CB7B88B482E6";
paths = (
{
closed = 1;
nodes = (
"479 -10 OFFCURVE",
"536 0 OFFCURVE",
"571 8 CURVE SMOOTH",
"612 17 OFFCURVE",
"644 20 OFFCURVE",
"681 20 CURVE SMOOTH",
"701 20 OFFCURVE",
"710 28 OFFCURVE",
"710 40 CURVE SMOOTH",
"710 52 OFFCURVE",
"707 59 OFFCURVE",
"700 72 CURVE SMOOTH",
"694 83 OFFCURVE",
"691 92 OFFCURVE",
"691 110 CURVE SMOOTH",
"691 224 LINE SMOOTH",
"691 251 OFFCURVE",
"696 254 OFFCURVE",
"718 254 CURVE SMOOTH",
"741 254 OFFCURVE",
"749 268 OFFCURVE",
"749 285 CURVE SMOOTH",
"749 302 OFFCURVE",
"737 314 OFFCURVE",
"718 314 CURVE SMOOTH",
"430 314 LINE SMOOTH",
"410 314 OFFCURVE",
"395 300 OFFCURVE",
"381 264 CURVE SMOOTH",
"379 259 OFFCURVE",
"378 254 OFFCURVE",
"378 250 CURVE SMOOTH",
"378 240 OFFCURVE",
"383 234 OFFCURVE",
"392 234 CURVE SMOOTH",
"401 234 OFFCURVE",
"420 240 OFFCURVE",
"435 244 CURVE SMOOTH",
"450 248 OFFCURVE",
"473 254 OFFCURVE",
"491 254 CURVE SMOOTH",
"525 254 OFFCURVE",
"531 250 OFFCURVE",
"531 214 CURVE SMOOTH",
"531 160 LINE SMOOTH",
"531 86 OFFCURVE",
"509 60 OFFCURVE",
"420 60 CURVE SMOOTH",
"293 60 OFFCURVE",
"200 156 OFFCURVE",
"200 334 CURVE SMOOTH",
"200 512 OFFCURVE",
"310 608 OFFCURVE",
"420 608 CURVE SMOOTH",
"485 608 OFFCURVE",
"526 591 OFFCURVE",
"551 571 CURVE SMOOTH",
"564 561 OFFCURVE",
"567 554 OFFCURVE",
"567 546 CURVE SMOOTH",
"567 536 OFFCURVE",
"562 532 OFFCURVE",
"553 533 CURVE SMOOTH",
"547 534 OFFCURVE",
"540 535 OFFCURVE",
"532 532 CURVE SMOOTH",
"517 527 OFFCURVE",
"505 510 OFFCURVE",
"505 482 CURVE SMOOTH",
"505 435 OFFCURVE",
"557 405 OFFCURVE",
"606 405 CURVE SMOOTH",
"658 405 OFFCURVE",
"689 445 OFFCURVE",
"689 494 CURVE SMOOTH",
"689 532 OFFCURVE",
"677 563 OFFCURVE",
"644 599 CURVE SMOOTH",
"610 637 OFFCURVE",
"527 678 OFFCURVE",
"410 678 CURVE SMOOTH",
"184 678 OFFCURVE",
"40 555 OFFCURVE",
"40 334 CURVE SMOOTH",
"40 101 OFFCURVE",
"170 -10 OFFCURVE",
"410 -10 CURVE SMOOTH"
);
}
);
width = 799;
},
{
associatedMasterId = "9D9E1BAB-54C5-4388-83C1-CB7B88B482E6";
layerId = "2E196E46-AB9F-4E91-81F4-40FA40885833";
width = 600;
}
);
leftKerningGroup = O;
leftMetricsKey = O;
rightKerningGroup = G;
unicode = 0047;
},
{
color = 1;
glyphname = H;
lastChange = "2021-08-11 11:22:11 +0000";
layers = (
{
anchors = (
{
name = bottom;
position = "{375, 0}";
},
{
name = center;
position = "{375, 500}";
},
{
name = top;
position = "{375, 670}";
},
{
name = topleft;
position = "{-20, 670}";
}
);
layerId = "083550D2-F2E8-44E3-BE3D-E8BDF41EDFC4";
paths = (
{
closed = 1;
nodes = (
"102 -10 OFFCURVE",
"115 0 OFFCURVE",
"159 0 CURVE SMOOTH",
"209 0 OFFCURVE",
"220 -10 OFFCURVE",
"250 -10 CURVE SMOOTH",
"270 -10 OFFCURVE",
"280 -2 OFFCURVE",
"280 10 CURVE SMOOTH",
"280 21 OFFCURVE",
"274 30 OFFCURVE",
"262 30 CURVE SMOOTH",
"261 30 OFFCURVE",
"261 30 OFFCURVE",
"260 30 CURVE SMOOTH",
"243 29 OFFCURVE",
"236 39 OFFCURVE",
"230 60 CURVE SMOOTH",
"222 88 OFFCURVE",
"220 116 OFFCURVE",
"220 140 CURVE SMOOTH",
"220 264 LINE SMOOTH",
"220 293 OFFCURVE",
"224 298 OFFCURVE",
"240 302 CURVE SMOOTH",
"258 307 OFFCURVE",
"293 309 OFFCURVE",
"376 309 CURVE SMOOTH",
"460 309 OFFCURVE",
"493 307 OFFCURVE",
"511 302 CURVE SMOOTH",
"525 298 OFFCURVE",
"531 292 OFFCURVE",
"531 264 CURVE SMOOTH",
"531 130 LINE SMOOTH",
"531 90 OFFCURVE",
"527 59 OFFCURVE",
"511 40 CURVE SMOOTH",
"497 23 OFFCURVE",
"481 22 OFFCURVE",
"481 10 CURVE SMOOTH",
"481 -1 OFFCURVE",
"489 -10 OFFCURVE",
"511 -10 CURVE SMOOTH",
"533 -10 OFFCURVE",
"546 0 OFFCURVE",
"590 0 CURVE SMOOTH",
"640 0 OFFCURVE",
"651 -10 OFFCURVE",
"681 -10 CURVE SMOOTH",
"701 -10 OFFCURVE",
"711 -2 OFFCURVE",
"711 10 CURVE SMOOTH",
"711 21 OFFCURVE",
"705 30 OFFCURVE",
"693 30 CURVE SMOOTH",
"692 30 OFFCURVE",
"692 30 OFFCURVE",
"691 30 CURVE SMOOTH",
"674 29 OFFCURVE",
"667 39 OFFCURVE",
"661 60 CURVE SMOOTH",
"653 88 OFFCURVE",
"651 116 OFFCURVE",
"651 140 CURVE SMOOTH",
"651 558 LINE SMOOTH",
"651 587 OFFCURVE",
"656 613 OFFCURVE",
"671 628 CURVE SMOOTH",
"688 645 OFFCURVE",
"701 645 OFFCURVE",
"701 658 CURVE SMOOTH",
"701 670 OFFCURVE",
"690 678 OFFCURVE",
"671 678 CURVE SMOOTH",
"638 678 OFFCURVE",
"633 668 OFFCURVE",
"590 668 CURVE SMOOTH",
"549 668 OFFCURVE",
"529 678 OFFCURVE",
"501 678 CURVE SMOOTH",
"479 678 OFFCURVE",
"471 668 OFFCURVE",
"471 658 CURVE SMOOTH",
"471 647 OFFCURVE",
"478 638 OFFCURVE",
"489 638 CURVE SMOOTH",
"490 638 OFFCURVE",
"490 638 OFFCURVE",
"491 638 CURVE SMOOTH",
"506 639 OFFCURVE",
"515 631 OFFCURVE",
"521 618 CURVE SMOOTH",
"530 598 OFFCURVE",
"531 565 OFFCURVE",
"531 538 CURVE SMOOTH",
"531 404 LINE SMOOTH",
"531 381 OFFCURVE",
"528 373 OFFCURVE",
"511 366 CURVE SMOOTH",
"493 359 OFFCURVE",
"461 359 OFFCURVE",
"376 359 CURVE SMOOTH",
"292 359 OFFCURVE",
"256 361 OFFCURVE",
"240 366 CURVE SMOOTH",
"222 372 OFFCURVE",
"220 381 OFFCURVE",
"220 404 CURVE SMOOTH",
"220 558 LINE SMOOTH",
"220 587 OFFCURVE",
"225 613 OFFCURVE",
"240 628 CURVE SMOOTH",
"257 645 OFFCURVE",
"270 645 OFFCURVE",
"270 658 CURVE SMOOTH",
"270 670 OFFCURVE",
"259 678 OFFCURVE",
"240 678 CURVE SMOOTH",
"207 678 OFFCURVE",
"202 668 OFFCURVE",
"159 668 CURVE SMOOTH",
"118 668 OFFCURVE",
"98 678 OFFCURVE",
"70 678 CURVE SMOOTH",
"48 678 OFFCURVE",
"40 668 OFFCURVE",
"40 658 CURVE SMOOTH",
"40 647 OFFCURVE",
"47 638 OFFCURVE",
"58 638 CURVE SMOOTH",
"59 638 OFFCURVE",
"59 638 OFFCURVE",
"60 638 CURVE SMOOTH",
"75 639 OFFCURVE",
"84 631 OFFCURVE",
"90 618 CURVE SMOOTH",
"99 598 OFFCURVE",
"100 565 OFFCURVE",
"100 538 CURVE SMOOTH",
"100 130 LINE SMOOTH",
"100 90 OFFCURVE",
"96 59 OFFCURVE",
"80 40 CURVE SMOOTH",
"66 23 OFFCURVE",
"50 22 OFFCURVE",
"50 10 CURVE SMOOTH",
"50 -1 OFFCURVE",
"58 -10 OFFCURVE",
"80 -10 CURVE SMOOTH"
);
}
);
width = 751;
},
{
associatedMasterId = "083550D2-F2E8-44E3-BE3D-E8BDF41EDFC4";
layerId = "0AAF2CB4-2EBD-42C4-BAB4-4CEC92C737FB";
width = 600;
},
{
anchors = (
{
name = bottom;
position = "{385, 0}";
},
{
name = center;
position = "{385, 500}";
},
{
name = top;
position = "{385, 670}";
},
{
name = topleft;
position = "{-10, 670}";
}
);
layerId = "9D9E1BAB-54C5-4388-83C1-CB7B88B482E6";
paths = (
{
closed = 1;
nodes = (
"92 -10 OFFCURVE",
"105 0 OFFCURVE",
"169 0 CURVE SMOOTH",
"239 0 OFFCURVE",
"250 -10 OFFCURVE",
"280 -10 CURVE SMOOTH",
"300 -10 OFFCURVE",
"310 -2 OFFCURVE",
"310 10 CURVE SMOOTH",
"310 21 OFFCURVE",
"304 30 OFFCURVE",
"292 30 CURVE SMOOTH",
"291 30 OFFCURVE",
"291 30 OFFCURVE",
"290 30 CURVE SMOOTH",
"273 30 OFFCURVE",
"266 39 OFFCURVE",
"260 60 CURVE SMOOTH",
"252 88 OFFCURVE",
"250 116 OFFCURVE",
"250 140 CURVE SMOOTH",
"250 254 LINE SMOOTH",
"250 283 OFFCURVE",
"254 288 OFFCURVE",
"270 292 CURVE SMOOTH",
"288 297 OFFCURVE",
"323 299 OFFCURVE",
"386 299 CURVE SMOOTH",
"450 299 OFFCURVE",
"483 297 OFFCURVE",
"501 292 CURVE SMOOTH",
"515 288 OFFCURVE",
"521 282 OFFCURVE",
"521 254 CURVE SMOOTH",
"521 130 LINE SMOOTH",
"521 90 OFFCURVE",
"517 59 OFFCURVE",
"501 40 CURVE SMOOTH",
"487 23 OFFCURVE",
"471 22 OFFCURVE",
"471 10 CURVE SMOOTH",
"471 -1 OFFCURVE",
"479 -10 OFFCURVE",
"501 -10 CURVE SMOOTH",
"523 -10 OFFCURVE",
"536 0 OFFCURVE",
"600 0 CURVE SMOOTH",
"670 0 OFFCURVE",
"681 -10 OFFCURVE",
"711 -10 CURVE SMOOTH",
"731 -10 OFFCURVE",
"741 -2 OFFCURVE",
"741 10 CURVE SMOOTH",
"741 21 OFFCURVE",
"735 30 OFFCURVE",
"723 30 CURVE SMOOTH",
"722 30 OFFCURVE",
"722 30 OFFCURVE",
"721 30 CURVE SMOOTH",
"704 30 OFFCURVE",
"697 39 OFFCURVE",
"691 60 CURVE SMOOTH",
"683 88 OFFCURVE",
"681 116 OFFCURVE",
"681 140 CURVE SMOOTH",
"681 558 LINE SMOOTH",
"681 587 OFFCURVE",
"686 613 OFFCURVE",
"701 628 CURVE SMOOTH",
"718 645 OFFCURVE",
"731 645 OFFCURVE",
"731 658 CURVE SMOOTH",
"731 670 OFFCURVE",
"720 678 OFFCURVE",
"701 678 CURVE SMOOTH",
"668 678 OFFCURVE",
"663 668 OFFCURVE",
"600 668 CURVE SMOOTH",
"539 668 OFFCURVE",
"519 678 OFFCURVE",
"491 678 CURVE SMOOTH",
"469 678 OFFCURVE",
"461 668 OFFCURVE",
"461 658 CURVE SMOOTH",
"461 647 OFFCURVE",
"468 638 OFFCURVE",
"479 638 CURVE SMOOTH",
"480 638 OFFCURVE",
"480 638 OFFCURVE",
"481 638 CURVE SMOOTH",
"496 638 OFFCURVE",
"505 631 OFFCURVE",
"511 618 CURVE SMOOTH",
"520 598 OFFCURVE",
"521 565 OFFCURVE",
"521 538 CURVE SMOOTH",
"521 414 LINE SMOOTH",
"521 391 OFFCURVE",
"518 383 OFFCURVE",
"501 376 CURVE SMOOTH",
"483 369 OFFCURVE",
"451 369 OFFCURVE",
"386 369 CURVE SMOOTH",
"322 369 OFFCURVE",
"286 371 OFFCURVE",
"270 376 CURVE SMOOTH",
"252 382 OFFCURVE",
"250 391 OFFCURVE",
"250 414 CURVE SMOOTH",
"250 558 LINE SMOOTH",
"250 587 OFFCURVE",
"255 613 OFFCURVE",
"270 628 CURVE SMOOTH",
"287 645 OFFCURVE",
"300 645 OFFCURVE",
"300 658 CURVE SMOOTH",
"300 670 OFFCURVE",
"289 678 OFFCURVE",
"270 678 CURVE SMOOTH",
"237 678 OFFCURVE",
"232 668 OFFCURVE",
"169 668 CURVE SMOOTH",
"108 668 OFFCURVE",
"88 678 OFFCURVE",
"60 678 CURVE SMOOTH",
"38 678 OFFCURVE",
"30 668 OFFCURVE",
"30 658 CURVE SMOOTH",
"30 647 OFFCURVE",
"37 638 OFFCURVE",
"48 638 CURVE SMOOTH",
"49 638 OFFCURVE",
"49 638 OFFCURVE",
"50 638 CURVE SMOOTH",
"65 638 OFFCURVE",
"74 631 OFFCURVE",
"80 618 CURVE SMOOTH",
"89 598 OFFCURVE",
"90 565 OFFCURVE",
"90 538 CURVE SMOOTH",
"90 130 LINE SMOOTH",
"90 90 OFFCURVE",
"86 59 OFFCURVE",
"70 40 CURVE SMOOTH",
"56 23 OFFCURVE",
"40 22 OFFCURVE",
"40 10 CURVE SMOOTH",
"40 -1 OFFCURVE",
"48 -10 OFFCURVE",
"70 -10 CURVE SMOOTH"
);
}
);
width = 771;
},
{
associatedMasterId = "9D9E1BAB-54C5-4388-83C1-CB7B88B482E6";
layerId = "6646D241-BCD0-45D5-A4D1-7C830961F790";
width = 600;
}
);
leftKerningGroup = H;
rightKerningGroup = H;
unicode = 0048;
},
{
color = 1;
glyphname = I;
lastChange = "2021-05-30 14:47:45 +0000";
layers = (
{
anchors = (
{
name = bottom;
position = "{159, 0}";
},
{
name = ogonek;
position = "{207, 0}";
},
{
name = top;
position = "{164, 668}";
},
{
name = topleft;
position = "{65, 669}";
}
);
layerId = "083550D2-F2E8-44E3-BE3D-E8BDF41EDFC4";
paths = (
{
closed = 1;
nodes = (
"102 -10 OFFCURVE",
"115 0 OFFCURVE",
"159 0 CURVE SMOOTH",
"209 0 OFFCURVE",
"220 -10 OFFCURVE",
"250 -10 CURVE SMOOTH",
"270 -10 OFFCURVE",
"280 -2 OFFCURVE",
"280 10 CURVE SMOOTH",
"280 21 OFFCURVE",
"274 30 OFFCURVE",
"262 30 CURVE SMOOTH",
"261 30 OFFCURVE",
"261 30 OFFCURVE",
"260 30 CURVE SMOOTH",
"243 29 OFFCURVE",
"236 39 OFFCURVE",
"230 60 CURVE SMOOTH",
"222 88 OFFCURVE",
"220 116 OFFCURVE",
"220 140 CURVE SMOOTH",
"220 558 LINE SMOOTH",
"220 587 OFFCURVE",
"225 613 OFFCURVE",
"240 628 CURVE SMOOTH",
"257 645 OFFCURVE",
"270 645 OFFCURVE",
"270 658 CURVE SMOOTH",
"270 670 OFFCURVE",
"259 678 OFFCURVE",
"240 678 CURVE SMOOTH",
"207 678 OFFCURVE",
"202 668 OFFCURVE",
"159 668 CURVE SMOOTH",
"118 668 OFFCURVE",
"98 678 OFFCURVE",
"70 678 CURVE SMOOTH",
"48 678 OFFCURVE",
"40 668 OFFCURVE",
"40 658 CURVE SMOOTH",
"40 647 OFFCURVE",
"47 638 OFFCURVE",
"58 638 CURVE SMOOTH",
"59 638 OFFCURVE",
"59 638 OFFCURVE",
"60 638 CURVE SMOOTH",
"75 639 OFFCURVE",
"84 631 OFFCURVE",
"90 618 CURVE SMOOTH",
"99 598 OFFCURVE",
"100 565 OFFCURVE",
"100 538 CURVE SMOOTH",
"100 130 LINE SMOOTH",
"100 90 OFFCURVE",
"96 59 OFFCURVE",
"80 40 CURVE SMOOTH",
"66 23 OFFCURVE",
"50 22 OFFCURVE",
"50 10 CURVE SMOOTH",
"50 -1 OFFCURVE",
"58 -10 OFFCURVE",
"80 -10 CURVE SMOOTH"
);
}
);
width = 320;
},
{
associatedMasterId = "083550D2-F2E8-44E3-BE3D-E8BDF41EDFC4";
layerId = "0AAF2CB4-2EBD-42C4-BAB4-4CEC92C737FB";
width = 600;
},
{
anchors = (
{
name = bottom;
position = "{169, 0}";
},
{
name = ogonek;
position = "{217, 0}";
},
{
name = top;
position = "{174, 668}";
},
{
name = topleft;
position = "{75, 669}";
}
);
layerId = "9D9E1BAB-54C5-4388-83C1-CB7B88B482E6";
paths = (
{
closed = 1;
nodes = (
"92 -10 OFFCURVE",
"105 0 OFFCURVE",
"169 0 CURVE SMOOTH",
"239 0 OFFCURVE",
"250 -10 OFFCURVE",
"280 -10 CURVE SMOOTH",
"300 -10 OFFCURVE",
"310 -2 OFFCURVE",
"310 10 CURVE SMOOTH",
"310 21 OFFCURVE",
"304 30 OFFCURVE",
"292 30 CURVE SMOOTH",
"291 30 OFFCURVE",
"291 30 OFFCURVE",
"290 30 CURVE SMOOTH",
"273 30 OFFCURVE",
"266 39 OFFCURVE",
"260 60 CURVE SMOOTH",
"252 88 OFFCURVE",
"250 116 OFFCURVE",
"250 140 CURVE SMOOTH",
"250 558 LINE SMOOTH",
"250 587 OFFCURVE",
"255 613 OFFCURVE",
"270 628 CURVE SMOOTH",
"287 645 OFFCURVE",
"300 645 OFFCURVE",
"300 658 CURVE SMOOTH",
"300 670 OFFCURVE",
"289 678 OFFCURVE",
"270 678 CURVE SMOOTH",
"237 678 OFFCURVE",
"232 668 OFFCURVE",
"169 668 CURVE SMOOTH",
"108 668 OFFCURVE",
"88 678 OFFCURVE",
"60 678 CURVE SMOOTH",
"38 678 OFFCURVE",
"30 668 OFFCURVE",
"30 658 CURVE SMOOTH",
"30 647 OFFCURVE",
"37 638 OFFCURVE",
"48 638 CURVE SMOOTH",
"49 638 OFFCURVE",
"49 638 OFFCURVE",
"50 638 CURVE SMOOTH",
"65 638 OFFCURVE",
"74 631 OFFCURVE",
"80 618 CURVE SMOOTH",
"89 598 OFFCURVE",
"90 565 OFFCURVE",
"90 538 CURVE SMOOTH",
"90 130 LINE SMOOTH",
"90 90 OFFCURVE",
"86 59 OFFCURVE",
"70 40 CURVE SMOOTH",
"56 23 OFFCURVE",
"40 22 OFFCURVE",
"40 10 CURVE SMOOTH",
"40 -1 OFFCURVE",
"48 -10 OFFCURVE",
"70 -10 CURVE SMOOTH"
);
}
);
width = 340;
},
{
associatedMasterId = "9D9E1BAB-54C5-4388-83C1-CB7B88B482E6";
layerId = "2E2C3036-1CF7-4F85-BD55-BF3471BAE4E7";
width = 600;
}
);
leftKerningGroup = H;
leftMetricsKey = H;
rightKerningGroup = H;
rightMetricsKey = H;
unicode = 0049;
},
{
color = 1;
glyphname = J;
lastChange = "2021-12-12 14:11:07 +0000";
layers = (
{
anchors = (
{
name = bottom;
position = "{20, 0}";
},
{
name = top;
position = "{178, 670}";
}
);
layerId = "083550D2-F2E8-44E3-BE3D-E8BDF41EDFC4";
paths = (
{
closed = 1;
nodes = (
"55 -244 OFFCURVE",
"105 -213 OFFCURVE",
"144 -168 CURVE SMOOTH",
"205 -98 OFFCURVE",
"239 7 OFFCURVE",
"239 140 CURVE SMOOTH",
"239 558 LINE SMOOTH",
"239 587 OFFCURVE",
"244 613 OFFCURVE",
"259 628 CURVE SMOOTH",
"276 645 OFFCURVE",
"289 645 OFFCURVE",
"289 658 CURVE SMOOTH",
"289 670 OFFCURVE",
"278 678 OFFCURVE",
"259 678 CURVE SMOOTH",
"226 678 OFFCURVE",
"221 668 OFFCURVE",
"178 668 CURVE SMOOTH",
"137 668 OFFCURVE",
"117 678 OFFCURVE",
"89 678 CURVE SMOOTH",
"67 678 OFFCURVE",
"59 668 OFFCURVE",
"59 658 CURVE SMOOTH",
"59 647 OFFCURVE",
"66 638 OFFCURVE",
"77 638 CURVE SMOOTH",
"78 638 OFFCURVE",
"78 638 OFFCURVE",
"79 638 CURVE SMOOTH",
"94 639 OFFCURVE",
"103 631 OFFCURVE",
"109 618 CURVE SMOOTH",
"118 598 OFFCURVE",
"119 565 OFFCURVE",
"119 538 CURVE SMOOTH",
"119 79 LINE SMOOTH",
"119 0 OFFCURVE",
"112 -70 OFFCURVE",
"94 -108 CURVE SMOOTH",
"76 -147 OFFCURVE",
"48 -168 OFFCURVE",
"13 -168 CURVE SMOOTH",
"-10 -168 OFFCURVE",
"-24 -154 OFFCURVE",
"-24 -135 CURVE SMOOTH",
"-24 -115 OFFCURVE",
"-8 -94 OFFCURVE",
"15 -100 CURVE SMOOTH",
"18 -101 OFFCURVE",
"21 -101 OFFCURVE",
"23 -101 CURVE SMOOTH",
"34 -101 OFFCURVE",
"39 -95 OFFCURVE",
"39 -86 CURVE SMOOTH",
"39 -69 OFFCURVE",
"17 -44 OFFCURVE",
"-33 -44 CURVE SMOOTH",
"-83 -44 OFFCURVE",
"-130 -75 OFFCURVE",
"-130 -137 CURVE SMOOTH",
"-130 -197 OFFCURVE",
"-82 -244 OFFCURVE",
"-13 -244 CURVE SMOOTH"
);
}
);
width = 329;
},
{
associatedMasterId = "083550D2-F2E8-44E3-BE3D-E8BDF41EDFC4";
layerId = "0AAF2CB4-2EBD-42C4-BAB4-4CEC92C737FB";
width = 600;
},
{
anchors = (
{
name = bottom;
position = "{20, 0}";
},
{
name = top;
position = "{178, 670}";
}
);
layerId = "9D9E1BAB-54C5-4388-83C1-CB7B88B482E6";
paths = (
{
closed = 1;
nodes = (
"62 -244 OFFCURVE",
"120 -210 OFFCURVE",
"169 -153 CURVE SMOOTH",
"233 -79 OFFCURVE",
"259 7 OFFCURVE",
"259 140 CURVE SMOOTH",
"259 558 LINE SMOOTH",
"259 587 OFFCURVE",
"264 613 OFFCURVE",
"279 628 CURVE SMOOTH",
"296 645 OFFCURVE",
"309 645 OFFCURVE",
"309 658 CURVE SMOOTH",
"309 670 OFFCURVE",
"298 678 OFFCURVE",
"279 678 CURVE SMOOTH",
"246 678 OFFCURVE",
"241 668 OFFCURVE",
"178 668 CURVE SMOOTH",
"117 668 OFFCURVE",
"97 678 OFFCURVE",
"69 678 CURVE SMOOTH",
"47 678 OFFCURVE",
"39 668 OFFCURVE",
"39 658 CURVE SMOOTH",
"39 647 OFFCURVE",
"46 638 OFFCURVE",
"57 638 CURVE SMOOTH",
"58 638 OFFCURVE",
"58 638 OFFCURVE",
"59 638 CURVE SMOOTH",
"74 638 OFFCURVE",
"83 631 OFFCURVE",
"89 618 CURVE SMOOTH",
"98 598 OFFCURVE",
"99 565 OFFCURVE",
"99 538 CURVE SMOOTH",
"99 79 LINE SMOOTH",
"99 0 OFFCURVE",
"99 -64 OFFCURVE",
"85 -105 CURVE SMOOTH",
"74 -138 OFFCURVE",
"51 -161 OFFCURVE",
"21 -161 CURVE SMOOTH",
"0 -161 OFFCURVE",
"-14 -151 OFFCURVE",
"-14 -133 CURVE SMOOTH",
"-14 -115 OFFCURVE",
"0 -100 OFFCURVE",
"15 -105 CURVE SMOOTH",
"18 -106 OFFCURVE",
"21 -106 OFFCURVE",
"23 -106 CURVE SMOOTH",
"34 -106 OFFCURVE",
"39 -95 OFFCURVE",
"39 -86 CURVE SMOOTH",
"39 -69 OFFCURVE",
"17 -44 OFFCURVE",
"-33 -44 CURVE SMOOTH",
"-83 -44 OFFCURVE",
"-130 -75 OFFCURVE",
"-130 -140 CURVE SMOOTH",
"-130 -198 OFFCURVE",
"-82 -244 OFFCURVE",
"-13 -244 CURVE SMOOTH"
);
}
);
width = 339;
},
{
associatedMasterId = "9D9E1BAB-54C5-4388-83C1-CB7B88B482E6";
layerId = "93DA1932-754E-4967-AA7F-F36B89338F1B";
width = 600;
}
);
leftKerningGroup = J;
rightKerningGroup = J;
rightMetricsKey = H;
unicode = 004A;
},
{
color = 1;
glyphname = K;
lastChange = "2021-12-12 11:36:42 +0000";
layers = (
{
anchors = (
{
name = bottom;
position = "{328, 0}";
},
{
name = top;
position = "{328, 670}";
}
);
layerId = "083550D2-F2E8-44E3-BE3D-E8BDF41EDFC4";
paths = (
{
closed = 1;
nodes = (
"609 -20 OFFCURVE",
"660 49 OFFCURVE",
"660 135 CURVE SMOOTH",
"660 157 OFFCURVE",
"648 167 OFFCURVE",
"635 167 CURVE SMOOTH",
"624 167 OFFCURVE",
"612 159 OFFCURVE",
"610 142 CURVE SMOOTH",
"604 102 OFFCURVE",
"588 40 OFFCURVE",
"539 40 CURVE SMOOTH",
"525 40 OFFCURVE",
"518 51 OFFCURVE",
"518 61 CURVE SMOOTH",
"518 71 OFFCURVE",
"520 80 OFFCURVE",
"523 88 CURVE SMOOTH",
"533 119 OFFCURVE",
"540 150 OFFCURVE",
"540 186 CURVE SMOOTH",
"540 210 OFFCURVE",
"537 234 OFFCURVE",
"528 256 CURVE SMOOTH",
"506 310 OFFCURVE",
"458 342 OFFCURVE",
"371 354 CURVE SMOOTH",
"364 355 OFFCURVE",
"360 358 OFFCURVE",
"360 362 CURVE SMOOTH",
"360 366 OFFCURVE",
"363 369 OFFCURVE",
"370 375 CURVE SMOOTH",
"415 416 OFFCURVE",
"454 473 OFFCURVE",
"492 557 CURVE SMOOTH",
"510 597 OFFCURVE",
"526 616 OFFCURVE",
"543 626 CURVE SMOOTH",
"558 635 OFFCURVE",
"577 642 OFFCURVE",
"577 656 CURVE SMOOTH",
"577 669 OFFCURVE",
"569 678 OFFCURVE",
"553 678 CURVE SMOOTH",
"532 678 OFFCURVE",
"520 668 OFFCURVE",
"481 668 CURVE SMOOTH",
"439 668 OFFCURVE",
"422 678 OFFCURVE",
"390 678 CURVE SMOOTH",
"374 678 OFFCURVE",
"365 669 OFFCURVE",
"365 658 CURVE SMOOTH",
"365 648 OFFCURVE",
"372 637 OFFCURVE",
"385 637 CURVE SMOOTH",
"401 637 OFFCURVE",
"409 629 OFFCURVE",
"409 606 CURVE SMOOTH",
"409 595 OFFCURVE",
"407 580 OFFCURVE",
"403 561 CURVE SMOOTH",
"373 427 OFFCURVE",
"308 354 OFFCURVE",
"250 354 CURVE SMOOTH",
"226 354 OFFCURVE",
"220 362 OFFCURVE",
"220 395 CURVE SMOOTH",
"220 558 LINE SMOOTH",
"220 587 OFFCURVE",
"225 613 OFFCURVE",
"240 628 CURVE SMOOTH",
"257 645 OFFCURVE",
"270 645 OFFCURVE",
"270 658 CURVE SMOOTH",
"270 670 OFFCURVE",
"259 678 OFFCURVE",
"240 678 CURVE SMOOTH",
"207 678 OFFCURVE",
"202 668 OFFCURVE",
"159 668 CURVE SMOOTH",
"118 668 OFFCURVE",
"98 678 OFFCURVE",
"70 678 CURVE SMOOTH",
"48 678 OFFCURVE",
"40 668 OFFCURVE",
"40 658 CURVE SMOOTH",
"40 647 OFFCURVE",
"47 638 OFFCURVE",
"58 638 CURVE SMOOTH",
"59 638 OFFCURVE",
"59 638 OFFCURVE",
"60 638 CURVE SMOOTH",
"75 639 OFFCURVE",
"84 631 OFFCURVE",
"90 618 CURVE SMOOTH",
"99 598 OFFCURVE",
"100 565 OFFCURVE",
"100 538 CURVE SMOOTH",
"100 130 LINE SMOOTH",
"100 90 OFFCURVE",
"96 59 OFFCURVE",
"80 40 CURVE SMOOTH",
"66 23 OFFCURVE",
"50 22 OFFCURVE",
"50 10 CURVE SMOOTH",
"50 -1 OFFCURVE",
"58 -10 OFFCURVE",
"80 -10 CURVE SMOOTH",
"102 -10 OFFCURVE",
"115 0 OFFCURVE",
"159 0 CURVE SMOOTH",
"209 0 OFFCURVE",
"220 -10 OFFCURVE",
"250 -10 CURVE SMOOTH",
"270 -10 OFFCURVE",
"280 -2 OFFCURVE",
"280 10 CURVE SMOOTH",
"280 21 OFFCURVE",
"274 30 OFFCURVE",
"262 30 CURVE SMOOTH",
"261 30 OFFCURVE",
"261 30 OFFCURVE",
"260 30 CURVE SMOOTH",
"243 29 OFFCURVE",
"236 39 OFFCURVE",
"230 60 CURVE SMOOTH",
"222 88 OFFCURVE",
"220 116 OFFCURVE",
"220 140 CURVE SMOOTH",
"220 264 LINE SMOOTH",
"220 297 OFFCURVE",
"225 304 OFFCURVE",
"260 304 CURVE SMOOTH",
"328 304 OFFCURVE",
"396 285 OFFCURVE",
"403 233 CURVE SMOOTH",
"412 170 OFFCURVE",
"396 149 OFFCURVE",
"396 84 CURVE SMOOTH",
"396 21 OFFCURVE",
"446 -20 OFFCURVE",
"516 -20 CURVE SMOOTH"
);
}
);
width = 670;
},
{
associatedMasterId = "083550D2-F2E8-44E3-BE3D-E8BDF41EDFC4";
layerId = "0AAF2CB4-2EBD-42C4-BAB4-4CEC92C737FB";
width = 600;
},
{
anchors = (
{
name = bottom;
position = "{338, 0}";
},
{
name = top;
position = "{338, 670}";
}
);
layerId = "9D9E1BAB-54C5-4388-83C1-CB7B88B482E6";
paths = (
{
closed = 1;
nodes = (
"619 -20 OFFCURVE",
"690 49 OFFCURVE",
"690 145 CURVE SMOOTH",
"690 167 OFFCURVE",
"678 177 OFFCURVE",
"664 177 CURVE SMOOTH",
"651 177 OFFCURVE",
"639 167 OFFCURVE",
"634 149 CURVE SMOOTH",
"619 94 OFFCURVE",
"598 60 OFFCURVE",
"565 60 CURVE SMOOTH",
"554 60 OFFCURVE",
"547 68 OFFCURVE",
"547 79 CURVE SMOOTH",
"547 89 OFFCURVE",
"551 99 OFFCURVE",
"555 111 CURVE SMOOTH",
"563 136 OFFCURVE",
"567 163 OFFCURVE",
"567 191 CURVE SMOOTH",
"567 218 OFFCURVE",
"563 245 OFFCURVE",
"547 271 CURVE SMOOTH",
"517 320 OFFCURVE",
"468 342 OFFCURVE",
"381 354 CURVE SMOOTH",
"374 355 OFFCURVE",
"370 357 OFFCURVE",
"370 363 CURVE SMOOTH",
"370 368 OFFCURVE",
"373 371 OFFCURVE",
"380 375 CURVE SMOOTH",
"430 405 OFFCURVE",
"484 473 OFFCURVE",
"522 557 CURVE SMOOTH",
"540 597 OFFCURVE",
"556 616 OFFCURVE",
"573 626 CURVE SMOOTH",
"588 635 OFFCURVE",
"607 642 OFFCURVE",
"607 656 CURVE SMOOTH",
"607 669 OFFCURVE",
"599 678 OFFCURVE",
"583 678 CURVE SMOOTH",
"562 678 OFFCURVE",
"550 668 OFFCURVE",
"491 668 CURVE SMOOTH",
"439 668 OFFCURVE",
"422 678 OFFCURVE",
"390 678 CURVE SMOOTH",
"374 678 OFFCURVE",
"365 669 OFFCURVE",
"365 658 CURVE SMOOTH",
"365 648 OFFCURVE",
"372 637 OFFCURVE",
"385 637 CURVE SMOOTH",
"401 637 OFFCURVE",
"409 629 OFFCURVE",
"409 606 CURVE SMOOTH",
"409 595 OFFCURVE",
"407 580 OFFCURVE",
"403 561 CURVE SMOOTH",
"377 444 OFFCURVE",
"324 374 OFFCURVE",
"280 374 CURVE SMOOTH",
"256 374 OFFCURVE",
"250 382 OFFCURVE",
"250 415 CURVE SMOOTH",
"250 558 LINE SMOOTH",
"250 587 OFFCURVE",
"255 613 OFFCURVE",
"270 628 CURVE SMOOTH",
"287 645 OFFCURVE",
"300 645 OFFCURVE",
"300 658 CURVE SMOOTH",
"300 670 OFFCURVE",
"289 678 OFFCURVE",
"270 678 CURVE SMOOTH",
"237 678 OFFCURVE",
"232 668 OFFCURVE",
"169 668 CURVE SMOOTH",
"108 668 OFFCURVE",
"88 678 OFFCURVE",
"60 678 CURVE SMOOTH",
"38 678 OFFCURVE",
"30 668 OFFCURVE",
"30 658 CURVE SMOOTH",
"30 647 OFFCURVE",
"37 638 OFFCURVE",
"48 638 CURVE SMOOTH",
"49 638 OFFCURVE",
"49 638 OFFCURVE",
"50 638 CURVE SMOOTH",
"65 638 OFFCURVE",
"74 631 OFFCURVE",
"80 618 CURVE SMOOTH",
"89 598 OFFCURVE",
"90 565 OFFCURVE",
"90 538 CURVE SMOOTH",
"90 130 LINE SMOOTH",
"90 90 OFFCURVE",
"86 59 OFFCURVE",
"70 40 CURVE SMOOTH",
"56 23 OFFCURVE",
"40 22 OFFCURVE",
"40 10 CURVE SMOOTH",
"40 -1 OFFCURVE",
"48 -10 OFFCURVE",
"70 -10 CURVE SMOOTH",
"92 -10 OFFCURVE",
"105 0 OFFCURVE",
"169 0 CURVE SMOOTH",
"239 0 OFFCURVE",
"250 -10 OFFCURVE",
"280 -10 CURVE SMOOTH",
"300 -10 OFFCURVE",
"310 -2 OFFCURVE",
"310 10 CURVE SMOOTH",
"310 21 OFFCURVE",
"304 30 OFFCURVE",
"292 30 CURVE SMOOTH",
"291 30 OFFCURVE",
"291 30 OFFCURVE",
"290 30 CURVE SMOOTH",
"273 30 OFFCURVE",
"266 39 OFFCURVE",
"260 60 CURVE SMOOTH",
"252 88 OFFCURVE",
"250 116 OFFCURVE",
"250 140 CURVE SMOOTH",
"250 254 LINE SMOOTH",
"250 287 OFFCURVE",
"255 294 OFFCURVE",
"290 294 CURVE SMOOTH",
"344 294 OFFCURVE",
"381 268 OFFCURVE",
"386 236 CURVE SMOOTH",
"392 196 OFFCURVE",
"381 167 OFFCURVE",
"381 106 CURVE SMOOTH",
"381 23 OFFCURVE",
"436 -20 OFFCURVE",
"526 -20 CURVE SMOOTH"
);
}
);
width = 700;
},
{
associatedMasterId = "9D9E1BAB-54C5-4388-83C1-CB7B88B482E6";
layerId = "AF1E7473-1FAE-4BA6-A618-2AD3C1DDCB73";
width = 600;
}
);
leftKerningGroup = H;
leftMetricsKey = H;
rightKerningGroup = K;
unicode = 004B;
},
{
color = 1;
glyphname = L;
lastChange = "2021-08-11 11:22:11 +0000";
layers = (
{
anchors = (
{
name = bottom;
position = "{274, 0}";
},
{
name = center;
position = "{179, 360}";
},
{
name = top;
position = "{158, 670}";
},
{
name = topright;
position = "{457, 670}";
}
);
layerId = "083550D2-F2E8-44E3-BE3D-E8BDF41EDFC4";
paths = (
{
closed = 1;
nodes = (
"125 -10 OFFCURVE",
"145 10 OFFCURVE",
"189 10 CURVE SMOOTH",
"224 10 OFFCURVE",
"259 4 OFFCURVE",
"295 0 CURVE SMOOTH",
"356 -7 OFFCURVE",
"391 -10 OFFCURVE",
"425 -10 CURVE SMOOTH",
"453 -10 OFFCURVE",
"465 -8 OFFCURVE",
"475 10 CURVE SMOOTH",
"499 55 OFFCURVE",
"523 122 OFFCURVE",
"523 155 CURVE SMOOTH",
"523 172 OFFCURVE",
"516 183 OFFCURVE",
"499 183 CURVE SMOOTH",
"485 183 OFFCURVE",
"473 173 OFFCURVE",
"473 151 CURVE SMOOTH",
"473 122 OFFCURVE",
"441 50 OFFCURVE",
"320 50 CURVE SMOOTH",
"300 50 LINE SMOOTH",
"243 50 OFFCURVE",
"220 55 OFFCURVE",
"220 160 CURVE SMOOTH",
"220 558 LINE SMOOTH",
"220 587 OFFCURVE",
"225 613 OFFCURVE",
"240 628 CURVE SMOOTH",
"257 645 OFFCURVE",
"270 645 OFFCURVE",
"270 658 CURVE SMOOTH",
"270 670 OFFCURVE",
"259 678 OFFCURVE",
"240 678 CURVE SMOOTH",
"207 678 OFFCURVE",
"202 668 OFFCURVE",
"159 668 CURVE SMOOTH",
"118 668 OFFCURVE",
"98 678 OFFCURVE",
"70 678 CURVE SMOOTH",
"48 678 OFFCURVE",
"40 668 OFFCURVE",
"40 658 CURVE SMOOTH",
"40 647 OFFCURVE",
"47 638 OFFCURVE",
"58 638 CURVE SMOOTH",
"59 638 OFFCURVE",
"59 638 OFFCURVE",
"60 638 CURVE SMOOTH",
"75 639 OFFCURVE",
"84 631 OFFCURVE",
"90 618 CURVE SMOOTH",
"99 598 OFFCURVE",
"100 565 OFFCURVE",
"100 538 CURVE SMOOTH",
"100 130 LINE SMOOTH",
"100 90 OFFCURVE",
"96 59 OFFCURVE",
"80 40 CURVE SMOOTH",
"66 23 OFFCURVE",
"50 22 OFFCURVE",
"50 10 CURVE SMOOTH",
"50 -1 OFFCURVE",
"58 -10 OFFCURVE",
"80 -10 CURVE SMOOTH"
);
}
);
width = 533;
},
{
anchors = (
{
name = bottom;
position = "{284, 0}";
},
{
name = center;
position = "{189, 360}";
},
{
name = top;
position = "{168, 670}";
},
{
name = topright;
position = "{467, 670}";
}
);
layerId = "9D9E1BAB-54C5-4388-83C1-CB7B88B482E6";
paths = (
{
closed = 1;
nodes = (
"115 -10 OFFCURVE",
"135 10 OFFCURVE",
"199 10 CURVE SMOOTH",
"234 10 OFFCURVE",
"269 4 OFFCURVE",
"305 0 CURVE SMOOTH",
"366 -7 OFFCURVE",
"401 -10 OFFCURVE",
"435 -10 CURVE SMOOTH",
"463 -10 OFFCURVE",
"478 -9 OFFCURVE",
"485 10 CURVE SMOOTH",
"509 75 OFFCURVE",
"533 142 OFFCURVE",
"533 175 CURVE SMOOTH",
"533 192 OFFCURVE",
"526 203 OFFCURVE",
"509 203 CURVE SMOOTH",
"495 203 OFFCURVE",
"483 193 OFFCURVE",
"483 171 CURVE SMOOTH",
"483 142 OFFCURVE",
"451 70 OFFCURVE",
"340 70 CURVE SMOOTH",
"330 70 LINE SMOOTH",
"273 70 OFFCURVE",
"250 75 OFFCURVE",
"250 180 CURVE SMOOTH",
"250 558 LINE SMOOTH",
"250 587 OFFCURVE",
"255 613 OFFCURVE",
"270 628 CURVE SMOOTH",
"287 645 OFFCURVE",
"300 645 OFFCURVE",
"300 658 CURVE SMOOTH",
"300 670 OFFCURVE",
"289 678 OFFCURVE",
"270 678 CURVE SMOOTH",
"237 678 OFFCURVE",
"232 668 OFFCURVE",
"169 668 CURVE SMOOTH",
"108 668 OFFCURVE",
"88 678 OFFCURVE",
"60 678 CURVE SMOOTH",
"38 678 OFFCURVE",
"30 668 OFFCURVE",
"30 658 CURVE SMOOTH",
"30 647 OFFCURVE",
"37 638 OFFCURVE",
"48 638 CURVE SMOOTH",
"49 638 OFFCURVE",
"49 638 OFFCURVE",
"50 638 CURVE SMOOTH",
"65 638 OFFCURVE",
"74 631 OFFCURVE",
"80 618 CURVE SMOOTH",
"89 598 OFFCURVE",
"90 565 OFFCURVE",
"90 538 CURVE SMOOTH",
"90 130 LINE SMOOTH",
"90 90 OFFCURVE",
"86 59 OFFCURVE",
"70 40 CURVE SMOOTH",
"56 23 OFFCURVE",
"40 22 OFFCURVE",
"40 10 CURVE SMOOTH",
"40 -1 OFFCURVE",
"48 -10 OFFCURVE",
"70 -10 CURVE SMOOTH"
);
}
);
width = 543;
}
);
leftKerningGroup = H;
leftMetricsKey = H;
rightKerningGroup = L;
unicode = 004C;
},
{
color = 1;
glyphname = M;
lastChange = "2021-05-29 16:39:46 +0000";
layers = (
{
layerId = "083550D2-F2E8-44E3-BE3D-E8BDF41EDFC4";
paths = (
{
closed = 1;
nodes = (
"100 -10 OFFCURVE",
"112 0 OFFCURVE",
"129 0 CURVE SMOOTH",
"152 0 OFFCURVE",
"178 -10 OFFCURVE",
"200 -10 CURVE SMOOTH",
"220 -10 OFFCURVE",
"230 -2 OFFCURVE",
"230 10 CURVE SMOOTH",
"230 22 OFFCURVE",
"223 30 OFFCURVE",
"210 30 CURVE SMOOTH",
"193 30 OFFCURVE",
"173 50 OFFCURVE",
"161 127 CURVE SMOOTH",
"152 183 OFFCURVE",
"150 221 OFFCURVE",
"150 270 CURVE SMOOTH",
"150 448 LINE SMOOTH",
"150 465 OFFCURVE",
"156 474 OFFCURVE",
"164 474 CURVE SMOOTH",
"169 474 OFFCURVE",
"175 469 OFFCURVE",
"180 458 CURVE SMOOTH",
"227 349 OFFCURVE",
"335 99 OFFCURVE",
"368 29 CURVE SMOOTH",
"386 -9 OFFCURVE",
"399 -10 OFFCURVE",
"410 -10 CURVE SMOOTH",
"421 -10 OFFCURVE",
"431 -2 OFFCURVE",
"440 20 CURVE SMOOTH",
"482 127 OFFCURVE",
"580 363 OFFCURVE",
"609 443 CURVE SMOOTH",
"616 463 OFFCURVE",
"624 473 OFFCURVE",
"630 473 CURVE SMOOTH",
"635 473 OFFCURVE",
"639 465 OFFCURVE",
"639 447 CURVE SMOOTH",
"639 130 LINE SMOOTH",
"639 90 OFFCURVE",
"635 59 OFFCURVE",
"619 40 CURVE SMOOTH",
"605 23 OFFCURVE",
"589 22 OFFCURVE",
"589 10 CURVE SMOOTH",
"589 -1 OFFCURVE",
"597 -10 OFFCURVE",
"619 -10 CURVE SMOOTH",
"641 -10 OFFCURVE",
"654 0 OFFCURVE",
"698 0 CURVE SMOOTH",
"748 0 OFFCURVE",
"759 -10 OFFCURVE",
"789 -10 CURVE SMOOTH",
"809 -10 OFFCURVE",
"819 -2 OFFCURVE",
"819 10 CURVE SMOOTH",
"819 21 OFFCURVE",
"813 30 OFFCURVE",
"801 30 CURVE SMOOTH",
"800 30 OFFCURVE",
"800 30 OFFCURVE",
"799 30 CURVE SMOOTH",
"782 29 OFFCURVE",
"775 39 OFFCURVE",
"769 60 CURVE SMOOTH",
"761 88 OFFCURVE",
"759 116 OFFCURVE",
"759 140 CURVE SMOOTH",
"759 548 LINE SMOOTH",
"759 577 OFFCURVE",
"764 603 OFFCURVE",
"779 618 CURVE SMOOTH",
"796 635 OFFCURVE",
"809 635 OFFCURVE",
"809 648 CURVE SMOOTH",
"809 660 OFFCURVE",
"798 668 OFFCURVE",
"779 668 CURVE SMOOTH",
"670 668 LINE SMOOTH",
"645 668 OFFCURVE",
"629 663 OFFCURVE",
"619 648 CURVE SMOOTH",
"604 626 OFFCURVE",
"609 607 OFFCURVE",
"573 511 CURVE SMOOTH",
"531 397 OFFCURVE",
"480 255 OFFCURVE",
"450 182 CURVE SMOOTH",
"447 173 OFFCURVE",
"443 169 OFFCURVE",
"440 169 CURVE SMOOTH",
"436 169 OFFCURVE",
"433 174 OFFCURVE",
"430 182 CURVE SMOOTH",
"405 253 OFFCURVE",
"341 410 OFFCURVE",
"282 538 CURVE SMOOTH",
"252 602 OFFCURVE",
"241 625 OFFCURVE",
"241 647 CURVE SMOOTH",
"241 667 OFFCURVE",
"233 678 OFFCURVE",
"214 678 CURVE SMOOTH",
"187 678 OFFCURVE",
"177 668 OFFCURVE",
"129 668 CURVE SMOOTH",
"70 668 LINE SMOOTH",
"48 668 OFFCURVE",
"40 658 OFFCURVE",
"40 648 CURVE SMOOTH",
"40 637 OFFCURVE",
"47 628 OFFCURVE",
"58 628 CURVE SMOOTH",
"59 628 OFFCURVE",
"59 628 OFFCURVE",
"60 628 CURVE SMOOTH",
"75 629 OFFCURVE",
"84 621 OFFCURVE",
"90 608 CURVE SMOOTH",
"99 588 OFFCURVE",
"100 555 OFFCURVE",
"100 528 CURVE SMOOTH",
"100 130 LINE SMOOTH",
"100 90 OFFCURVE",
"96 59 OFFCURVE",
"80 40 CURVE SMOOTH",
"66 23 OFFCURVE",
"50 22 OFFCURVE",
"50 10 CURVE SMOOTH",
"50 -1 OFFCURVE",
"58 -10 OFFCURVE",
"80 -10 CURVE SMOOTH"
);
}
);
width = 859;
},
{
associatedMasterId = "083550D2-F2E8-44E3-BE3D-E8BDF41EDFC4";
layerId = "0AAF2CB4-2EBD-42C4-BAB4-4CEC92C737FB";
width = 600;
},
{
layerId = "9D9E1BAB-54C5-4388-83C1-CB7B88B482E6";
paths = (
{
closed = 1;
nodes = (
"90 -10 OFFCURVE",
"102 0 OFFCURVE",
"139 0 CURVE SMOOTH",
"162 0 OFFCURVE",
"188 -10 OFFCURVE",
"210 -10 CURVE SMOOTH",
"230 -10 OFFCURVE",
"240 -2 OFFCURVE",
"240 10 CURVE SMOOTH",
"240 22 OFFCURVE",
"233 30 OFFCURVE",
"220 30 CURVE SMOOTH",
"203 30 OFFCURVE",
"183 50 OFFCURVE",
"171 127 CURVE SMOOTH",
"162 183 OFFCURVE",
"160 221 OFFCURVE",
"160 270 CURVE SMOOTH",
"160 428 LINE SMOOTH",
"160 445 OFFCURVE",
"166 454 OFFCURVE",
"174 454 CURVE SMOOTH",
"179 454 OFFCURVE",
"185 449 OFFCURVE",
"190 438 CURVE SMOOTH",
"239 330 OFFCURVE",
"345 99 OFFCURVE",
"378 29 CURVE SMOOTH",
"396 -9 OFFCURVE",
"409 -10 OFFCURVE",
"420 -10 CURVE SMOOTH",
"431 -10 OFFCURVE",
"440 -2 OFFCURVE",
"450 20 CURVE SMOOTH",
"492 115 OFFCURVE",
"589 345 OFFCURVE",
"619 423 CURVE SMOOTH",
"627 443 OFFCURVE",
"634 453 OFFCURVE",
"640 453 CURVE SMOOTH",
"645 453 OFFCURVE",
"649 445 OFFCURVE",
"649 427 CURVE SMOOTH",
"649 130 LINE SMOOTH",
"649 90 OFFCURVE",
"645 59 OFFCURVE",
"629 40 CURVE SMOOTH",
"615 23 OFFCURVE",
"599 22 OFFCURVE",
"599 10 CURVE SMOOTH",
"599 -1 OFFCURVE",
"607 -10 OFFCURVE",
"629 -10 CURVE SMOOTH",
"651 -10 OFFCURVE",
"664 0 OFFCURVE",
"708 0 CURVE SMOOTH",
"778 0 OFFCURVE",
"789 -10 OFFCURVE",
"819 -10 CURVE SMOOTH",
"839 -10 OFFCURVE",
"849 -2 OFFCURVE",
"849 10 CURVE SMOOTH",
"849 21 OFFCURVE",
"843 30 OFFCURVE",
"831 30 CURVE SMOOTH",
"830 30 OFFCURVE",
"830 30 OFFCURVE",
"829 30 CURVE SMOOTH",
"812 30 OFFCURVE",
"805 39 OFFCURVE",
"799 60 CURVE SMOOTH",
"791 88 OFFCURVE",
"789 116 OFFCURVE",
"789 140 CURVE SMOOTH",
"789 548 LINE SMOOTH",
"789 577 OFFCURVE",
"794 603 OFFCURVE",
"809 618 CURVE SMOOTH",
"826 635 OFFCURVE",
"839 635 OFFCURVE",
"839 648 CURVE SMOOTH",
"839 660 OFFCURVE",
"828 668 OFFCURVE",
"809 668 CURVE SMOOTH",
"660 668 LINE SMOOTH",
"635 668 OFFCURVE",
"619 663 OFFCURVE",
"609 648 CURVE SMOOTH",
"594 626 OFFCURVE",
"599 607 OFFCURVE",
"563 511 CURVE SMOOTH",
"520 397 OFFCURVE",
"488 313 OFFCURVE",
"460 242 CURVE SMOOTH",
"457 233 OFFCURVE",
"453 229 OFFCURVE",
"450 229 CURVE SMOOTH",
"446 229 OFFCURVE",
"443 234 OFFCURVE",
"440 242 CURVE SMOOTH",
"412 312 OFFCURVE",
"370 411 OFFCURVE",
"312 538 CURVE SMOOTH",
"283 602 OFFCURVE",
"271 625 OFFCURVE",
"271 647 CURVE SMOOTH",
"271 667 OFFCURVE",
"263 678 OFFCURVE",
"244 678 CURVE SMOOTH",
"217 678 OFFCURVE",
"207 668 OFFCURVE",
"139 668 CURVE SMOOTH",
"60 668 LINE SMOOTH",
"38 668 OFFCURVE",
"30 658 OFFCURVE",
"30 648 CURVE SMOOTH",
"30 637 OFFCURVE",
"37 628 OFFCURVE",
"48 628 CURVE SMOOTH",
"49 628 OFFCURVE",
"49 628 OFFCURVE",
"50 628 CURVE SMOOTH",
"65 628 OFFCURVE",
"74 621 OFFCURVE",
"80 608 CURVE SMOOTH",
"89 588 OFFCURVE",
"90 555 OFFCURVE",
"90 528 CURVE SMOOTH",
"90 130 LINE SMOOTH",
"90 90 OFFCURVE",
"86 59 OFFCURVE",
"70 40 CURVE SMOOTH",
"56 23 OFFCURVE",
"40 22 OFFCURVE",
"40 10 CURVE SMOOTH",
"40 -1 OFFCURVE",
"48 -10 OFFCURVE",
"70 -10 CURVE SMOOTH"
);
}
);
width = 879;
},
{
associatedMasterId = "9D9E1BAB-54C5-4388-83C1-CB7B88B482E6";
layerId = "DF798EB9-2E48-4181-91C6-9E908881BF6C";
width = 600;
}
);
leftKerningGroup = M;
leftMetricsKey = H;
rightKerningGroup = M;
rightMetricsKey = H;
unicode = 004D;
},
{
color = 1;
glyphname = N;
lastChange = "2021-05-29 16:39:46 +0000";
layers = (
{
anchors = (
{
name = bottom;
position = "{375, 0}";
},
{
name = top;
position = "{385, 670}";
}
);
layerId = "083550D2-F2E8-44E3-BE3D-E8BDF41EDFC4";
paths = (
{
closed = 1;
nodes = (
"100 -10 OFFCURVE",
"112 0 OFFCURVE",
"129 0 CURVE SMOOTH",
"152 0 OFFCURVE",
"178 -10 OFFCURVE",
"200 -10 CURVE SMOOTH",
"220 -10 OFFCURVE",
"230 -2 OFFCURVE",
"230 10 CURVE SMOOTH",
"230 22 OFFCURVE",
"223 30 OFFCURVE",
"210 30 CURVE SMOOTH",
"193 30 OFFCURVE",
"171 59 OFFCURVE",
"161 127 CURVE SMOOTH",
"154 173 OFFCURVE",
"150 222 OFFCURVE",
"150 270 CURVE SMOOTH",
"150 490 LINE SMOOTH",
"150 507 OFFCURVE",
"155 515 OFFCURVE",
"161 515 CURVE SMOOTH",
"167 515 OFFCURVE",
"173 510 OFFCURVE",
"180 500 CURVE SMOOTH",
"275 356 OFFCURVE",
"439 171 OFFCURVE",
"525 66 CURVE SMOOTH",
"578 1 OFFCURVE",
"615 -10 OFFCURVE",
"660 -10 CURVE SMOOTH",
"682 -10 OFFCURVE",
"690 0 OFFCURVE",
"690 10 CURVE SMOOTH",
"690 22 OFFCURVE",
"682 30 OFFCURVE",
"670 30 CURVE SMOOTH",
"655 30 OFFCURVE",
"644 37 OFFCURVE",
"641 50 CURVE SMOOTH",
"640 56 OFFCURVE",
"639 64 OFFCURVE",
"639 75 CURVE SMOOTH",
"639 97 OFFCURVE",
"641 128 OFFCURVE",
"641 170 CURVE SMOOTH",
"641 539 LINE SMOOTH",
"641 579 OFFCURVE",
"646 604 OFFCURVE",
"668 626 CURVE SMOOTH",
"686 644 OFFCURVE",
"697 651 OFFCURVE",
"697 663 CURVE SMOOTH",
"697 674 OFFCURVE",
"689 678 OFFCURVE",
"676 678 CURVE SMOOTH",
"658 678 OFFCURVE",
"633 668 OFFCURVE",
"612 668 CURVE SMOOTH",
"582 668 OFFCURVE",
"571 678 OFFCURVE",
"541 678 CURVE SMOOTH",
"521 678 OFFCURVE",
"511 671 OFFCURVE",
"511 659 CURVE SMOOTH",
"511 647 OFFCURVE",
"518 639 OFFCURVE",
"531 639 CURVE SMOOTH",
"552 639 OFFCURVE",
"572 618 OFFCURVE",
"582 548 CURVE SMOOTH",
"588 505 OFFCURVE",
"591 463 OFFCURVE",
"591 428 CURVE SMOOTH",
"591 219 LINE SMOOTH",
"591 200 OFFCURVE",
"588 191 OFFCURVE",
"581 191 CURVE SMOOTH",
"575 191 OFFCURVE",
"567 198 OFFCURVE",
"556 213 CURVE SMOOTH",
"528 251 OFFCURVE",
"392 391 OFFCURVE",
"292 538 CURVE SMOOTH",
"249 601 OFFCURVE",
"244 637 OFFCURVE",
"240 659 CURVE SMOOTH",
"238 670 OFFCURVE",
"230 678 OFFCURVE",
"211 678 CURVE SMOOTH",
"189 678 OFFCURVE",
"173 669 OFFCURVE",
"119 669 CURVE SMOOTH",
"70 669 LINE SMOOTH",
"48 669 OFFCURVE",
"40 659 OFFCURVE",
"40 649 CURVE SMOOTH",
"40 638 OFFCURVE",
"47 629 OFFCURVE",
"58 629 CURVE SMOOTH",
"59 629 OFFCURVE",
"59 629 OFFCURVE",
"60 629 CURVE SMOOTH",
"75 630 OFFCURVE",
"84 622 OFFCURVE",
"90 609 CURVE SMOOTH",
"99 589 OFFCURVE",
"100 556 OFFCURVE",
"100 529 CURVE SMOOTH",
"100 130 LINE SMOOTH",
"100 90 OFFCURVE",
"96 59 OFFCURVE",
"80 40 CURVE SMOOTH",
"66 23 OFFCURVE",
"50 22 OFFCURVE",
"50 10 CURVE SMOOTH",
"50 -1 OFFCURVE",
"58 -10 OFFCURVE",
"80 -10 CURVE SMOOTH"
);
}
);
width = 737;
},
{
anchors = (
{
name = bottom;
position = "{385, 0}";
},
{
name = top;
position = "{395, 670}";
}
);
layerId = "9D9E1BAB-54C5-4388-83C1-CB7B88B482E6";
paths = (
{
closed = 1;
nodes = (
"90 -10 OFFCURVE",
"122 0 OFFCURVE",
"139 0 CURVE SMOOTH",
"162 0 OFFCURVE",
"188 -10 OFFCURVE",
"210 -10 CURVE SMOOTH",
"230 -10 OFFCURVE",
"240 -2 OFFCURVE",
"240 10 CURVE SMOOTH",
"240 22 OFFCURVE",
"233 30 OFFCURVE",
"220 30 CURVE SMOOTH",
"203 30 OFFCURVE",
"181 59 OFFCURVE",
"171 127 CURVE SMOOTH",
"164 173 OFFCURVE",
"160 222 OFFCURVE",
"160 270 CURVE SMOOTH",
"160 460 LINE SMOOTH",
"160 477 OFFCURVE",
"165 485 OFFCURVE",
"171 485 CURVE SMOOTH",
"177 485 OFFCURVE",
"182 480 OFFCURVE",
"190 470 CURVE SMOOTH",
"289 343 OFFCURVE",
"439 160 OFFCURVE",
"515 76 CURVE SMOOTH",
"582 2 OFFCURVE",
"635 -10 OFFCURVE",
"690 -10 CURVE SMOOTH",
"712 -10 OFFCURVE",
"720 0 OFFCURVE",
"720 10 CURVE SMOOTH",
"720 22 OFFCURVE",
"712 30 OFFCURVE",
"700 30 CURVE SMOOTH",
"685 30 OFFCURVE",
"673 37 OFFCURVE",
"671 50 CURVE SMOOTH",
"670 56 OFFCURVE",
"669 64 OFFCURVE",
"669 75 CURVE SMOOTH",
"669 97 OFFCURVE",
"671 128 OFFCURVE",
"671 170 CURVE SMOOTH",
"671 539 LINE SMOOTH",
"671 579 OFFCURVE",
"676 604 OFFCURVE",
"698 626 CURVE SMOOTH",
"716 644 OFFCURVE",
"727 651 OFFCURVE",
"727 663 CURVE SMOOTH",
"727 674 OFFCURVE",
"719 678 OFFCURVE",
"706 678 CURVE SMOOTH",
"688 678 OFFCURVE",
"663 668 OFFCURVE",
"622 668 CURVE SMOOTH",
"592 668 OFFCURVE",
"581 678 OFFCURVE",
"551 678 CURVE SMOOTH",
"531 678 OFFCURVE",
"521 671 OFFCURVE",
"521 659 CURVE SMOOTH",
"521 647 OFFCURVE",
"528 639 OFFCURVE",
"541 639 CURVE SMOOTH",
"562 639 OFFCURVE",
"582 618 OFFCURVE",
"592 548 CURVE SMOOTH",
"598 505 OFFCURVE",
"601 463 OFFCURVE",
"601 428 CURVE SMOOTH",
"601 249 LINE SMOOTH",
"601 230 OFFCURVE",
"598 221 OFFCURVE",
"591 221 CURVE SMOOTH",
"585 221 OFFCURVE",
"579 228 OFFCURVE",
"566 243 CURVE SMOOTH",
"533 281 OFFCURVE",
"413 414 OFFCURVE",
"322 538 CURVE SMOOTH",
"276 600 OFFCURVE",
"274 637 OFFCURVE",
"270 659 CURVE SMOOTH",
"268 670 OFFCURVE",
"260 678 OFFCURVE",
"241 678 CURVE SMOOTH",
"219 678 OFFCURVE",
"203 669 OFFCURVE",
"129 669 CURVE SMOOTH",
"60 669 LINE SMOOTH",
"38 669 OFFCURVE",
"30 659 OFFCURVE",
"30 649 CURVE SMOOTH",
"30 638 OFFCURVE",
"37 629 OFFCURVE",
"48 629 CURVE SMOOTH",
"49 629 OFFCURVE",
"49 629 OFFCURVE",
"50 629 CURVE SMOOTH",
"65 629 OFFCURVE",
"74 622 OFFCURVE",
"80 609 CURVE SMOOTH",
"89 589 OFFCURVE",
"90 556 OFFCURVE",
"90 529 CURVE SMOOTH",
"90 130 LINE SMOOTH",
"90 90 OFFCURVE",
"86 59 OFFCURVE",
"70 40 CURVE SMOOTH",
"56 23 OFFCURVE",
"40 22 OFFCURVE",
"40 10 CURVE SMOOTH",
"40 -1 OFFCURVE",
"48 -10 OFFCURVE",
"70 -10 CURVE SMOOTH"
);
}
);
width = 757;
}
);
leftKerningGroup = H;
leftMetricsKey = H;
rightKerningGroup = H;
rightMetricsKey = H;
unicode = 004E;
},
{
color = 1;
glyphname = O;
lastChange = "2021-06-14 11:29:01 +0000";
layers = (
{
anchors = (
{
name = bottom;
position = "{428, -10}";
},
{
name = center;
position = "{418, 350}";
},
{
name = ogonek;
position = "{542, 10}";
},
{
name = top;
position = "{429, 677}";
},
{
name = topleft;
position = "{90, 600}";
},
{
name = topright;
position = "{816, 580}";
}
);
layerId = "083550D2-F2E8-44E3-BE3D-E8BDF41EDFC4";
paths = (
{
closed = 1;
nodes = (
"630 -10 OFFCURVE",
"788 103 OFFCURVE",
"788 334 CURVE SMOOTH",
"788 553 OFFCURVE",
"642 678 OFFCURVE",
"420 678 CURVE SMOOTH",
"214 678 OFFCURVE",
"50 555 OFFCURVE",
"50 334 CURVE SMOOTH",
"50 101 OFFCURVE",
"213 -10 OFFCURVE",
"420 -10 CURVE SMOOTH"
);
},
{
closed = 1;
nodes = (
"265 40 OFFCURVE",
"170 131 OFFCURVE",
"170 334 CURVE SMOOTH",
"170 529 OFFCURVE",
"268 628 OFFCURVE",
"420 628 CURVE SMOOTH",
"574 628 OFFCURVE",
"668 530 OFFCURVE",
"668 334 CURVE SMOOTH",
"668 133 OFFCURVE",
"577 40 OFFCURVE",
"420 40 CURVE SMOOTH"
);
}
);
width = 838;
},
{
anchors = (
{
name = bottom;
position = "{438, -10}";
},
{
name = center;
position = "{428, 340}";
},
{
name = ogonek;
position = "{552, 10}";
},
{
name = top;
position = "{439, 677}";
},
{
name = topleft;
position = "{100, 600}";
},
{
name = topright;
position = "{826, 580}";
}
);
layerId = "9D9E1BAB-54C5-4388-83C1-CB7B88B482E6";
paths = (
{
closed = 1;
nodes = (
"651 -10 OFFCURVE",
"818 103 OFFCURVE",
"818 334 CURVE SMOOTH",
"818 553 OFFCURVE",
"664 678 OFFCURVE",
"430 678 CURVE SMOOTH",
"213 678 OFFCURVE",
"40 555 OFFCURVE",
"40 334 CURVE SMOOTH",
"40 101 OFFCURVE",
"212 -10 OFFCURVE",
"430 -10 CURVE SMOOTH"
);
},
{
closed = 1;
nodes = (
"287 60 OFFCURVE",
"200 145 OFFCURVE",
"200 334 CURVE SMOOTH",
"200 516 OFFCURVE",
"290 608 OFFCURVE",
"430 608 CURVE SMOOTH",
"572 608 OFFCURVE",
"658 517 OFFCURVE",
"658 334 CURVE SMOOTH",
"658 147 OFFCURVE",
"574 60 OFFCURVE",
"430 60 CURVE SMOOTH"
);
}
);
width = 858;
}
);
leftKerningGroup = O;
rightKerningGroup = O;
unicode = 004F;
},
{
color = 1;
glyphname = P;
lastChange = "2021-12-12 11:40:52 +0000";
layers = (
{
layerId = "083550D2-F2E8-44E3-BE3D-E8BDF41EDFC4";
paths = (
{
closed = 1;
nodes = (
"102 -10 OFFCURVE",
"115 0 OFFCURVE",
"159 0 CURVE SMOOTH",
"209 0 OFFCURVE",
"220 -10 OFFCURVE",
"250 -10 CURVE SMOOTH",
"270 -10 OFFCURVE",
"280 -2 OFFCURVE",
"280 10 CURVE SMOOTH",
"280 21 OFFCURVE",
"274 30 OFFCURVE",
"262 30 CURVE SMOOTH",
"261 30 OFFCURVE",
"261 30 OFFCURVE",
"260 30 CURVE SMOOTH",
"243 29 OFFCURVE",
"236 39 OFFCURVE",
"230 60 CURVE SMOOTH",
"222 88 OFFCURVE",
"220 116 OFFCURVE",
"220 140 CURVE SMOOTH",
"220 232 LINE SMOOTH",
"220 264 OFFCURVE",
"228 272 OFFCURVE",
"250 272 CURVE SMOOTH",
"425 272 OFFCURVE",
"540 358 OFFCURVE",
"540 501 CURVE SMOOTH",
"540 611 OFFCURVE",
"470 678 OFFCURVE",
"310 678 CURVE SMOOTH",
"240 678 OFFCURVE",
"206 668 OFFCURVE",
"159 668 CURVE SMOOTH",
"118 668 OFFCURVE",
"98 678 OFFCURVE",
"70 678 CURVE SMOOTH",
"48 678 OFFCURVE",
"40 668 OFFCURVE",
"40 658 CURVE SMOOTH",
"40 647 OFFCURVE",
"47 638 OFFCURVE",
"58 638 CURVE SMOOTH",
"59 638 OFFCURVE",
"59 638 OFFCURVE",
"60 638 CURVE SMOOTH",
"75 639 OFFCURVE",
"84 631 OFFCURVE",
"90 618 CURVE SMOOTH",
"99 598 OFFCURVE",
"100 565 OFFCURVE",
"100 538 CURVE SMOOTH",
"100 130 LINE SMOOTH",
"100 90 OFFCURVE",
"96 59 OFFCURVE",
"80 40 CURVE SMOOTH",
"66 23 OFFCURVE",
"50 22 OFFCURVE",
"50 10 CURVE SMOOTH",
"50 -1 OFFCURVE",
"58 -10 OFFCURVE",
"80 -10 CURVE SMOOTH"
);
},
{
closed = 1;
nodes = (
"226 322 OFFCURVE",
"220 328 OFFCURVE",
"220 362 CURVE SMOOTH",
"220 548 LINE SMOOTH",
"220 577 OFFCURVE",
"225 603 OFFCURVE",
"240 618 CURVE SMOOTH",
"257 635 OFFCURVE",
"274 638 OFFCURVE",
"310 638 CURVE SMOOTH",
"371 638 OFFCURVE",
"419 601 OFFCURVE",
"419 501 CURVE SMOOTH",
"419 374 OFFCURVE",
"343 322 OFFCURVE",
"250 322 CURVE SMOOTH"
);
}
);
width = 570;
},
{
associatedMasterId = "083550D2-F2E8-44E3-BE3D-E8BDF41EDFC4";
layerId = "0AAF2CB4-2EBD-42C4-BAB4-4CEC92C737FB";
width = 600;
},
{
layerId = "9D9E1BAB-54C5-4388-83C1-CB7B88B482E6";
paths = (
{
closed = 1;
nodes = (
"92 -10 OFFCURVE",
"105 0 OFFCURVE",
"169 0 CURVE SMOOTH",
"239 0 OFFCURVE",
"250 -10 OFFCURVE",
"280 -10 CURVE SMOOTH",
"300 -10 OFFCURVE",
"310 -2 OFFCURVE",
"310 10 CURVE SMOOTH",
"310 21 OFFCURVE",
"304 30 OFFCURVE",
"292 30 CURVE SMOOTH",
"291 30 OFFCURVE",
"291 30 OFFCURVE",
"290 30 CURVE SMOOTH",
"273 30 OFFCURVE",
"266 39 OFFCURVE",
"260 60 CURVE SMOOTH",
"252 88 OFFCURVE",
"250 116 OFFCURVE",
"250 140 CURVE SMOOTH",
"250 212 LINE SMOOTH",
"250 244 OFFCURVE",
"258 252 OFFCURVE",
"280 252 CURVE SMOOTH",
"455 252 OFFCURVE",
"570 348 OFFCURVE",
"570 491 CURVE SMOOTH",
"570 611 OFFCURVE",
"494 678 OFFCURVE",
"340 678 CURVE SMOOTH",
"270 678 OFFCURVE",
"216 668 OFFCURVE",
"169 668 CURVE SMOOTH",
"108 668 OFFCURVE",
"88 678 OFFCURVE",
"60 678 CURVE SMOOTH",
"38 678 OFFCURVE",
"30 668 OFFCURVE",
"30 658 CURVE SMOOTH",
"30 647 OFFCURVE",
"37 638 OFFCURVE",
"48 638 CURVE SMOOTH",
"49 638 OFFCURVE",
"49 638 OFFCURVE",
"50 638 CURVE SMOOTH",
"65 638 OFFCURVE",
"74 631 OFFCURVE",
"80 618 CURVE SMOOTH",
"89 598 OFFCURVE",
"90 565 OFFCURVE",
"90 538 CURVE SMOOTH",
"90 130 LINE SMOOTH",
"90 90 OFFCURVE",
"86 59 OFFCURVE",
"70 40 CURVE SMOOTH",
"56 23 OFFCURVE",
"40 22 OFFCURVE",
"40 10 CURVE SMOOTH",
"40 -1 OFFCURVE",
"48 -10 OFFCURVE",
"70 -10 CURVE SMOOTH"
);
},
{
closed = 1;
nodes = (
"256 322 OFFCURVE",
"250 328 OFFCURVE",
"250 362 CURVE SMOOTH",
"250 528 LINE SMOOTH",
"250 557 OFFCURVE",
"255 583 OFFCURVE",
"270 598 CURVE SMOOTH",
"285 613 OFFCURVE",
"299 618 OFFCURVE",
"330 618 CURVE SMOOTH",
"372 618 OFFCURVE",
"409 586 OFFCURVE",
"409 491 CURVE SMOOTH",
"409 374 OFFCURVE",
"333 322 OFFCURVE",
"280 322 CURVE SMOOTH"
);
}
);
width = 600;
},
{
associatedMasterId = "9D9E1BAB-54C5-4388-83C1-CB7B88B482E6";
layerId = "096CA8B3-09BD-46C7-B2B7-43D098C15FC0";
width = 600;
}
);
leftKerningGroup = H;
leftMetricsKey = H;
rightKerningGroup = P;
unicode = 0050;
},
{
color = 1;
glyphname = Q;
lastChange = "2021-12-12 14:13:06 +0000";
layers = (
{
layerId = "083550D2-F2E8-44E3-BE3D-E8BDF41EDFC4";
paths = (
{
closed = 1;
nodes = (
"905 -244 OFFCURVE",
"966 -188 OFFCURVE",
"985 -128 CURVE SMOOTH",
"989 -116 OFFCURVE",
"990 -106 OFFCURVE",
"990 -98 CURVE SMOOTH",
"990 -79 OFFCURVE",
"982 -70 OFFCURVE",
"968 -70 CURVE SMOOTH",
"952 -70 OFFCURVE",
"944 -85 OFFCURVE",
"936 -103 CURVE SMOOTH",
"922 -135 OFFCURVE",
"893 -168 OFFCURVE",
"844 -168 CURVE SMOOTH",
"791 -168 OFFCURVE",
"750 -147 OFFCURVE",
"684 -109 CURVE SMOOTH",
"620 -72 OFFCURVE",
"567 -41 OFFCURVE",
"503 -17 CURVE SMOOTH",
"494 -14 OFFCURVE",
"491 -11 OFFCURVE",
"491 -9 CURVE SMOOTH",
"491 -7 OFFCURVE",
"496 -5 OFFCURVE",
"502 -4 CURVE SMOOTH",
"671 22 OFFCURVE",
"790 134 OFFCURVE",
"790 334 CURVE SMOOTH",
"790 553 OFFCURVE",
"643 678 OFFCURVE",
"421 678 CURVE SMOOTH",
"215 678 OFFCURVE",
"50 555 OFFCURVE",
"50 334 CURVE SMOOTH",
"50 159 OFFCURVE",
"130 83 OFFCURVE",
"221 30 CURVE SMOOTH",
"279 -4 OFFCURVE",
"324 -10 OFFCURVE",
"404 -43 CURVE SMOOTH",
"496 -81 OFFCURVE",
"576 -156 OFFCURVE",
"650 -196 CURVE SMOOTH",
"718 -233 OFFCURVE",
"757 -244 OFFCURVE",
"818 -244 CURVE SMOOTH"
);
},
{
closed = 1;
nodes = (
"266 40 OFFCURVE",
"170 131 OFFCURVE",
"170 334 CURVE SMOOTH",
"170 529 OFFCURVE",
"269 628 OFFCURVE",
"421 628 CURVE SMOOTH",
"575 628 OFFCURVE",
"669 530 OFFCURVE",
"669 334 CURVE SMOOTH",
"669 132 OFFCURVE",
"578 40 OFFCURVE",
"421 40 CURVE SMOOTH"
);
}
);
width = 870;
},
{
associatedMasterId = "083550D2-F2E8-44E3-BE3D-E8BDF41EDFC4";
layerId = "0AAF2CB4-2EBD-42C4-BAB4-4CEC92C737FB";
width = 600;
},
{
layerId = "9D9E1BAB-54C5-4388-83C1-CB7B88B482E6";
paths = (
{
closed = 1;
nodes = (
"915 -244 OFFCURVE",
"976 -188 OFFCURVE",
"995 -128 CURVE SMOOTH",
"999 -116 OFFCURVE",
"1000 -106 OFFCURVE",
"1000 -98 CURVE SMOOTH",
"1000 -79 OFFCURVE",
"990 -70 OFFCURVE",
"976 -70 CURVE SMOOTH",
"960 -70 OFFCURVE",
"950 -82 OFFCURVE",
"939 -103 CURVE SMOOTH",
"922 -135 OFFCURVE",
"899 -153 OFFCURVE",
"864 -153 CURVE SMOOTH",
"828 -153 OFFCURVE",
"790 -137 OFFCURVE",
"724 -99 CURVE SMOOTH",
"660 -62 OFFCURVE",
"581 -33 OFFCURVE",
"513 -17 CURVE SMOOTH",
"504 -15 OFFCURVE",
"501 -11 OFFCURVE",
"501 -9 CURVE SMOOTH",
"501 -7 OFFCURVE",
"506 -5 OFFCURVE",
"512 -4 CURVE SMOOTH",
"701 22 OFFCURVE",
"820 134 OFFCURVE",
"820 334 CURVE SMOOTH",
"820 553 OFFCURVE",
"673 678 OFFCURVE",
"431 678 CURVE SMOOTH",
"205 678 OFFCURVE",
"40 555 OFFCURVE",
"40 334 CURVE SMOOTH",
"40 159 OFFCURVE",
"130 83 OFFCURVE",
"221 30 CURVE SMOOTH",
"279 -4 OFFCURVE",
"314 -10 OFFCURVE",
"394 -43 CURVE SMOOTH",
"486 -81 OFFCURVE",
"567 -145 OFFCURVE",
"640 -186 CURVE SMOOTH",
"711 -226 OFFCURVE",
"749 -244 OFFCURVE",
"828 -244 CURVE SMOOTH"
);
},
{
closed = 1;
nodes = (
"288 60 OFFCURVE",
"200 145 OFFCURVE",
"200 334 CURVE SMOOTH",
"200 516 OFFCURVE",
"291 608 OFFCURVE",
"431 608 CURVE SMOOTH",
"573 608 OFFCURVE",
"659 517 OFFCURVE",
"659 334 CURVE SMOOTH",
"659 146 OFFCURVE",
"575 60 OFFCURVE",
"431 60 CURVE SMOOTH"
);
}
);
width = 880;
},
{
associatedMasterId = "9D9E1BAB-54C5-4388-83C1-CB7B88B482E6";
layerId = "B995E6B3-9F32-44BC-82C7-44192D39A3FA";
width = 600;
}
);
leftKerningGroup = O;
leftMetricsKey = O;
rightKerningGroup = O;
unicode = 0051;
},
{
color = 1;
glyphname = R;
lastChange = "2021-12-12 11:38:28 +0000";
layers = (
{
anchors = (
{
name = bottom;
position = "{323, 0}";
},
{
name = top;
position = "{283, 680}";
}
);
layerId = "083550D2-F2E8-44E3-BE3D-E8BDF41EDFC4";
paths = (
{
closed = 1;
nodes = (
"606 -20 OFFCURVE",
"660 63 OFFCURVE",
"660 114 CURVE SMOOTH",
"660 133 OFFCURVE",
"649 143 OFFCURVE",
"637 143 CURVE SMOOTH",
"627 143 OFFCURVE",
"616 136 OFFCURVE",
"610 121 CURVE SMOOTH",
"588 69 OFFCURVE",
"558 40 OFFCURVE",
"529 40 CURVE SMOOTH",
"515 40 OFFCURVE",
"508 50 OFFCURVE",
"508 61 CURVE SMOOTH",
"508 70 OFFCURVE",
"509 77 OFFCURVE",
"512 88 CURVE SMOOTH",
"522 125 OFFCURVE",
"537 162 OFFCURVE",
"537 202 CURVE SMOOTH",
"537 220 OFFCURVE",
"534 238 OFFCURVE",
"527 255 CURVE SMOOTH",
"510 294 OFFCURVE",
"461 325 OFFCURVE",
"379 338 CURVE SMOOTH",
"373 339 OFFCURVE",
"369 340 OFFCURVE",
"369 344 CURVE SMOOTH",
"369 348 OFFCURVE",
"373 350 OFFCURVE",
"380 352 CURVE SMOOTH",
"397 358 OFFCURVE",
"429 369 OFFCURVE",
"454 388 CURVE SMOOTH",
"496 420 OFFCURVE",
"519 461 OFFCURVE",
"519 511 CURVE SMOOTH",
"519 619 OFFCURVE",
"450 678 OFFCURVE",
"300 678 CURVE SMOOTH",
"230 678 OFFCURVE",
"206 668 OFFCURVE",
"159 668 CURVE SMOOTH",
"118 668 OFFCURVE",
"98 678 OFFCURVE",
"70 678 CURVE SMOOTH",
"48 678 OFFCURVE",
"40 668 OFFCURVE",
"40 658 CURVE SMOOTH",
"40 647 OFFCURVE",
"47 638 OFFCURVE",
"58 638 CURVE SMOOTH",
"59 638 OFFCURVE",
"59 638 OFFCURVE",
"60 638 CURVE SMOOTH",
"75 639 OFFCURVE",
"84 631 OFFCURVE",
"90 618 CURVE SMOOTH",
"99 598 OFFCURVE",
"100 565 OFFCURVE",
"100 538 CURVE SMOOTH",
"100 130 LINE SMOOTH",
"100 90 OFFCURVE",
"96 59 OFFCURVE",
"80 40 CURVE SMOOTH",
"66 23 OFFCURVE",
"50 22 OFFCURVE",
"50 10 CURVE SMOOTH",
"50 -1 OFFCURVE",
"58 -10 OFFCURVE",
"80 -10 CURVE SMOOTH",
"102 -10 OFFCURVE",
"115 0 OFFCURVE",
"159 0 CURVE SMOOTH",
"209 0 OFFCURVE",
"220 -10 OFFCURVE",
"250 -10 CURVE SMOOTH",
"270 -10 OFFCURVE",
"280 -2 OFFCURVE",
"280 10 CURVE SMOOTH",
"280 21 OFFCURVE",
"274 30 OFFCURVE",
"262 30 CURVE SMOOTH",
"261 30 OFFCURVE",
"261 30 OFFCURVE",
"260 30 CURVE SMOOTH",
"243 29 OFFCURVE",
"236 39 OFFCURVE",
"230 60 CURVE SMOOTH",
"222 88 OFFCURVE",
"220 116 OFFCURVE",
"220 140 CURVE SMOOTH",
"220 264 LINE SMOOTH",
"220 297 OFFCURVE",
"225 304 OFFCURVE",
"260 304 CURVE SMOOTH",
"339 304 OFFCURVE",
"395 282 OFFCURVE",
"405 230 CURVE SMOOTH",
"415 177 OFFCURVE",
"398 146 OFFCURVE",
"398 84 CURVE SMOOTH",
"398 21 OFFCURVE",
"436 -20 OFFCURVE",
"506 -20 CURVE SMOOTH"
);
},
{
closed = 1;
nodes = (
"226 354 OFFCURVE",
"220 360 OFFCURVE",
"220 394 CURVE SMOOTH",
"220 548 LINE SMOOTH",
"220 564 OFFCURVE",
"222 579 OFFCURVE",
"225 592 CURVE",
"236 622 OFFCURVE",
"263 638 OFFCURVE",
"300 638 CURVE SMOOTH",
"363 638 OFFCURVE",
"398 594 OFFCURVE",
"398 511 CURVE SMOOTH",
"398 415 OFFCURVE",
"335 354 OFFCURVE",
"250 354 CURVE SMOOTH"
);
}
);
width = 670;
},
{
associatedMasterId = "083550D2-F2E8-44E3-BE3D-E8BDF41EDFC4";
layerId = "0AAF2CB4-2EBD-42C4-BAB4-4CEC92C737FB";
width = 600;
},
{
anchors = (
{
name = bottom;
position = "{353, 0}";
},
{
name = top;
position = "{313, 680}";
}
);
layerId = "9D9E1BAB-54C5-4388-83C1-CB7B88B482E6";
paths = (
{
closed = 1;
nodes = (
"636 -20 OFFCURVE",
"710 67 OFFCURVE",
"710 124 CURVE SMOOTH",
"710 143 OFFCURVE",
"699 153 OFFCURVE",
"682 153 CURVE SMOOTH",
"667 153 OFFCURVE",
"657 142 OFFCURVE",
"650 127 CURVE SMOOTH",
"629 85 OFFCURVE",
"603 60 OFFCURVE",
"579 60 CURVE SMOOTH",
"565 60 OFFCURVE",
"558 70 OFFCURVE",
"558 81 CURVE SMOOTH",
"558 89 OFFCURVE",
"559 97 OFFCURVE",
"562 107 CURVE SMOOTH",
"571 136 OFFCURVE",
"587 162 OFFCURVE",
"587 202 CURVE SMOOTH",
"587 220 OFFCURVE",
"584 238 OFFCURVE",
"577 255 CURVE SMOOTH",
"561 294 OFFCURVE",
"505 334 OFFCURVE",
"409 338 CURVE SMOOTH",
"403 338 OFFCURVE",
"399 340 OFFCURVE",
"399 344 CURVE SMOOTH",
"399 348 OFFCURVE",
"403 350 OFFCURVE",
"410 352 CURVE SMOOTH",
"429 358 OFFCURVE",
"479 369 OFFCURVE",
"504 388 CURVE SMOOTH",
"546 420 OFFCURVE",
"569 461 OFFCURVE",
"569 511 CURVE SMOOTH",
"569 619 OFFCURVE",
"490 678 OFFCURVE",
"350 678 CURVE SMOOTH",
"280 678 OFFCURVE",
"236 668 OFFCURVE",
"169 668 CURVE SMOOTH",
"108 668 OFFCURVE",
"88 678 OFFCURVE",
"60 678 CURVE SMOOTH",
"38 678 OFFCURVE",
"30 668 OFFCURVE",
"30 658 CURVE SMOOTH",
"30 647 OFFCURVE",
"37 638 OFFCURVE",
"48 638 CURVE SMOOTH",
"49 638 OFFCURVE",
"49 638 OFFCURVE",
"50 638 CURVE SMOOTH",
"65 638 OFFCURVE",
"74 631 OFFCURVE",
"80 618 CURVE SMOOTH",
"89 598 OFFCURVE",
"90 565 OFFCURVE",
"90 538 CURVE SMOOTH",
"90 130 LINE SMOOTH",
"90 90 OFFCURVE",
"86 59 OFFCURVE",
"70 40 CURVE SMOOTH",
"56 23 OFFCURVE",
"40 22 OFFCURVE",
"40 10 CURVE SMOOTH",
"40 -1 OFFCURVE",
"48 -10 OFFCURVE",
"70 -10 CURVE SMOOTH",
"92 -10 OFFCURVE",
"105 0 OFFCURVE",
"169 0 CURVE SMOOTH",
"239 0 OFFCURVE",
"250 -10 OFFCURVE",
"280 -10 CURVE SMOOTH",
"300 -10 OFFCURVE",
"310 -2 OFFCURVE",
"310 10 CURVE SMOOTH",
"310 21 OFFCURVE",
"304 30 OFFCURVE",
"292 30 CURVE SMOOTH",
"291 30 OFFCURVE",
"291 30 OFFCURVE",
"290 30 CURVE SMOOTH",
"273 29 OFFCURVE",
"266 39 OFFCURVE",
"260 60 CURVE SMOOTH",
"252 88 OFFCURVE",
"250 116 OFFCURVE",
"250 140 CURVE SMOOTH",
"250 254 LINE SMOOTH",
"250 287 OFFCURVE",
"255 294 OFFCURVE",
"290 294 CURVE SMOOTH",
"369 294 OFFCURVE",
"408 272 OFFCURVE",
"414 225 CURVE SMOOTH",
"420 178 OFFCURVE",
"408 146 OFFCURVE",
"408 84 CURVE SMOOTH",
"408 21 OFFCURVE",
"456 -20 OFFCURVE",
"536 -20 CURVE SMOOTH"
);
},
{
closed = 1;
nodes = (
"256 364 OFFCURVE",
"250 370 OFFCURVE",
"250 404 CURVE SMOOTH",
"250 528 LINE SMOOTH",
"250 544 OFFCURVE",
"251 559 OFFCURVE",
"255 572 CURVE SMOOTH",
"264 603 OFFCURVE",
"288 618 OFFCURVE",
"320 618 CURVE SMOOTH",
"371 618 OFFCURVE",
"408 584 OFFCURVE",
"408 511 CURVE SMOOTH",
"408 415 OFFCURVE",
"345 364 OFFCURVE",
"280 364 CURVE SMOOTH"
);
}
);
width = 720;
},
{
associatedMasterId = "9D9E1BAB-54C5-4388-83C1-CB7B88B482E6";
layerId = "99FBEF61-24FA-425B-8F01-77FA3D5CEEAE";
width = 600;
}
);
leftKerningGroup = H;
leftMetricsKey = H;
rightKerningGroup = R;
rightMetricsKey = K;
unicode = 0052;
},
{
color = 1;
glyphname = S;
lastChange = "2021-12-12 09:25:10 +0000";
layers = (
{
anchors = (
{
name = bottom;
position = "{238, 0}";
},
{
name = top;
position = "{239, 678}";
}
);
layerId = "083550D2-F2E8-44E3-BE3D-E8BDF41EDFC4";
paths = (
{
closed = 1;
nodes = (
"404 -10 OFFCURVE",
"478 68 OFFCURVE",
"478 173 CURVE SMOOTH",
"478 276 OFFCURVE",
"421 351 OFFCURVE",
"283 414 CURVE SMOOTH",
"198 453 OFFCURVE",
"164 487 OFFCURVE",
"164 545 CURVE SMOOTH",
"164 594 OFFCURVE",
"201 628 OFFCURVE",
"258 628 CURVE SMOOTH",
"307 628 OFFCURVE",
"342 612 OFFCURVE",
"364 593 CURVE SMOOTH",
"384 575 OFFCURVE",
"396 546 OFFCURVE",
"396 514 CURVE SMOOTH",
"396 496 OFFCURVE",
"404 484 OFFCURVE",
"420 484 CURVE SMOOTH",
"437 484 OFFCURVE",
"446 494 OFFCURVE",
"446 514 CURVE SMOOTH",
"446 573 OFFCURVE",
"453 615 OFFCURVE",
"453 641 CURVE SMOOTH",
"453 654 OFFCURVE",
"451 662 OFFCURVE",
"446 668 CURVE SMOOTH",
"440 675 OFFCURVE",
"433 678 OFFCURVE",
"417 678 CURVE SMOOTH",
"400 678 OFFCURVE",
"384 668 OFFCURVE",
"353 668 CURVE SMOOTH",
"318 668 OFFCURVE",
"299 678 OFFCURVE",
"248 678 CURVE SMOOTH",
"134 678 OFFCURVE",
"51 609 OFFCURVE",
"51 505 CURVE SMOOTH",
"51 422 OFFCURVE",
"93 370 OFFCURVE",
"210 311 CURVE SMOOTH",
"325 253 OFFCURVE",
"365 202 OFFCURVE",
"365 133 CURVE SMOOTH",
"365 77 OFFCURVE",
"328 40 OFFCURVE",
"261 40 CURVE SMOOTH",
"217 40 OFFCURVE",
"191 53 OFFCURVE",
"158 79 CURVE SMOOTH",
"121 108 OFFCURVE",
"97 157 OFFCURVE",
"97 202 CURVE SMOOTH",
"97 222 OFFCURVE",
"85 238 OFFCURVE",
"69 238 CURVE SMOOTH",
"51 238 OFFCURVE",
"40 226 OFFCURVE",
"40 202 CURVE SMOOTH",
"40 159 OFFCURVE",
"47 82 OFFCURVE",
"53 49 CURVE SMOOTH",
"57 28 OFFCURVE",
"63 19 OFFCURVE",
"71 11 CURVE SMOOTH",
"79 3 OFFCURVE",
"91 0 OFFCURVE",
"107 0 CURVE SMOOTH",
"154 0 OFFCURVE",
"190 -10 OFFCURVE",
"261 -10 CURVE SMOOTH"
);
}
);
width = 518;
},
{
associatedMasterId = "083550D2-F2E8-44E3-BE3D-E8BDF41EDFC4";
layerId = "0AAF2CB4-2EBD-42C4-BAB4-4CEC92C737FB";
width = 600;
},
{
anchors = (
{
name = bottom;
position = "{248, 0}";
},
{
name = top;
position = "{249, 678}";
}
);
layerId = "9D9E1BAB-54C5-4388-83C1-CB7B88B482E6";
paths = (
{
closed = 1;
nodes = (
"417 -10 OFFCURVE",
"508 67 OFFCURVE",
"508 183 CURVE SMOOTH",
"508 286 OFFCURVE",
"451 356 OFFCURVE",
"313 418 CURVE SMOOTH",
"219 460 OFFCURVE",
"194 494 OFFCURVE",
"194 540 CURVE SMOOTH",
"194 578 OFFCURVE",
"224 608 OFFCURVE",
"268 608 CURVE SMOOTH",
"321 608 OFFCURVE",
"355 586 OFFCURVE",
"375 562 CURVE SMOOTH",
"392 542 OFFCURVE",
"401 517 OFFCURVE",
"406 484 CURVE SMOOTH",
"409 466 OFFCURVE",
"417 454 OFFCURVE",
"435 454 CURVE SMOOTH",
"454 454 OFFCURVE",
"466 464 OFFCURVE",
"466 484 CURVE SMOOTH",
"466 553 OFFCURVE",
"473 615 OFFCURVE",
"473 641 CURVE SMOOTH",
"473 654 OFFCURVE",
"471 662 OFFCURVE",
"466 668 CURVE SMOOTH",
"460 675 OFFCURVE",
"453 678 OFFCURVE",
"437 678 CURVE SMOOTH",
"420 678 OFFCURVE",
"404 668 OFFCURVE",
"373 668 CURVE SMOOTH",
"338 668 OFFCURVE",
"299 678 OFFCURVE",
"248 678 CURVE SMOOTH",
"134 678 OFFCURVE",
"51 599 OFFCURVE",
"51 491 CURVE SMOOTH",
"51 402 OFFCURVE",
"95 347 OFFCURVE",
"200 287 CURVE SMOOTH",
"292 235 OFFCURVE",
"355 193 OFFCURVE",
"355 133 CURVE SMOOTH",
"355 87 OFFCURVE",
"326 60 OFFCURVE",
"281 60 CURVE SMOOTH",
"237 60 OFFCURVE",
"203 80 OFFCURVE",
"172 107 CURVE SMOOTH",
"141 134 OFFCURVE",
"116 177 OFFCURVE",
"107 222 CURVE SMOOTH",
"103 242 OFFCURVE",
"92 258 OFFCURVE",
"74 258 CURVE SMOOTH",
"54 258 OFFCURVE",
"40 246 OFFCURVE",
"40 222 CURVE SMOOTH",
"40 179 OFFCURVE",
"47 82 OFFCURVE",
"53 49 CURVE SMOOTH",
"57 28 OFFCURVE",
"63 19 OFFCURVE",
"71 11 CURVE SMOOTH",
"79 3 OFFCURVE",
"91 0 OFFCURVE",
"107 0 CURVE SMOOTH",
"154 0 OFFCURVE",
"210 -10 OFFCURVE",
"281 -10 CURVE SMOOTH"
);
}
);
width = 548;
},
{
associatedMasterId = "9D9E1BAB-54C5-4388-83C1-CB7B88B482E6";
layerId = "67DEDEEE-835C-411B-AE1F-146ADAE507B2";
width = 600;
}
);
leftKerningGroup = S;
rightKerningGroup = S;
unicode = 0053;
},
{
color = 1;
glyphname = T;
lastChange = "2021-08-11 11:22:11 +0000";
layers = (
{
anchors = (
{
name = bottom;
position = "{327, 0}";
},
{
name = center;
position = "{331, 340}";
},
{
name = top;
position = "{304, 710}";
}
);
layerId = "083550D2-F2E8-44E3-BE3D-E8BDF41EDFC4";
paths = (
{
closed = 1;
nodes = (
"271 -10 OFFCURVE",
"284 0 OFFCURVE",
"328 0 CURVE SMOOTH",
"378 0 OFFCURVE",
"389 -10 OFFCURVE",
"419 -10 CURVE SMOOTH",
"439 -10 OFFCURVE",
"449 -2 OFFCURVE",
"449 10 CURVE SMOOTH",
"449 21 OFFCURVE",
"443 30 OFFCURVE",
"431 30 CURVE SMOOTH",
"430 30 OFFCURVE",
"430 30 OFFCURVE",
"429 30 CURVE SMOOTH",
"411 29 OFFCURVE",
"405 39 OFFCURVE",
"398 60 CURVE SMOOTH",
"391 88 OFFCURVE",
"389 116 OFFCURVE",
"389 140 CURVE SMOOTH",
"389 577 LINE SMOOTH",
"389 610 OFFCURVE",
"395 617 OFFCURVE",
"428 617 CURVE SMOOTH",
"450 617 LINE SMOOTH",
"513 617 OFFCURVE",
"542 615 OFFCURVE",
"561 599 CURVE SMOOTH",
"575 587 OFFCURVE",
"576 565 OFFCURVE",
"576 545 CURVE SMOOTH",
"576 517 OFFCURVE",
"582 505 OFFCURVE",
"601 505 CURVE SMOOTH",
"615 505 OFFCURVE",
"626 516 OFFCURVE",
"626 538 CURVE SMOOTH",
"626 608 OFFCURVE",
"637 636 OFFCURVE",
"637 656 CURVE SMOOTH",
"637 660 OFFCURVE",
"636 664 OFFCURVE",
"635 668 CURVE SMOOTH",
"633 674 OFFCURVE",
"627 678 OFFCURVE",
"616 678 CURVE SMOOTH",
"598 678 OFFCURVE",
"593 668 OFFCURVE",
"552 668 CURVE SMOOTH",
"389 668 LINE",
"319 668 LINE",
"269 668 LINE",
"105 668 LINE SMOOTH",
"64 668 OFFCURVE",
"59 678 OFFCURVE",
"41 678 CURVE SMOOTH",
"30 678 OFFCURVE",
"24 674 OFFCURVE",
"22 668 CURVE SMOOTH",
"21 664 OFFCURVE",
"20 660 OFFCURVE",
"20 656 CURVE SMOOTH",
"20 636 OFFCURVE",
"31 608 OFFCURVE",
"31 538 CURVE SMOOTH",
"31 516 OFFCURVE",
"42 505 OFFCURVE",
"56 505 CURVE SMOOTH",
"75 505 OFFCURVE",
"81 517 OFFCURVE",
"81 545 CURVE SMOOTH",
"81 565 OFFCURVE",
"82 586 OFFCURVE",
"96 598 CURVE SMOOTH",
"115 614 OFFCURVE",
"144 617 OFFCURVE",
"207 617 CURVE SMOOTH",
"229 617 LINE SMOOTH",
"262 617 OFFCURVE",
"268 610 OFFCURVE",
"268 577 CURVE SMOOTH",
"268 575 OFFCURVE",
"268 574 OFFCURVE",
"269 573 CURVE",
"269 130 LINE SMOOTH",
"269 90 OFFCURVE",
"265 59 OFFCURVE",
"249 40 CURVE SMOOTH",
"234 23 OFFCURVE",
"219 22 OFFCURVE",
"219 10 CURVE SMOOTH",
"219 -1 OFFCURVE",
"227 -10 OFFCURVE",
"249 -10 CURVE SMOOTH"
);
}
);
width = 657;
},
{
associatedMasterId = "083550D2-F2E8-44E3-BE3D-E8BDF41EDFC4";
layerId = "0AAF2CB4-2EBD-42C4-BAB4-4CEC92C737FB";
width = 600;
},
{
anchors = (
{
name = bottom;
position = "{327, 0}";
},
{
name = center;
position = "{331, 340}";
},
{
name = top;
position = "{304, 710}";
}
);
layerId = "9D9E1BAB-54C5-4388-83C1-CB7B88B482E6";
paths = (
{
closed = 1;
nodes = (
"251 -10 OFFCURVE",
"264 0 OFFCURVE",
"328 0 CURVE SMOOTH",
"398 0 OFFCURVE",
"409 -10 OFFCURVE",
"439 -10 CURVE SMOOTH",
"459 -10 OFFCURVE",
"469 -2 OFFCURVE",
"469 10 CURVE SMOOTH",
"469 21 OFFCURVE",
"463 30 OFFCURVE",
"451 30 CURVE SMOOTH",
"450 30 OFFCURVE",
"450 30 OFFCURVE",
"449 30 CURVE SMOOTH",
"431 30 OFFCURVE",
"425 39 OFFCURVE",
"418 60 CURVE SMOOTH",
"409 87 OFFCURVE",
"409 116 OFFCURVE",
"409 140 CURVE SMOOTH",
"409 557 LINE SMOOTH",
"409 590 OFFCURVE",
"415 597 OFFCURVE",
"448 597 CURVE SMOOTH",
"470 597 LINE SMOOTH",
"513 597 OFFCURVE",
"542 595 OFFCURVE",
"561 579 CURVE SMOOTH",
"575 567 OFFCURVE",
"576 545 OFFCURVE",
"576 525 CURVE SMOOTH",
"576 497 OFFCURVE",
"582 485 OFFCURVE",
"601 485 CURVE SMOOTH",
"615 485 OFFCURVE",
"626 496 OFFCURVE",
"626 518 CURVE SMOOTH",
"626 588 OFFCURVE",
"637 636 OFFCURVE",
"637 656 CURVE SMOOTH",
"637 660 OFFCURVE",
"636 664 OFFCURVE",
"635 668 CURVE SMOOTH",
"633 674 OFFCURVE",
"627 678 OFFCURVE",
"616 678 CURVE SMOOTH",
"598 678 OFFCURVE",
"593 668 OFFCURVE",
"552 668 CURVE SMOOTH",
"389 668 LINE",
"319 668 LINE",
"269 668 LINE",
"105 668 LINE SMOOTH",
"64 668 OFFCURVE",
"59 678 OFFCURVE",
"41 678 CURVE SMOOTH",
"30 678 OFFCURVE",
"24 674 OFFCURVE",
"22 668 CURVE SMOOTH",
"21 664 OFFCURVE",
"20 660 OFFCURVE",
"20 656 CURVE SMOOTH",
"20 636 OFFCURVE",
"31 588 OFFCURVE",
"31 518 CURVE SMOOTH",
"31 496 OFFCURVE",
"42 485 OFFCURVE",
"56 485 CURVE SMOOTH",
"75 485 OFFCURVE",
"81 497 OFFCURVE",
"81 525 CURVE SMOOTH",
"81 545 OFFCURVE",
"82 566 OFFCURVE",
"96 578 CURVE SMOOTH",
"115 594 OFFCURVE",
"144 597 OFFCURVE",
"187 597 CURVE SMOOTH",
"209 597 LINE SMOOTH",
"242 597 OFFCURVE",
"248 590 OFFCURVE",
"248 557 CURVE SMOOTH",
"248 555 OFFCURVE",
"248 554 OFFCURVE",
"249 553 CURVE",
"249 130 LINE SMOOTH",
"249 90 OFFCURVE",
"245 59 OFFCURVE",
"229 40 CURVE SMOOTH",
"214 23 OFFCURVE",
"199 22 OFFCURVE",
"199 10 CURVE SMOOTH",
"199 -1 OFFCURVE",
"207 -10 OFFCURVE",
"229 -10 CURVE SMOOTH"
);
}
);
width = 657;
},
{
associatedMasterId = "9D9E1BAB-54C5-4388-83C1-CB7B88B482E6";
layerId = "B2EDABBF-0EC3-41A5-87A9-A2FF2072E8AF";
width = 600;
}
);
leftKerningGroup = T;
rightKerningGroup = T;
unicode = 0054;
},
{
color = 1;
glyphname = U;
lastChange = "2021-05-30 14:50:50 +0000";
layers = (
{
anchors = (
{
name = bottom;
position = "{398, -10}";
},
{
name = ogonek;
position = "{451, 0}";
},
{
name = top;
position = "{389, 668}";
},
{
name = topright;
position = "{697, 668}";
}
);
layerId = "083550D2-F2E8-44E3-BE3D-E8BDF41EDFC4";
paths = (
{
closed = 1;
nodes = (
"551 -10 OFFCURVE",
"641 82 OFFCURVE",
"641 250 CURVE SMOOTH",
"641 548 LINE SMOOTH",
"641 587 OFFCURVE",
"650 606 OFFCURVE",
"671 628 CURVE SMOOTH",
"684 642 OFFCURVE",
"697 652 OFFCURVE",
"697 663 CURVE SMOOTH",
"697 672 OFFCURVE",
"690 678 OFFCURVE",
"676 678 CURVE SMOOTH",
"652 678 OFFCURVE",
"636 668 OFFCURVE",
"610 668 CURVE SMOOTH",
"580 668 OFFCURVE",
"558 678 OFFCURVE",
"531 678 CURVE SMOOTH",
"509 678 OFFCURVE",
"501 668 OFFCURVE",
"501 658 CURVE SMOOTH",
"501 646 OFFCURVE",
"509 638 OFFCURVE",
"521 638 CURVE SMOOTH",
"543 638 OFFCURVE",
"558 629 OFFCURVE",
"571 558 CURVE SMOOTH",
"579 513 OFFCURVE",
"581 465 OFFCURVE",
"581 438 CURVE SMOOTH",
"581 250 LINE SMOOTH",
"581 124 OFFCURVE",
"532 40 OFFCURVE",
"405 40 CURVE SMOOTH",
"286 40 OFFCURVE",
"220 113 OFFCURVE",
"220 250 CURVE SMOOTH",
"220 548 LINE SMOOTH",
"220 577 OFFCURVE",
"225 603 OFFCURVE",
"240 618 CURVE SMOOTH",
"257 635 OFFCURVE",
"270 635 OFFCURVE",
"270 648 CURVE SMOOTH",
"270 660 OFFCURVE",
"259 668 OFFCURVE",
"240 668 CURVE SMOOTH",
"207 668 OFFCURVE",
"202 658 OFFCURVE",
"159 658 CURVE SMOOTH",
"118 658 OFFCURVE",
"98 668 OFFCURVE",
"70 668 CURVE SMOOTH",
"48 668 OFFCURVE",
"40 658 OFFCURVE",
"40 648 CURVE SMOOTH",
"40 637 OFFCURVE",
"47 628 OFFCURVE",
"58 628 CURVE SMOOTH",
"59 628 OFFCURVE",
"59 628 OFFCURVE",
"60 628 CURVE SMOOTH",
"75 629 OFFCURVE",
"84 621 OFFCURVE",
"90 608 CURVE SMOOTH",
"99 588 OFFCURVE",
"100 555 OFFCURVE",
"100 528 CURVE SMOOTH",
"100 250 LINE SMOOTH",
"100 94 OFFCURVE",
"189 -10 OFFCURVE",
"385 -10 CURVE SMOOTH"
);
}
);
width = 737;
},
{
associatedMasterId = "083550D2-F2E8-44E3-BE3D-E8BDF41EDFC4";
layerId = "0AAF2CB4-2EBD-42C4-BAB4-4CEC92C737FB";
width = 600;
},
{
anchors = (
{
name = bottom;
position = "{408, -10}";
},
{
name = ogonek;
position = "{461, 0}";
},
{
name = top;
position = "{399, 668}";
},
{
name = topright;
position = "{707, 668}";
}
);
layerId = "9D9E1BAB-54C5-4388-83C1-CB7B88B482E6";
paths = (
{
closed = 1;
nodes = (
"561 -10 OFFCURVE",
"661 82 OFFCURVE",
"661 250 CURVE SMOOTH",
"661 548 LINE SMOOTH",
"661 587 OFFCURVE",
"670 606 OFFCURVE",
"691 628 CURVE SMOOTH",
"704 642 OFFCURVE",
"717 652 OFFCURVE",
"717 663 CURVE SMOOTH",
"717 672 OFFCURVE",
"710 678 OFFCURVE",
"696 678 CURVE SMOOTH",
"672 678 OFFCURVE",
"656 668 OFFCURVE",
"620 668 CURVE SMOOTH",
"580 668 OFFCURVE",
"558 678 OFFCURVE",
"531 678 CURVE SMOOTH",
"509 678 OFFCURVE",
"501 668 OFFCURVE",
"501 658 CURVE SMOOTH",
"501 646 OFFCURVE",
"509 638 OFFCURVE",
"521 638 CURVE SMOOTH",
"543 638 OFFCURVE",
"558 629 OFFCURVE",
"571 558 CURVE SMOOTH",
"579 513 OFFCURVE",
"581 465 OFFCURVE",
"581 438 CURVE SMOOTH",
"581 250 LINE SMOOTH",
"581 134 OFFCURVE",
"532 60 OFFCURVE",
"415 60 CURVE SMOOTH",
"306 60 OFFCURVE",
"250 123 OFFCURVE",
"250 250 CURVE SMOOTH",
"250 548 LINE SMOOTH",
"250 577 OFFCURVE",
"255 603 OFFCURVE",
"270 618 CURVE SMOOTH",
"287 635 OFFCURVE",
"300 635 OFFCURVE",
"300 648 CURVE SMOOTH",
"300 660 OFFCURVE",
"289 668 OFFCURVE",
"270 668 CURVE SMOOTH",
"237 668 OFFCURVE",
"232 658 OFFCURVE",
"169 658 CURVE SMOOTH",
"108 658 OFFCURVE",
"88 668 OFFCURVE",
"60 668 CURVE SMOOTH",
"38 668 OFFCURVE",
"30 658 OFFCURVE",
"30 648 CURVE SMOOTH",
"30 637 OFFCURVE",
"37 628 OFFCURVE",
"48 628 CURVE SMOOTH",
"49 628 OFFCURVE",
"49 628 OFFCURVE",
"50 628 CURVE SMOOTH",
"65 628 OFFCURVE",
"74 621 OFFCURVE",
"80 608 CURVE SMOOTH",
"89 588 OFFCURVE",
"90 555 OFFCURVE",
"90 528 CURVE SMOOTH",
"90 250 LINE SMOOTH",
"90 94 OFFCURVE",
"199 -10 OFFCURVE",
"395 -10 CURVE SMOOTH"
);
}
);
width = 747;
},
{
associatedMasterId = "9D9E1BAB-54C5-4388-83C1-CB7B88B482E6";
layerId = "989FC8A2-454B-4651-9FFD-117531803C21";
width = 600;
}
);
leftKerningGroup = U;
leftMetricsKey = H;
rightKerningGroup = U;
rightMetricsKey = H;
unicode = 0055;
},
{
color = 1;
glyphname = V;
lastChange = "2021-05-29 16:39:46 +0000";
layers = (
{
layerId = "083550D2-F2E8-44E3-BE3D-E8BDF41EDFC4";
paths = (
{
closed = 1;
nodes = (
"371 -10 OFFCURVE",
"382 0 OFFCURVE",
"393 21 CURVE SMOOTH",
"449 127 OFFCURVE",
"559 410 OFFCURVE",
"607 526 CURVE SMOOTH",
"622 563 OFFCURVE",
"627 576 OFFCURVE",
"641 596 CURVE SMOOTH",
"652 612 OFFCURVE",
"663 619 OFFCURVE",
"678 629 CURVE SMOOTH",
"690 637 OFFCURVE",
"698 644 OFFCURVE",
"698 659 CURVE SMOOTH",
"698 671 OFFCURVE",
"689 679 OFFCURVE",
"668 679 CURVE SMOOTH",
"644 679 OFFCURVE",
"631 669 OFFCURVE",
"597 669 CURVE SMOOTH",
"559 669 OFFCURVE",
"552 679 OFFCURVE",
"524 679 CURVE SMOOTH",
"507 679 OFFCURVE",
"499 670 OFFCURVE",
"499 659 CURVE SMOOTH",
"499 645 OFFCURVE",
"512 635 OFFCURVE",
"529 629 CURVE SMOOTH",
"546 622 OFFCURVE",
"553 610 OFFCURVE",
"553 589 CURVE SMOOTH",
"553 566 OFFCURVE",
"544 534 OFFCURVE",
"529 489 CURVE SMOOTH",
"494 386 OFFCURVE",
"444 253 OFFCURVE",
"401 161 CURVE SMOOTH",
"398 155 OFFCURVE",
"395 152 OFFCURVE",
"391 152 CURVE SMOOTH",
"388 152 OFFCURVE",
"384 155 OFFCURVE",
"381 161 CURVE SMOOTH",
"343 240 OFFCURVE",
"266 427 OFFCURVE",
"232 559 CURVE SMOOTH",
"228 574 OFFCURVE",
"226 587 OFFCURVE",
"226 597 CURVE SMOOTH",
"226 612 OFFCURVE",
"230 623 OFFCURVE",
"242 629 CURVE SMOOTH",
"261 639 OFFCURVE",
"272 646 OFFCURVE",
"272 659 CURVE SMOOTH",
"272 671 OFFCURVE",
"261 679 OFFCURVE",
"242 679 CURVE SMOOTH",
"209 679 OFFCURVE",
"201 669 OFFCURVE",
"158 669 CURVE SMOOTH",
"117 669 OFFCURVE",
"89 679 OFFCURVE",
"40 679 CURVE SMOOTH",
"18 679 OFFCURVE",
"10 669 OFFCURVE",
"10 659 CURVE SMOOTH",
"10 647 OFFCURVE",
"18 639 OFFCURVE",
"30 639 CURVE SMOOTH",
"51 639 OFFCURVE",
"64 632 OFFCURVE",
"74 618 CURVE SMOOTH",
"86 601 OFFCURVE",
"90 590 OFFCURVE",
"109 539 CURVE SMOOTH",
"168 379 OFFCURVE",
"282 96 OFFCURVE",
"324 21 CURVE SMOOTH",
"336 -1 OFFCURVE",
"347 -10 OFFCURVE",
"359 -10 CURVE SMOOTH"
);
}
);
width = 708;
},
{
associatedMasterId = "083550D2-F2E8-44E3-BE3D-E8BDF41EDFC4";
layerId = "0AAF2CB4-2EBD-42C4-BAB4-4CEC92C737FB";
width = 600;
},
{
layerId = "9D9E1BAB-54C5-4388-83C1-CB7B88B482E6";
paths = (
{
closed = 1;
nodes = (
"391 -10 OFFCURVE",
"401 1 OFFCURVE",
"413 21 CURVE SMOOTH",
"477 127 OFFCURVE",
"600 410 OFFCURVE",
"647 526 CURVE SMOOTH",
"662 563 OFFCURVE",
"667 576 OFFCURVE",
"681 596 CURVE SMOOTH",
"692 612 OFFCURVE",
"703 619 OFFCURVE",
"718 629 CURVE SMOOTH",
"730 637 OFFCURVE",
"738 644 OFFCURVE",
"738 659 CURVE SMOOTH",
"738 671 OFFCURVE",
"729 679 OFFCURVE",
"708 679 CURVE SMOOTH",
"684 679 OFFCURVE",
"671 669 OFFCURVE",
"637 669 CURVE SMOOTH",
"579 669 OFFCURVE",
"572 679 OFFCURVE",
"544 679 CURVE SMOOTH",
"527 679 OFFCURVE",
"519 670 OFFCURVE",
"519 659 CURVE SMOOTH",
"519 645 OFFCURVE",
"532 635 OFFCURVE",
"549 629 CURVE SMOOTH",
"566 623 OFFCURVE",
"573 610 OFFCURVE",
"573 589 CURVE SMOOTH",
"573 566 OFFCURVE",
"564 534 OFFCURVE",
"549 489 CURVE SMOOTH",
"515 386 OFFCURVE",
"476 282 OFFCURVE",
"431 191 CURVE SMOOTH",
"428 185 OFFCURVE",
"425 182 OFFCURVE",
"421 182 CURVE SMOOTH",
"418 182 OFFCURVE",
"414 185 OFFCURVE",
"411 191 CURVE SMOOTH",
"372 269 OFFCURVE",
"307 427 OFFCURVE",
"272 559 CURVE SMOOTH",
"268 574 OFFCURVE",
"266 587 OFFCURVE",
"266 597 CURVE SMOOTH",
"266 612 OFFCURVE",
"270 623 OFFCURVE",
"282 629 CURVE SMOOTH",
"301 639 OFFCURVE",
"312 646 OFFCURVE",
"312 659 CURVE SMOOTH",
"312 671 OFFCURVE",
"301 679 OFFCURVE",
"282 679 CURVE SMOOTH",
"249 679 OFFCURVE",
"241 669 OFFCURVE",
"178 669 CURVE SMOOTH",
"117 669 OFFCURVE",
"89 679 OFFCURVE",
"40 679 CURVE SMOOTH",
"18 679 OFFCURVE",
"10 669 OFFCURVE",
"10 659 CURVE SMOOTH",
"10 647 OFFCURVE",
"18 639 OFFCURVE",
"30 639 CURVE SMOOTH",
"51 639 OFFCURVE",
"64 632 OFFCURVE",
"74 618 CURVE SMOOTH",
"86 601 OFFCURVE",
"90 590 OFFCURVE",
"109 539 CURVE SMOOTH",
"169 379 OFFCURVE",
"302 96 OFFCURVE",
"344 21 CURVE SMOOTH",
"356 -1 OFFCURVE",
"367 -10 OFFCURVE",
"379 -10 CURVE SMOOTH"
);
}
);
width = 748;
},
{
associatedMasterId = "9D9E1BAB-54C5-4388-83C1-CB7B88B482E6";
layerId = "D1764E9E-F5BE-4B0F-A1D1-0E33BB2F0DC1";
width = 600;
}
);
leftKerningGroup = V;
rightKerningGroup = V;
unicode = 0056;
},
{
color = 1;
glyphname = W;
lastChange = "2021-05-29 16:39:46 +0000";
layers = (
{
anchors = (
{
name = bottom;
position = "{582, 0}";
},
{
name = top;
position = "{558, 710}";
}
);
layerId = "083550D2-F2E8-44E3-BE3D-E8BDF41EDFC4";
paths = (
{
closed = 1;
nodes = (
"371 -10 OFFCURVE",
"382 0 OFFCURVE",
"393 21 CURVE SMOOTH",
"432 95 OFFCURVE",
"497 255 OFFCURVE",
"549 384 CURVE SMOOTH",
"555 397 OFFCURVE",
"560 404 OFFCURVE",
"565 404 CURVE SMOOTH",
"570 404 OFFCURVE",
"575 398 OFFCURVE",
"579 387 CURVE",
"579 386 OFFCURVE",
"580 386 OFFCURVE",
"580 385 CURVE",
"637 239 OFFCURVE",
"706 75 OFFCURVE",
"736 21 CURVE SMOOTH",
"748 -1 OFFCURVE",
"759 -10 OFFCURVE",
"771 -10 CURVE SMOOTH",
"783 -10 OFFCURVE",
"794 0 OFFCURVE",
"805 21 CURVE SMOOTH",
"861 127 OFFCURVE",
"971 410 OFFCURVE",
"1019 526 CURVE SMOOTH",
"1034 563 OFFCURVE",
"1039 576 OFFCURVE",
"1053 596 CURVE SMOOTH",
"1064 612 OFFCURVE",
"1075 619 OFFCURVE",
"1090 629 CURVE SMOOTH",
"1102 637 OFFCURVE",
"1110 644 OFFCURVE",
"1110 659 CURVE SMOOTH",
"1110 671 OFFCURVE",
"1101 679 OFFCURVE",
"1080 679 CURVE SMOOTH",
"1056 679 OFFCURVE",
"1043 669 OFFCURVE",
"1009 669 CURVE SMOOTH",
"971 669 OFFCURVE",
"964 679 OFFCURVE",
"936 679 CURVE SMOOTH",
"919 679 OFFCURVE",
"911 670 OFFCURVE",
"911 659 CURVE SMOOTH",
"911 645 OFFCURVE",
"924 635 OFFCURVE",
"941 629 CURVE SMOOTH",
"958 622 OFFCURVE",
"965 610 OFFCURVE",
"965 589 CURVE SMOOTH",
"965 566 OFFCURVE",
"956 534 OFFCURVE",
"941 489 CURVE SMOOTH",
"906 386 OFFCURVE",
"856 253 OFFCURVE",
"813 161 CURVE SMOOTH",
"810 155 OFFCURVE",
"807 152 OFFCURVE",
"803 152 CURVE SMOOTH",
"800 152 OFFCURVE",
"796 155 OFFCURVE",
"793 161 CURVE SMOOTH",
"755 240 OFFCURVE",
"678 427 OFFCURVE",
"644 559 CURVE SMOOTH",
"640 574 OFFCURVE",
"638 587 OFFCURVE",
"638 597 CURVE SMOOTH",
"638 612 OFFCURVE",
"642 623 OFFCURVE",
"654 629 CURVE SMOOTH",
"673 639 OFFCURVE",
"684 646 OFFCURVE",
"684 659 CURVE SMOOTH",
"684 671 OFFCURVE",
"673 679 OFFCURVE",
"654 679 CURVE SMOOTH",
"621 679 OFFCURVE",
"613 669 OFFCURVE",
"570 669 CURVE SMOOTH",
"529 669 OFFCURVE",
"501 679 OFFCURVE",
"452 679 CURVE SMOOTH",
"430 679 OFFCURVE",
"422 669 OFFCURVE",
"422 659 CURVE SMOOTH",
"422 647 OFFCURVE",
"430 639 OFFCURVE",
"442 639 CURVE SMOOTH",
"463 639 OFFCURVE",
"476 632 OFFCURVE",
"486 618 CURVE SMOOTH",
"498 601 OFFCURVE",
"502 590 OFFCURVE",
"521 539 CURVE SMOOTH",
"526 526 OFFCURVE",
"528 516 OFFCURVE",
"528 505 CURVE SMOOTH",
"528 496 OFFCURVE",
"526 486 OFFCURVE",
"522 475 CURVE SMOOTH",
"486 372 OFFCURVE",
"444 253 OFFCURVE",
"401 161 CURVE SMOOTH",
"398 155 OFFCURVE",
"395 152 OFFCURVE",
"391 152 CURVE SMOOTH",
"388 152 OFFCURVE",
"384 155 OFFCURVE",
"381 161 CURVE SMOOTH",
"343 240 OFFCURVE",
"266 427 OFFCURVE",
"232 559 CURVE SMOOTH",
"228 574 OFFCURVE",
"226 587 OFFCURVE",
"226 597 CURVE SMOOTH",
"226 612 OFFCURVE",
"230 623 OFFCURVE",
"242 629 CURVE SMOOTH",
"261 639 OFFCURVE",
"272 646 OFFCURVE",
"272 659 CURVE SMOOTH",
"272 671 OFFCURVE",
"261 679 OFFCURVE",
"242 679 CURVE SMOOTH",
"209 679 OFFCURVE",
"201 669 OFFCURVE",
"158 669 CURVE SMOOTH",
"117 669 OFFCURVE",
"89 679 OFFCURVE",
"40 679 CURVE SMOOTH",
"18 679 OFFCURVE",
"10 669 OFFCURVE",
"10 659 CURVE SMOOTH",
"10 647 OFFCURVE",
"18 639 OFFCURVE",
"30 639 CURVE SMOOTH",
"51 639 OFFCURVE",
"64 632 OFFCURVE",
"74 618 CURVE SMOOTH",
"86 601 OFFCURVE",
"90 590 OFFCURVE",
"109 539 CURVE SMOOTH",
"168 379 OFFCURVE",
"282 96 OFFCURVE",
"324 21 CURVE SMOOTH",
"336 -1 OFFCURVE",
"347 -10 OFFCURVE",
"359 -10 CURVE SMOOTH"
);
}
);
width = 1120;
},
{
associatedMasterId = "083550D2-F2E8-44E3-BE3D-E8BDF41EDFC4";
layerId = "0AAF2CB4-2EBD-42C4-BAB4-4CEC92C737FB";
width = 600;
},
{
anchors = (
{
name = bottom;
position = "{602, 0}";
},
{
name = top;
position = "{578, 710}";
}
);
layerId = "9D9E1BAB-54C5-4388-83C1-CB7B88B482E6";
paths = (
{
closed = 1;
nodes = (
"391 -10 OFFCURVE",
"401 0 OFFCURVE",
"413 21 CURVE SMOOTH",
"455 95 OFFCURVE",
"521 251 OFFCURVE",
"569 384 CURVE SMOOTH",
"574 397 OFFCURVE",
"580 404 OFFCURVE",
"585 404 CURVE SMOOTH",
"590 404 OFFCURVE",
"595 398 OFFCURVE",
"599 387 CURVE",
"599 386 OFFCURVE",
"600 386 OFFCURVE",
"600 385 CURVE",
"657 239 OFFCURVE",
"726 75 OFFCURVE",
"756 21 CURVE SMOOTH",
"768 -1 OFFCURVE",
"779 -10 OFFCURVE",
"791 -10 CURVE SMOOTH",
"803 -10 OFFCURVE",
"813 0 OFFCURVE",
"825 21 CURVE SMOOTH",
"887 127 OFFCURVE",
"1012 410 OFFCURVE",
"1059 526 CURVE SMOOTH",
"1074 563 OFFCURVE",
"1079 576 OFFCURVE",
"1093 596 CURVE SMOOTH",
"1104 612 OFFCURVE",
"1115 619 OFFCURVE",
"1130 629 CURVE SMOOTH",
"1142 637 OFFCURVE",
"1150 644 OFFCURVE",
"1150 659 CURVE SMOOTH",
"1150 671 OFFCURVE",
"1141 679 OFFCURVE",
"1120 679 CURVE SMOOTH",
"1096 679 OFFCURVE",
"1083 669 OFFCURVE",
"1029 669 CURVE SMOOTH",
"991 669 OFFCURVE",
"984 679 OFFCURVE",
"956 679 CURVE SMOOTH",
"939 679 OFFCURVE",
"931 670 OFFCURVE",
"931 659 CURVE SMOOTH",
"931 645 OFFCURVE",
"944 635 OFFCURVE",
"961 629 CURVE SMOOTH",
"978 622 OFFCURVE",
"985 610 OFFCURVE",
"985 589 CURVE SMOOTH",
"985 566 OFFCURVE",
"976 534 OFFCURVE",
"961 489 CURVE SMOOTH",
"926 386 OFFCURVE",
"878 292 OFFCURVE",
"833 201 CURVE SMOOTH",
"830 195 OFFCURVE",
"827 192 OFFCURVE",
"823 192 CURVE SMOOTH",
"820 192 OFFCURVE",
"816 195 OFFCURVE",
"813 201 CURVE SMOOTH",
"774 279 OFFCURVE",
"719 427 OFFCURVE",
"684 559 CURVE SMOOTH",
"680 574 OFFCURVE",
"678 587 OFFCURVE",
"678 597 CURVE SMOOTH",
"678 612 OFFCURVE",
"682 623 OFFCURVE",
"694 629 CURVE SMOOTH",
"713 639 OFFCURVE",
"724 646 OFFCURVE",
"724 659 CURVE SMOOTH",
"724 671 OFFCURVE",
"713 679 OFFCURVE",
"694 679 CURVE SMOOTH",
"661 679 OFFCURVE",
"653 669 OFFCURVE",
"590 669 CURVE SMOOTH",
"529 669 OFFCURVE",
"501 679 OFFCURVE",
"452 679 CURVE SMOOTH",
"430 679 OFFCURVE",
"422 669 OFFCURVE",
"422 659 CURVE SMOOTH",
"422 647 OFFCURVE",
"430 639 OFFCURVE",
"442 639 CURVE SMOOTH",
"463 639 OFFCURVE",
"476 632 OFFCURVE",
"486 618 CURVE SMOOTH",
"498 601 OFFCURVE",
"501 590 OFFCURVE",
"521 539 CURVE SMOOTH",
"526 526 OFFCURVE",
"528 516 OFFCURVE",
"528 505 CURVE SMOOTH",
"528 496 OFFCURVE",
"526 486 OFFCURVE",
"522 475 CURVE SMOOTH",
"485 372 OFFCURVE",
"466 292 OFFCURVE",
"421 201 CURVE SMOOTH",
"418 195 OFFCURVE",
"415 192 OFFCURVE",
"411 192 CURVE SMOOTH",
"408 192 OFFCURVE",
"404 195 OFFCURVE",
"401 201 CURVE SMOOTH",
"362 279 OFFCURVE",
"307 427 OFFCURVE",
"272 559 CURVE SMOOTH",
"268 574 OFFCURVE",
"266 587 OFFCURVE",
"266 597 CURVE SMOOTH",
"266 612 OFFCURVE",
"270 623 OFFCURVE",
"282 629 CURVE SMOOTH",
"301 639 OFFCURVE",
"312 646 OFFCURVE",
"312 659 CURVE SMOOTH",
"312 671 OFFCURVE",
"301 679 OFFCURVE",
"282 679 CURVE SMOOTH",
"249 679 OFFCURVE",
"241 669 OFFCURVE",
"178 669 CURVE SMOOTH",
"117 669 OFFCURVE",
"89 679 OFFCURVE",
"40 679 CURVE SMOOTH",
"18 679 OFFCURVE",
"10 669 OFFCURVE",
"10 659 CURVE SMOOTH",
"10 647 OFFCURVE",
"18 639 OFFCURVE",
"30 639 CURVE SMOOTH",
"51 639 OFFCURVE",
"64 632 OFFCURVE",
"74 618 CURVE SMOOTH",
"86 601 OFFCURVE",
"90 590 OFFCURVE",
"109 539 CURVE SMOOTH",
"169 379 OFFCURVE",
"302 96 OFFCURVE",
"344 21 CURVE SMOOTH",
"356 -1 OFFCURVE",
"367 -10 OFFCURVE",
"379 -10 CURVE SMOOTH"
);
}
);
width = 1160;
},
{
associatedMasterId = "9D9E1BAB-54C5-4388-83C1-CB7B88B482E6";
layerId = "F49D085E-4973-4807-AB78-58FE226A6FDB";
width = 600;
}
);
leftKerningGroup = W;
leftMetricsKey = V;
rightKerningGroup = W;
rightMetricsKey = V;
unicode = 0057;
},
{
color = 1;
glyphname = X;
lastChange = "2021-08-11 11:22:11 +0000";
layers = (
{
layerId = "083550D2-F2E8-44E3-BE3D-E8BDF41EDFC4";
paths = (
{
closed = 1;
nodes = (
"74 -10 OFFCURVE",
"93 0 OFFCURVE",
"131 0 CURVE SMOOTH",
"169 0 OFFCURVE",
"176 -10 OFFCURVE",
"204 -10 CURVE SMOOTH",
"221 -10 OFFCURVE",
"229 -1 OFFCURVE",
"229 10 CURVE SMOOTH",
"229 24 OFFCURVE",
"219 30 OFFCURVE",
"204 40 CURVE SMOOTH",
"195 46 OFFCURVE",
"191 52 OFFCURVE",
"191 61 CURVE SMOOTH",
"191 73 OFFCURVE",
"200 92 OFFCURVE",
"216 126 CURVE SMOOTH",
"244 185 OFFCURVE",
"278 240 OFFCURVE",
"308 281 CURVE SMOOTH",
"312 286 OFFCURVE",
"316 289 OFFCURVE",
"320 289 CURVE SMOOTH",
"325 289 OFFCURVE",
"329 286 OFFCURVE",
"332 281 CURVE SMOOTH",
"368 229 OFFCURVE",
"397 186 OFFCURVE",
"426 130 CURVE SMOOTH",
"447 90 OFFCURVE",
"460 68 OFFCURVE",
"460 52 CURVE SMOOTH",
"460 48 OFFCURVE",
"459 44 OFFCURVE",
"456 40 CURVE SMOOTH",
"446 25 OFFCURVE",
"436 22 OFFCURVE",
"436 10 CURVE SMOOTH",
"436 -1 OFFCURVE",
"444 -10 OFFCURVE",
"466 -10 CURVE SMOOTH",
"488 -10 OFFCURVE",
"524 0 OFFCURVE",
"568 0 CURVE SMOOTH",
"618 0 OFFCURVE",
"669 -10 OFFCURVE",
"699 -10 CURVE SMOOTH",
"719 -10 OFFCURVE",
"729 -2 OFFCURVE",
"729 10 CURVE SMOOTH",
"729 22 OFFCURVE",
"722 30 OFFCURVE",
"709 30 CURVE SMOOTH",
"688 30 OFFCURVE",
"665 42 OFFCURVE",
"643 58 CURVE SMOOTH",
"619 76 OFFCURVE",
"596 95 OFFCURVE",
"569 140 CURVE SMOOTH",
"531 203 OFFCURVE",
"473 290 OFFCURVE",
"425 356 CURVE SMOOTH",
"422 361 OFFCURVE",
"420 366 OFFCURVE",
"420 371 CURVE SMOOTH",
"420 376 OFFCURVE",
"422 381 OFFCURVE",
"425 386 CURVE SMOOTH",
"461 435 OFFCURVE",
"484 477 OFFCURVE",
"518 528 CURVE SMOOTH",
"539 561 OFFCURVE",
"562 582 OFFCURVE",
"582 596 CURVE SMOOTH",
"604 612 OFFCURVE",
"627 619 OFFCURVE",
"643 628 CURVE SMOOTH",
"656 635 OFFCURVE",
"667 643 OFFCURVE",
"667 658 CURVE SMOOTH",
"667 670 OFFCURVE",
"658 678 OFFCURVE",
"637 678 CURVE SMOOTH",
"603 678 OFFCURVE",
"584 668 OFFCURVE",
"546 668 CURVE SMOOTH",
"508 668 OFFCURVE",
"491 678 OFFCURVE",
"463 678 CURVE SMOOTH",
"446 678 OFFCURVE",
"438 669 OFFCURVE",
"438 658 CURVE SMOOTH",
"438 644 OFFCURVE",
"450 637 OFFCURVE",
"468 628 CURVE SMOOTH",
"477 623 OFFCURVE",
"482 616 OFFCURVE",
"482 605 CURVE SMOOTH",
"482 590 OFFCURVE",
"474 568 OFFCURVE",
"458 538 CURVE SMOOTH",
"435 494 OFFCURVE",
"418 465 OFFCURVE",
"394 436 CURVE SMOOTH",
"389 431 OFFCURVE",
"385 428 OFFCURVE",
"382 428 CURVE SMOOTH",
"378 428 OFFCURVE",
"375 431 OFFCURVE",
"370 436 CURVE SMOOTH",
"337 479 OFFCURVE",
"315 515 OFFCURVE",
"294 556 CURVE SMOOTH",
"282 581 OFFCURVE",
"275 596 OFFCURVE",
"275 608 CURVE SMOOTH",
"275 616 OFFCURVE",
"278 622 OFFCURVE",
"283 628 CURVE SMOOTH",
"294 640 OFFCURVE",
"303 645 OFFCURVE",
"303 658 CURVE SMOOTH",
"303 670 OFFCURVE",
"292 678 OFFCURVE",
"273 678 CURVE SMOOTH",
"240 678 OFFCURVE",
"227 668 OFFCURVE",
"169 668 CURVE SMOOTH",
"132 668 OFFCURVE",
"93 678 OFFCURVE",
"61 678 CURVE SMOOTH",
"39 678 OFFCURVE",
"31 668 OFFCURVE",
"31 658 CURVE SMOOTH",
"31 646 OFFCURVE",
"39 638 OFFCURVE",
"51 638 CURVE SMOOTH",
"72 638 OFFCURVE",
"82 633 OFFCURVE",
"96 621 CURVE SMOOTH",
"115 605 OFFCURVE",
"124 594 OFFCURVE",
"157 538 CURVE SMOOTH",
"198 468 OFFCURVE",
"236 407 OFFCURVE",
"272 354 CURVE SMOOTH",
"275 349 OFFCURVE",
"276 345 OFFCURVE",
"276 341 CURVE SMOOTH",
"276 337 OFFCURVE",
"275 333 OFFCURVE",
"272 328 CURVE SMOOTH",
"232 267 OFFCURVE",
"195 206 OFFCURVE",
"158 143 CURVE SMOOTH",
"138 109 OFFCURVE",
"115 86 OFFCURVE",
"95 72 CURVE SMOOTH",
"73 56 OFFCURVE",
"46 49 OFFCURVE",
"30 40 CURVE SMOOTH",
"17 33 OFFCURVE",
"10 25 OFFCURVE",
"10 10 CURVE SMOOTH",
"10 -2 OFFCURVE",
"19 -10 OFFCURVE",
"40 -10 CURVE SMOOTH"
);
}
);
width = 739;
},
{
associatedMasterId = "083550D2-F2E8-44E3-BE3D-E8BDF41EDFC4";
layerId = "0AAF2CB4-2EBD-42C4-BAB4-4CEC92C737FB";
width = 600;
},
{
layerId = "9D9E1BAB-54C5-4388-83C1-CB7B88B482E6";
paths = (
{
closed = 1;
nodes = (
"74 -10 OFFCURVE",
"93 0 OFFCURVE",
"151 0 CURVE SMOOTH",
"189 0 OFFCURVE",
"196 -10 OFFCURVE",
"224 -10 CURVE SMOOTH",
"241 -10 OFFCURVE",
"249 -1 OFFCURVE",
"249 10 CURVE SMOOTH",
"249 24 OFFCURVE",
"239 30 OFFCURVE",
"224 40 CURVE SMOOTH",
"215 46 OFFCURVE",
"211 52 OFFCURVE",
"211 61 CURVE SMOOTH",
"211 73 OFFCURVE",
"220 92 OFFCURVE",
"236 126 CURVE SMOOTH",
"264 185 OFFCURVE",
"289 221 OFFCURVE",
"318 261 CURVE SMOOTH",
"322 266 OFFCURVE",
"326 269 OFFCURVE",
"330 269 CURVE SMOOTH",
"335 269 OFFCURVE",
"338 266 OFFCURVE",
"342 261 CURVE SMOOTH",
"373 219 OFFCURVE",
"397 186 OFFCURVE",
"426 130 CURVE SMOOTH",
"447 90 OFFCURVE",
"460 68 OFFCURVE",
"460 52 CURVE SMOOTH",
"460 48 OFFCURVE",
"459 44 OFFCURVE",
"456 40 CURVE SMOOTH",
"445 26 OFFCURVE",
"436 22 OFFCURVE",
"436 10 CURVE SMOOTH",
"436 -1 OFFCURVE",
"444 -10 OFFCURVE",
"466 -10 CURVE SMOOTH",
"488 -10 OFFCURVE",
"524 0 OFFCURVE",
"588 0 CURVE SMOOTH",
"658 0 OFFCURVE",
"709 -10 OFFCURVE",
"739 -10 CURVE SMOOTH",
"759 -10 OFFCURVE",
"769 -2 OFFCURVE",
"769 10 CURVE SMOOTH",
"769 22 OFFCURVE",
"762 30 OFFCURVE",
"749 30 CURVE SMOOTH",
"728 30 OFFCURVE",
"705 42 OFFCURVE",
"683 58 CURVE SMOOTH",
"659 76 OFFCURVE",
"636 95 OFFCURVE",
"609 140 CURVE SMOOTH",
"571 203 OFFCURVE",
"507 286 OFFCURVE",
"465 356 CURVE SMOOTH",
"462 361 OFFCURVE",
"460 366 OFFCURVE",
"460 371 CURVE SMOOTH",
"460 376 OFFCURVE",
"462 381 OFFCURVE",
"465 386 CURVE SMOOTH",
"496 438 OFFCURVE",
"524 477 OFFCURVE",
"558 528 CURVE SMOOTH",
"580 561 OFFCURVE",
"602 582 OFFCURVE",
"622 596 CURVE SMOOTH",
"644 612 OFFCURVE",
"667 619 OFFCURVE",
"683 628 CURVE SMOOTH",
"696 635 OFFCURVE",
"707 643 OFFCURVE",
"707 658 CURVE SMOOTH",
"707 670 OFFCURVE",
"698 678 OFFCURVE",
"677 678 CURVE SMOOTH",
"643 678 OFFCURVE",
"624 668 OFFCURVE",
"566 668 CURVE SMOOTH",
"528 668 OFFCURVE",
"511 678 OFFCURVE",
"483 678 CURVE SMOOTH",
"466 678 OFFCURVE",
"458 669 OFFCURVE",
"458 658 CURVE SMOOTH",
"458 644 OFFCURVE",
"470 637 OFFCURVE",
"488 628 CURVE SMOOTH",
"497 623 OFFCURVE",
"502 616 OFFCURVE",
"502 605 CURVE SMOOTH",
"502 590 OFFCURVE",
"494 568 OFFCURVE",
"478 538 CURVE SMOOTH",
"455 494 OFFCURVE",
"442 477 OFFCURVE",
"424 456 CURVE SMOOTH",
"419 451 OFFCURVE",
"415 448 OFFCURVE",
"412 448 CURVE SMOOTH",
"408 448 OFFCURVE",
"405 450 OFFCURVE",
"400 456 CURVE SMOOTH",
"375 484 OFFCURVE",
"355 515 OFFCURVE",
"334 556 CURVE SMOOTH",
"321 581 OFFCURVE",
"315 596 OFFCURVE",
"315 608 CURVE SMOOTH",
"315 616 OFFCURVE",
"318 622 OFFCURVE",
"323 628 CURVE SMOOTH",
"333 641 OFFCURVE",
"343 645 OFFCURVE",
"343 658 CURVE SMOOTH",
"343 670 OFFCURVE",
"332 678 OFFCURVE",
"313 678 CURVE SMOOTH",
"280 678 OFFCURVE",
"267 668 OFFCURVE",
"189 668 CURVE SMOOTH",
"132 668 OFFCURVE",
"93 678 OFFCURVE",
"61 678 CURVE SMOOTH",
"39 678 OFFCURVE",
"31 668 OFFCURVE",
"31 658 CURVE SMOOTH",
"31 646 OFFCURVE",
"39 638 OFFCURVE",
"51 638 CURVE SMOOTH",
"72 638 OFFCURVE",
"82 633 OFFCURVE",
"96 621 CURVE SMOOTH",
"115 605 OFFCURVE",
"124 594 OFFCURVE",
"157 538 CURVE SMOOTH",
"198 468 OFFCURVE",
"239 409 OFFCURVE",
"272 354 CURVE SMOOTH",
"275 349 OFFCURVE",
"276 345 OFFCURVE",
"276 341 CURVE SMOOTH",
"276 337 OFFCURVE",
"275 333 OFFCURVE",
"272 328 CURVE SMOOTH",
"234 265 OFFCURVE",
"195 206 OFFCURVE",
"158 143 CURVE SMOOTH",
"138 109 OFFCURVE",
"115 86 OFFCURVE",
"95 72 CURVE SMOOTH",
"73 56 OFFCURVE",
"46 49 OFFCURVE",
"30 40 CURVE SMOOTH",
"17 33 OFFCURVE",
"10 25 OFFCURVE",
"10 10 CURVE SMOOTH",
"10 -2 OFFCURVE",
"19 -10 OFFCURVE",
"40 -10 CURVE SMOOTH"
);
}
);
width = 779;
},
{
associatedMasterId = "9D9E1BAB-54C5-4388-83C1-CB7B88B482E6";
layerId = "7B41EC9F-F1A7-4960-BD57-FE63D2F8877D";
width = 600;
}
);
leftKerningGroup = X;
leftMetricsKey = V;
rightKerningGroup = X;
rightMetricsKey = V;
unicode = 0058;
},
{
color = 1;
glyphname = Y;
lastChange = "2021-08-11 11:22:11 +0000";
layers = (
{
anchors = (
{
name = bottom;
position = "{332, 0}";
},
{
name = top;
position = "{341, 668}";
},
{
name = topleft;
position = "{50, 600}";
}
);
layerId = "083550D2-F2E8-44E3-BE3D-E8BDF41EDFC4";
paths = (
{
closed = 1;
nodes = (
"271 -10 OFFCURVE",
"284 0 OFFCURVE",
"328 0 CURVE SMOOTH",
"378 0 OFFCURVE",
"389 -10 OFFCURVE",
"419 -10 CURVE SMOOTH",
"439 -10 OFFCURVE",
"449 -2 OFFCURVE",
"449 10 CURVE SMOOTH",
"449 21 OFFCURVE",
"443 30 OFFCURVE",
"431 30 CURVE SMOOTH",
"430 30 OFFCURVE",
"430 30 OFFCURVE",
"429 30 CURVE SMOOTH",
"411 29 OFFCURVE",
"405 39 OFFCURVE",
"398 60 CURVE SMOOTH",
"391 88 OFFCURVE",
"389 116 OFFCURVE",
"389 140 CURVE SMOOTH",
"389 320 LINE SMOOTH",
"389 339 OFFCURVE",
"399 360 OFFCURVE",
"404 369 CURVE SMOOTH",
"431 417 OFFCURVE",
"473 487 OFFCURVE",
"504 529 CURVE SMOOTH",
"530 565 OFFCURVE",
"548 584 OFFCURVE",
"572 601 CURVE SMOOTH",
"594 617 OFFCURVE",
"606 619 OFFCURVE",
"622 628 CURVE SMOOTH",
"635 635 OFFCURVE",
"646 643 OFFCURVE",
"646 658 CURVE SMOOTH",
"646 670 OFFCURVE",
"637 678 OFFCURVE",
"616 678 CURVE SMOOTH",
"582 678 OFFCURVE",
"563 668 OFFCURVE",
"525 668 CURVE SMOOTH",
"487 668 OFFCURVE",
"470 678 OFFCURVE",
"442 678 CURVE SMOOTH",
"425 678 OFFCURVE",
"417 669 OFFCURVE",
"417 658 CURVE SMOOTH",
"417 644 OFFCURVE",
"431 635 OFFCURVE",
"447 628 CURVE SMOOTH",
"460 622 OFFCURVE",
"466 615 OFFCURVE",
"466 603 CURVE SMOOTH",
"466 589 OFFCURVE",
"458 569 OFFCURVE",
"442 538 CURVE SMOOTH",
"421 497 OFFCURVE",
"406 476 OFFCURVE",
"374 431 CURVE SMOOTH",
"370 426 OFFCURVE",
"367 423 OFFCURVE",
"364 423 CURVE SMOOTH",
"361 423 OFFCURVE",
"358 426 OFFCURVE",
"353 431 CURVE SMOOTH",
"328 464 OFFCURVE",
"293 517 OFFCURVE",
"272 558 CURVE SMOOTH",
"260 582 OFFCURVE",
"253 598 OFFCURVE",
"253 609 CURVE SMOOTH",
"253 617 OFFCURVE",
"256 623 OFFCURVE",
"262 628 CURVE SMOOTH",
"274 639 OFFCURVE",
"282 645 OFFCURVE",
"282 658 CURVE SMOOTH",
"282 670 OFFCURVE",
"271 678 OFFCURVE",
"252 678 CURVE SMOOTH",
"219 678 OFFCURVE",
"212 668 OFFCURVE",
"148 668 CURVE SMOOTH",
"111 668 OFFCURVE",
"72 678 OFFCURVE",
"40 678 CURVE SMOOTH",
"18 678 OFFCURVE",
"10 668 OFFCURVE",
"10 658 CURVE SMOOTH",
"10 646 OFFCURVE",
"18 638 OFFCURVE",
"30 638 CURVE SMOOTH",
"51 638 OFFCURVE",
"60 634 OFFCURVE",
"75 621 CURVE SMOOTH",
"94 604 OFFCURVE",
"105 593 OFFCURVE",
"139 538 CURVE SMOOTH",
"173 483 OFFCURVE",
"211 425 OFFCURVE",
"254 361 CURVE SMOOTH",
"265 344 OFFCURVE",
"269 336 OFFCURVE",
"269 318 CURVE SMOOTH",
"269 130 LINE SMOOTH",
"269 90 OFFCURVE",
"265 59 OFFCURVE",
"249 40 CURVE SMOOTH",
"234 23 OFFCURVE",
"219 22 OFFCURVE",
"219 10 CURVE SMOOTH",
"219 -1 OFFCURVE",
"227 -10 OFFCURVE",
"249 -10 CURVE SMOOTH"
);
}
);
width = 656;
},
{
associatedMasterId = "083550D2-F2E8-44E3-BE3D-E8BDF41EDFC4";
layerId = "0AAF2CB4-2EBD-42C4-BAB4-4CEC92C737FB";
width = 600;
},
{
anchors = (
{
name = bottom;
position = "{352, 0}";
},
{
name = top;
position = "{361, 668}";
},
{
name = topleft;
position = "{70, 600}";
}
);
layerId = "9D9E1BAB-54C5-4388-83C1-CB7B88B482E6";
paths = (
{
closed = 1;
nodes = (
"271 -10 OFFCURVE",
"284 0 OFFCURVE",
"348 0 CURVE SMOOTH",
"418 0 OFFCURVE",
"429 -10 OFFCURVE",
"459 -10 CURVE SMOOTH",
"479 -10 OFFCURVE",
"489 -2 OFFCURVE",
"489 10 CURVE SMOOTH",
"489 21 OFFCURVE",
"483 30 OFFCURVE",
"471 30 CURVE SMOOTH",
"470 30 OFFCURVE",
"470 30 OFFCURVE",
"469 30 CURVE SMOOTH",
"451 30 OFFCURVE",
"445 39 OFFCURVE",
"438 60 CURVE SMOOTH",
"429 87 OFFCURVE",
"429 116 OFFCURVE",
"429 140 CURVE SMOOTH",
"429 320 LINE SMOOTH",
"429 339 OFFCURVE",
"439 360 OFFCURVE",
"444 369 CURVE SMOOTH",
"471 417 OFFCURVE",
"513 487 OFFCURVE",
"544 529 CURVE SMOOTH",
"570 565 OFFCURVE",
"588 584 OFFCURVE",
"612 601 CURVE SMOOTH",
"634 617 OFFCURVE",
"646 619 OFFCURVE",
"662 628 CURVE SMOOTH",
"675 635 OFFCURVE",
"686 643 OFFCURVE",
"686 658 CURVE SMOOTH",
"686 670 OFFCURVE",
"677 678 OFFCURVE",
"656 678 CURVE SMOOTH",
"622 678 OFFCURVE",
"603 668 OFFCURVE",
"545 668 CURVE SMOOTH",
"507 668 OFFCURVE",
"490 678 OFFCURVE",
"462 678 CURVE SMOOTH",
"445 678 OFFCURVE",
"437 669 OFFCURVE",
"437 658 CURVE SMOOTH",
"437 644 OFFCURVE",
"451 635 OFFCURVE",
"467 628 CURVE SMOOTH",
"480 622 OFFCURVE",
"486 615 OFFCURVE",
"486 603 CURVE SMOOTH",
"486 589 OFFCURVE",
"478 569 OFFCURVE",
"462 538 CURVE SMOOTH",
"441 497 OFFCURVE",
"430 479 OFFCURVE",
"404 441 CURVE SMOOTH",
"400 436 OFFCURVE",
"397 433 OFFCURVE",
"394 433 CURVE SMOOTH",
"391 433 OFFCURVE",
"388 435 OFFCURVE",
"383 441 CURVE SMOOTH",
"359 472 OFFCURVE",
"328 517 OFFCURVE",
"310 558 CURVE SMOOTH",
"300 582 OFFCURVE",
"293 598 OFFCURVE",
"293 609 CURVE SMOOTH",
"293 617 OFFCURVE",
"296 623 OFFCURVE",
"302 628 CURVE SMOOTH",
"315 638 OFFCURVE",
"322 645 OFFCURVE",
"322 658 CURVE SMOOTH",
"322 670 OFFCURVE",
"311 678 OFFCURVE",
"292 678 CURVE SMOOTH",
"259 678 OFFCURVE",
"252 668 OFFCURVE",
"168 668 CURVE SMOOTH",
"111 668 OFFCURVE",
"72 678 OFFCURVE",
"40 678 CURVE SMOOTH",
"18 678 OFFCURVE",
"10 668 OFFCURVE",
"10 658 CURVE SMOOTH",
"10 646 OFFCURVE",
"18 638 OFFCURVE",
"30 638 CURVE SMOOTH",
"51 638 OFFCURVE",
"60 634 OFFCURVE",
"75 621 CURVE SMOOTH",
"94 604 OFFCURVE",
"105 593 OFFCURVE",
"139 538 CURVE SMOOTH",
"173 483 OFFCURVE",
"212 426 OFFCURVE",
"254 361 CURVE SMOOTH",
"265 344 OFFCURVE",
"269 336 OFFCURVE",
"269 318 CURVE SMOOTH",
"269 130 LINE SMOOTH",
"269 90 OFFCURVE",
"265 59 OFFCURVE",
"249 40 CURVE SMOOTH",
"234 23 OFFCURVE",
"219 22 OFFCURVE",
"219 10 CURVE SMOOTH",
"219 -1 OFFCURVE",
"227 -10 OFFCURVE",
"249 -10 CURVE SMOOTH"
);
}
);
width = 696;
},
{
associatedMasterId = "9D9E1BAB-54C5-4388-83C1-CB7B88B482E6";
layerId = "73015EF0-7EEE-4020-B11F-FA142CFC959C";
width = 600;
}
);
leftKerningGroup = Y;
leftMetricsKey = V;
rightKerningGroup = Y;
rightMetricsKey = V;
unicode = 0059;
},
{
color = 1;
glyphname = Z;
lastChange = "2021-08-11 11:22:11 +0000";
layers = (
{
anchors = (
{
name = bottom;
position = "{333, 0}";
},
{
name = top;
position = "{343, 668}";
}
);
layerId = "083550D2-F2E8-44E3-BE3D-E8BDF41EDFC4";
paths = (
{
closed = 1;
nodes = (
"601 -10 OFFCURVE",
"614 -8 OFFCURVE",
"623 10 CURVE SMOOTH",
"647 55 OFFCURVE",
"671 122 OFFCURVE",
"671 155 CURVE SMOOTH",
"671 172 OFFCURVE",
"664 183 OFFCURVE",
"647 183 CURVE SMOOTH",
"633 183 OFFCURVE",
"621 173 OFFCURVE",
"621 151 CURVE SMOOTH",
"621 122 OFFCURVE",
"589 50 OFFCURVE",
"468 50 CURVE SMOOTH",
"351 50 LINE SMOOTH",
"264 50 OFFCURVE",
"226 55 OFFCURVE",
"226 80 CURVE SMOOTH",
"226 88 OFFCURVE",
"231 99 OFFCURVE",
"240 113 CURVE SMOOTH",
"329 249 OFFCURVE",
"442 420 OFFCURVE",
"527 532 CURVE SMOOTH",
"556 570 OFFCURVE",
"563 581 OFFCURVE",
"578 598 CURVE SMOOTH",
"591 612 OFFCURVE",
"607 620 OFFCURVE",
"607 638 CURVE SMOOTH",
"607 657 OFFCURVE",
"591 668 OFFCURVE",
"558 668 CURVE SMOOTH",
"154 668 LINE SMOOTH",
"103 668 OFFCURVE",
"91 678 OFFCURVE",
"71 678 CURVE SMOOTH",
"61 678 OFFCURVE",
"54 674 OFFCURVE",
"51 668 CURVE SMOOTH",
"50 665 OFFCURVE",
"49 662 OFFCURVE",
"49 659 CURVE SMOOTH",
"49 645 OFFCURVE",
"61 619 OFFCURVE",
"61 505 CURVE SMOOTH",
"61 484 OFFCURVE",
"71 471 OFFCURVE",
"85 471 CURVE SMOOTH",
"103 471 OFFCURVE",
"112 484 OFFCURVE",
"112 505 CURVE SMOOTH",
"112 566 OFFCURVE",
"113 581 OFFCURVE",
"158 601 CURVE SMOOTH",
"194 617 OFFCURVE",
"235 618 OFFCURVE",
"284 618 CURVE",
"359 618 LINE",
"399 618 OFFCURVE",
"415 615 OFFCURVE",
"415 603 CURVE SMOOTH",
"415 597 OFFCURVE",
"411 589 OFFCURVE",
"404 578 CURVE SMOOTH",
"354 503 OFFCURVE",
"184 259 OFFCURVE",
"124 166 CURVE SMOOTH",
"93 118 OFFCURVE",
"69 83 OFFCURVE",
"49 56 CURVE SMOOTH",
"37 40 OFFCURVE",
"30 28 OFFCURVE",
"30 20 CURVE SMOOTH",
"30 6 OFFCURVE",
"40 0 OFFCURVE",
"58 0 CURVE SMOOTH",
"95 0 OFFCURVE",
"119 10 OFFCURVE",
"169 10 CURVE SMOOTH",
"248 10 OFFCURVE",
"312 4 OFFCURVE",
"383 0 CURVE SMOOTH",
"479 -6 OFFCURVE",
"539 -10 OFFCURVE",
"573 -10 CURVE SMOOTH"
);
}
);
width = 681;
},
{
associatedMasterId = "083550D2-F2E8-44E3-BE3D-E8BDF41EDFC4";
layerId = "0AAF2CB4-2EBD-42C4-BAB4-4CEC92C737FB";
width = 600;
},
{
anchors = (
{
name = bottom;
position = "{353, 0}";
},
{
name = top;
position = "{363, 668}";
}
);
layerId = "9D9E1BAB-54C5-4388-83C1-CB7B88B482E6";
paths = (
{
closed = 1;
nodes = (
"621 -10 OFFCURVE",
"634 -8 OFFCURVE",
"643 10 CURVE SMOOTH",
"667 55 OFFCURVE",
"691 142 OFFCURVE",
"691 175 CURVE SMOOTH",
"691 192 OFFCURVE",
"684 203 OFFCURVE",
"667 203 CURVE SMOOTH",
"653 203 OFFCURVE",
"641 193 OFFCURVE",
"641 171 CURVE SMOOTH",
"641 142 OFFCURVE",
"609 70 OFFCURVE",
"488 70 CURVE SMOOTH",
"391 70 LINE SMOOTH",
"324 70 OFFCURVE",
"286 75 OFFCURVE",
"286 100 CURVE SMOOTH",
"286 108 OFFCURVE",
"291 119 OFFCURVE",
"300 133 CURVE SMOOTH",
"388 270 OFFCURVE",
"482 420 OFFCURVE",
"567 532 CURVE SMOOTH",
"596 570 OFFCURVE",
"603 581 OFFCURVE",
"618 598 CURVE SMOOTH",
"631 612 OFFCURVE",
"647 620 OFFCURVE",
"647 638 CURVE SMOOTH",
"647 657 OFFCURVE",
"631 668 OFFCURVE",
"598 668 CURVE SMOOTH",
"174 668 LINE SMOOTH",
"123 668 OFFCURVE",
"111 678 OFFCURVE",
"91 678 CURVE SMOOTH",
"81 678 OFFCURVE",
"74 674 OFFCURVE",
"71 668 CURVE SMOOTH",
"70 665 OFFCURVE",
"69 662 OFFCURVE",
"69 659 CURVE SMOOTH",
"69 645 OFFCURVE",
"81 599 OFFCURVE",
"81 485 CURVE SMOOTH",
"81 464 OFFCURVE",
"91 451 OFFCURVE",
"105 451 CURVE SMOOTH",
"123 451 OFFCURVE",
"132 464 OFFCURVE",
"132 485 CURVE SMOOTH",
"132 546 OFFCURVE",
"133 561 OFFCURVE",
"178 581 CURVE SMOOTH",
"214 597 OFFCURVE",
"255 598 OFFCURVE",
"304 598 CURVE",
"339 598 LINE",
"379 598 OFFCURVE",
"395 595 OFFCURVE",
"395 583 CURVE SMOOTH",
"395 577 OFFCURVE",
"391 569 OFFCURVE",
"384 558 CURVE SMOOTH",
"336 482 OFFCURVE",
"184 259 OFFCURVE",
"124 166 CURVE SMOOTH",
"93 118 OFFCURVE",
"69 83 OFFCURVE",
"49 56 CURVE SMOOTH",
"37 40 OFFCURVE",
"30 28 OFFCURVE",
"30 20 CURVE SMOOTH",
"30 6 OFFCURVE",
"40 0 OFFCURVE",
"58 0 CURVE SMOOTH",
"95 0 OFFCURVE",
"119 10 OFFCURVE",
"189 10 CURVE SMOOTH",
"268 10 OFFCURVE",
"332 4 OFFCURVE",
"403 0 CURVE SMOOTH",
"499 -6 OFFCURVE",
"559 -10 OFFCURVE",
"593 -10 CURVE SMOOTH"
);
}
);
width = 701;
},
{
associatedMasterId = "9D9E1BAB-54C5-4388-83C1-CB7B88B482E6";
layerId = "25B55834-E374-4A56-AEF8-B0E24E3C96EC";
width = 600;
}
);
leftKerningGroup = Z;
rightKerningGroup = Z;
unicode = 005A;
},
{
glyphname = a.alt;
lastChange = "2021-08-11 11:22:46 +0000";
layers = (
{
layerId = "083550D2-F2E8-44E3-BE3D-E8BDF41EDFC4";
paths = (
{
closed = 1;
nodes = (
"319 -10 OFFCURVE",
"368 8 OFFCURVE",
"403 42 CURVE",
"409 47 OFFCURVE",
"415 49 OFFCURVE",
"420 49 CURVE SMOOTH",
"427 49 OFFCURVE",
"431 44 OFFCURVE",
"431 38 CURVE SMOOTH",
"431 36 OFFCURVE",
"431 33 OFFCURVE",
"429 30 CURVE SMOOTH",
"426 24 OFFCURVE",
"425 19 OFFCURVE",
"425 15 CURVE SMOOTH",
"425 5 OFFCURVE",
"432 0 OFFCURVE",
"442 0 CURVE SMOOTH",
"560 0 LINE SMOOTH",
"581 0 OFFCURVE",
"590 9 OFFCURVE",
"590 20 CURVE SMOOTH",
"590 29 OFFCURVE",
"582 35 OFFCURVE",
"570 40 CURVE SMOOTH",
"558 45 OFFCURVE",
"547 55 OFFCURVE",
"540 70 CURVE SMOOTH",
"534 84 OFFCURVE",
"530 114 OFFCURVE",
"530 150 CURVE SMOOTH",
"530 332 LINE SMOOTH",
"530 378 OFFCURVE",
"530 409 OFFCURVE",
"539 432 CURVE SMOOTH",
"547 451 OFFCURVE",
"550 459 OFFCURVE",
"550 467 CURVE SMOOTH",
"550 477 OFFCURVE",
"545 482 OFFCURVE",
"533 482 CURVE SMOOTH",
"516 482 OFFCURVE",
"501 472 OFFCURVE",
"478 472 CURVE SMOOTH",
"446 472 OFFCURVE",
"440 462 OFFCURVE",
"440 442 CURVE SMOOTH",
"440 418 OFFCURVE",
"436 409 OFFCURVE",
"430 409 CURVE SMOOTH",
"426 409 OFFCURVE",
"422 412 OFFCURVE",
"417 417 CURVE SMOOTH",
"381 459 OFFCURVE",
"327 482 OFFCURVE",
"255 482 CURVE SMOOTH",
"111 482 OFFCURVE",
"30 392 OFFCURVE",
"30 237 CURVE SMOOTH",
"30 84 OFFCURVE",
"110 -10 OFFCURVE",
"255 -10 CURVE SMOOTH"
);
},
{
closed = 1;
nodes = (
"193 40 OFFCURVE",
"140 93 OFFCURVE",
"140 237 CURVE SMOOTH",
"140 381 OFFCURVE",
"194 432 OFFCURVE",
"275 432 CURVE SMOOTH",
"365 432 OFFCURVE",
"420 367 OFFCURVE",
"420 237 CURVE SMOOTH",
"420 107 OFFCURVE",
"363 40 OFFCURVE",
"274 40 CURVE SMOOTH"
);
}
);
width = 620;
},
{
layerId = "9D9E1BAB-54C5-4388-83C1-CB7B88B482E6";
paths = (
{
closed = 1;
nodes = (
"329 -10 OFFCURVE",
"378 8 OFFCURVE",
"413 42 CURVE",
"419 47 OFFCURVE",
"425 49 OFFCURVE",
"430 49 CURVE SMOOTH",
"437 49 OFFCURVE",
"441 44 OFFCURVE",
"441 38 CURVE SMOOTH",
"441 36 OFFCURVE",
"441 33 OFFCURVE",
"439 30 CURVE SMOOTH",
"436 24 OFFCURVE",
"435 19 OFFCURVE",
"435 15 CURVE SMOOTH",
"435 5 OFFCURVE",
"442 0 OFFCURVE",
"452 0 CURVE SMOOTH",
"590 0 LINE SMOOTH",
"611 0 OFFCURVE",
"620 9 OFFCURVE",
"620 20 CURVE SMOOTH",
"620 29 OFFCURVE",
"612 35 OFFCURVE",
"600 40 CURVE SMOOTH",
"588 45 OFFCURVE",
"577 55 OFFCURVE",
"570 70 CURVE SMOOTH",
"564 84 OFFCURVE",
"560 114 OFFCURVE",
"560 150 CURVE SMOOTH",
"560 332 LINE SMOOTH",
"560 378 OFFCURVE",
"559 409 OFFCURVE",
"569 432 CURVE SMOOTH",
"577 451 OFFCURVE",
"580 459 OFFCURVE",
"580 467 CURVE SMOOTH",
"580 477 OFFCURVE",
"575 482 OFFCURVE",
"563 482 CURVE SMOOTH",
"546 482 OFFCURVE",
"531 472 OFFCURVE",
"488 472 CURVE SMOOTH",
"456 472 OFFCURVE",
"450 462 OFFCURVE",
"450 442 CURVE SMOOTH",
"450 418 OFFCURVE",
"446 409 OFFCURVE",
"440 409 CURVE SMOOTH",
"436 409 OFFCURVE",
"432 412 OFFCURVE",
"427 417 CURVE SMOOTH",
"391 459 OFFCURVE",
"337 482 OFFCURVE",
"265 482 CURVE SMOOTH",
"121 482 OFFCURVE",
"20 392 OFFCURVE",
"20 237 CURVE SMOOTH",
"20 84 OFFCURVE",
"120 -10 OFFCURVE",
"265 -10 CURVE SMOOTH"
);
},
{
closed = 1;
nodes = (
"215 60 OFFCURVE",
"170 108 OFFCURVE",
"170 237 CURVE SMOOTH",
"170 366 OFFCURVE",
"216 412 OFFCURVE",
"286 412 CURVE SMOOTH",
"363 412 OFFCURVE",
"410 354 OFFCURVE",
"410 237 CURVE SMOOTH",
"410 120 OFFCURVE",
"361 60 OFFCURVE",
"285 60 CURVE SMOOTH"
);
}
);
width = 650;
}
);
leftKerningGroup = a.alt;
leftMetricsKey = o;
rightKerningGroup = a.alt;
},
{
color = 1;
glyphname = a;
lastChange = "2021-12-12 14:05:59 +0000";
layers = (
{
anchors = (
{
name = bottom;
position = "{288, 20}";
},
{
name = ogonek;
position = "{483, 12}";
},
{
name = top;
position = "{268, 482}";
}
);
layerId = "083550D2-F2E8-44E3-BE3D-E8BDF41EDFC4";
paths = (
{
closed = 1;
nodes = (
"235 -10 OFFCURVE",
"285 11 OFFCURVE",
"315 37 CURVE SMOOTH",
"322 43 OFFCURVE",
"326 47 OFFCURVE",
"331 47 CURVE SMOOTH",
"336 47 OFFCURVE",
"340 42 OFFCURVE",
"348 30 CURVE SMOOTH",
"366 5 OFFCURVE",
"388 -10 OFFCURVE",
"423 -10 CURVE SMOOTH",
"460 -10 OFFCURVE",
"487 5 OFFCURVE",
"508 26 CURVE SMOOTH",
"529 47 OFFCURVE",
"544 73 OFFCURVE",
"547 99 CURVE SMOOTH",
"548 114 OFFCURVE",
"541 121 OFFCURVE",
"532 121 CURVE SMOOTH",
"526 121 OFFCURVE",
"520 118 OFFCURVE",
"515 112 CURVE SMOOTH",
"505 100 OFFCURVE",
"498 86 OFFCURVE",
"489 76 CURVE SMOOTH",
"476 61 OFFCURVE",
"465 51 OFFCURVE",
"453 51 CURVE SMOOTH",
"443 51 OFFCURVE",
"436 58 OFFCURVE",
"436 71 CURVE SMOOTH",
"436 108 OFFCURVE",
"457 157 OFFCURVE",
"457 237 CURVE SMOOTH",
"457 338 OFFCURVE",
"425 408 OFFCURVE",
"362 448 CURVE SMOOTH",
"324 472 OFFCURVE",
"280 482 OFFCURVE",
"234 482 CURVE SMOOTH",
"157 482 OFFCURVE",
"108 451 OFFCURVE",
"86 423 CURVE SMOOTH",
"69 401 OFFCURVE",
"58 376 OFFCURVE",
"58 350 CURVE SMOOTH",
"58 309 OFFCURVE",
"85 282 OFFCURVE",
"124 282 CURVE SMOOTH",
"165 282 OFFCURVE",
"198 309 OFFCURVE",
"198 348 CURVE SMOOTH",
"198 370 OFFCURVE",
"190 381 OFFCURVE",
"173 381 CURVE SMOOTH",
"167 381 OFFCURVE",
"164 384 OFFCURVE",
"164 389 CURVE SMOOTH",
"164 411 OFFCURVE",
"198 432 OFFCURVE",
"234 432 CURVE SMOOTH",
"300 432 OFFCURVE",
"334 384 OFFCURVE",
"341 326 CURVE SMOOTH",
"342 314 OFFCURVE",
"343 304 OFFCURVE",
"343 294 CURVE SMOOTH",
"343 272 OFFCURVE",
"336 262 OFFCURVE",
"317 260 CURVE SMOOTH",
"263 255 OFFCURVE",
"175 246 OFFCURVE",
"116 213 CURVE SMOOTH",
"68 186 OFFCURVE",
"40 143 OFFCURVE",
"40 96 CURVE SMOOTH",
"40 50 OFFCURVE",
"69 19 OFFCURVE",
"98 6 CURVE SMOOTH",
"124 -6 OFFCURVE",
"147 -10 OFFCURVE",
"178 -10 CURVE SMOOTH"
);
},
{
closed = 1;
nodes = (
"172 40 OFFCURVE",
"150 62 OFFCURVE",
"150 96 CURVE SMOOTH",
"150 124 OFFCURVE",
"164 148 OFFCURVE",
"191 169 CURVE SMOOTH",
"218 190 OFFCURVE",
"268 208 OFFCURVE",
"312 212 CURVE SMOOTH",
"337 214 OFFCURVE",
"342 208 OFFCURVE",
"342 192 CURVE SMOOTH",
"342 170 OFFCURVE",
"334 128 OFFCURVE",
"311 97 CURVE SMOOTH",
"283 60 OFFCURVE",
"249 40 OFFCURVE",
"211 40 CURVE SMOOTH"
);
}
);
width = 567;
},
{
anchors = (
{
name = bottom;
position = "{308, 20}";
},
{
name = ogonek;
position = "{518, 15}";
},
{
name = top;
position = "{288, 482}";
}
);
layerId = "9D9E1BAB-54C5-4388-83C1-CB7B88B482E6";
paths = (
{
closed = 1;
nodes = (
"244 -10 OFFCURVE",
"289 10 OFFCURVE",
"329 40 CURVE SMOOTH",
"333 43 OFFCURVE",
"338 47 OFFCURVE",
"342 47 CURVE SMOOTH",
"348 47 OFFCURVE",
"352 40 OFFCURVE",
"364 26 CURVE SMOOTH",
"382 4 OFFCURVE",
"412 -10 OFFCURVE",
"448 -10 CURVE SMOOTH",
"491 -10 OFFCURVE",
"526 8 OFFCURVE",
"547 29 CURVE SMOOTH",
"568 50 OFFCURVE",
"587 83 OFFCURVE",
"590 109 CURVE SMOOTH",
"592 124 OFFCURVE",
"584 132 OFFCURVE",
"573 132 CURVE SMOOTH",
"564 132 OFFCURVE",
"557 126 OFFCURVE",
"552 120 CURVE SMOOTH",
"544 111 OFFCURVE",
"537 99 OFFCURVE",
"527 89 CURVE SMOOTH",
"515 77 OFFCURVE",
"505 71 OFFCURVE",
"493 71 CURVE SMOOTH",
"483 71 OFFCURVE",
"476 78 OFFCURVE",
"476 91 CURVE SMOOTH",
"476 119 OFFCURVE",
"497 161 OFFCURVE",
"497 237 CURVE SMOOTH",
"497 358 OFFCURVE",
"448 414 OFFCURVE",
"399 445 CURVE SMOOTH",
"361 469 OFFCURVE",
"305 482 OFFCURVE",
"254 482 CURVE SMOOTH",
"177 482 OFFCURVE",
"118 458 OFFCURVE",
"87 425 CURVE SMOOTH",
"69 406 OFFCURVE",
"58 380 OFFCURVE",
"58 350 CURVE SMOOTH",
"58 311 OFFCURVE",
"85 276 OFFCURVE",
"133 276 CURVE SMOOTH",
"174 276 OFFCURVE",
"218 309 OFFCURVE",
"218 344 CURVE SMOOTH",
"218 359 OFFCURVE",
"214 366 OFFCURVE",
"204 369 CURVE SMOOTH",
"196 371 OFFCURVE",
"193 373 OFFCURVE",
"193 379 CURVE SMOOTH",
"193 397 OFFCURVE",
"221 412 OFFCURVE",
"254 412 CURVE SMOOTH",
"300 412 OFFCURVE",
"333 381 OFFCURVE",
"341 336 CURVE SMOOTH",
"342 328 OFFCURVE",
"343 318 OFFCURVE",
"343 308 CURVE SMOOTH",
"343 286 OFFCURVE",
"336 270 OFFCURVE",
"313 268 CURVE SMOOTH",
"256 262 OFFCURVE",
"166 248 OFFCURVE",
"109 213 CURVE SMOOTH",
"67 187 OFFCURVE",
"40 150 OFFCURVE",
"40 99 CURVE SMOOTH",
"40 50 OFFCURVE",
"69 19 OFFCURVE",
"98 6 CURVE SMOOTH",
"125 -6 OFFCURVE",
"152 -10 OFFCURVE",
"183 -10 CURVE SMOOTH"
);
},
{
closed = 1;
nodes = (
"207 60 OFFCURVE",
"190 79 OFFCURVE",
"190 110 CURVE SMOOTH",
"190 134 OFFCURVE",
"201 156 OFFCURVE",
"222 174 CURVE SMOOTH",
"244 193 OFFCURVE",
"283 209 OFFCURVE",
"318 212 CURVE SMOOTH",
"338 214 OFFCURVE",
"342 209 OFFCURVE",
"342 195 CURVE SMOOTH",
"342 175 OFFCURVE",
"338 135 OFFCURVE",
"319 107 CURVE SMOOTH",
"297 75 OFFCURVE",
"268 60 OFFCURVE",
"238 60 CURVE SMOOTH"
);
}
);
width = 607;
}
);
leftKerningGroup = a;
rightKerningGroup = n;
unicode = 0061;
},
{
color = 1;
glyphname = b;
lastChange = "2021-08-11 11:22:11 +0000";
layers = (
{
layerId = "083550D2-F2E8-44E3-BE3D-E8BDF41EDFC4";
paths = (
{
closed = 1;
nodes = (
"520 -10 OFFCURVE",
"600 84 OFFCURVE",
"600 237 CURVE SMOOTH",
"600 392 OFFCURVE",
"519 482 OFFCURVE",
"375 482 CURVE SMOOTH",
"318 482 OFFCURVE",
"269 463 OFFCURVE",
"232 428 CURVE",
"231 428 LINE",
"226 424 OFFCURVE",
"222 422 OFFCURVE",
"219 422 CURVE SMOOTH",
"213 422 OFFCURVE",
"210 428 OFFCURVE",
"210 437 CURVE SMOOTH",
"210 606 LINE SMOOTH",
"210 652 OFFCURVE",
"210 683 OFFCURVE",
"219 706 CURVE SMOOTH",
"227 725 OFFCURVE",
"230 733 OFFCURVE",
"230 741 CURVE SMOOTH",
"230 751 OFFCURVE",
"225 756 OFFCURVE",
"213 756 CURVE SMOOTH",
"192 756 OFFCURVE",
"184 746 OFFCURVE",
"128 746 CURVE SMOOTH",
"70 746 LINE SMOOTH",
"48 746 OFFCURVE",
"40 736 OFFCURVE",
"40 726 CURVE SMOOTH",
"40 714 OFFCURVE",
"48 706 OFFCURVE",
"60 706 CURVE SMOOTH",
"77 706 OFFCURVE",
"85 699 OFFCURVE",
"90 686 CURVE SMOOTH",
"97 667 OFFCURVE",
"100 644 OFFCURVE",
"100 606 CURVE SMOOTH",
"100 140 LINE SMOOTH",
"100 103 OFFCURVE",
"99 79 OFFCURVE",
"86 60 CURVE SMOOTH",
"74 42 OFFCURVE",
"57 35 OFFCURVE",
"57 20 CURVE SMOOTH",
"57 6 OFFCURVE",
"66 0 OFFCURVE",
"80 0 CURVE SMOOTH",
"180 0 LINE SMOOTH",
"195 0 OFFCURVE",
"204 7 OFFCURVE",
"204 17 CURVE SMOOTH",
"204 21 OFFCURVE",
"203 25 OFFCURVE",
"200 29 CURVE SMOOTH",
"198 33 OFFCURVE",
"197 36 OFFCURVE",
"197 39 CURVE SMOOTH",
"197 46 OFFCURVE",
"202 50 OFFCURVE",
"210 50 CURVE SMOOTH",
"214 50 OFFCURVE",
"220 48 OFFCURVE",
"225 44 CURVE",
"260 9 OFFCURVE",
"310 -10 OFFCURVE",
"375 -10 CURVE SMOOTH"
);
},
{
closed = 1;
nodes = (
"275 40 OFFCURVE",
"210 107 OFFCURVE",
"210 237 CURVE SMOOTH",
"210 367 OFFCURVE",
"275 432 OFFCURVE",
"355 432 CURVE SMOOTH",
"436 432 OFFCURVE",
"490 381 OFFCURVE",
"490 237 CURVE SMOOTH",
"490 93 OFFCURVE",
"437 40 OFFCURVE",
"356 40 CURVE SMOOTH"
);
}
);
width = 630;
},
{
associatedMasterId = "083550D2-F2E8-44E3-BE3D-E8BDF41EDFC4";
layerId = "0AAF2CB4-2EBD-42C4-BAB4-4CEC92C737FB";
width = 600;
},
{
layerId = "9D9E1BAB-54C5-4388-83C1-CB7B88B482E6";
paths = (
{
closed = 1;
nodes = (
"550 -10 OFFCURVE",
"630 94 OFFCURVE",
"630 237 CURVE SMOOTH",
"630 382 OFFCURVE",
"549 482 OFFCURVE",
"385 482 CURVE SMOOTH",
"328 482 OFFCURVE",
"299 463 OFFCURVE",
"262 438 CURVE",
"261 438 LINE",
"256 434 OFFCURVE",
"252 432 OFFCURVE",
"249 432 CURVE SMOOTH",
"243 432 OFFCURVE",
"240 438 OFFCURVE",
"240 447 CURVE SMOOTH",
"240 606 LINE SMOOTH",
"240 652 OFFCURVE",
"239 683 OFFCURVE",
"249 706 CURVE SMOOTH",
"257 725 OFFCURVE",
"260 733 OFFCURVE",
"260 741 CURVE SMOOTH",
"260 751 OFFCURVE",
"255 756 OFFCURVE",
"243 756 CURVE SMOOTH",
"222 756 OFFCURVE",
"174 746 OFFCURVE",
"118 746 CURVE SMOOTH",
"60 746 LINE SMOOTH",
"38 746 OFFCURVE",
"30 736 OFFCURVE",
"30 726 CURVE SMOOTH",
"30 714 OFFCURVE",
"38 706 OFFCURVE",
"50 706 CURVE SMOOTH",
"67 706 OFFCURVE",
"75 699 OFFCURVE",
"80 686 CURVE SMOOTH",
"87 667 OFFCURVE",
"90 644 OFFCURVE",
"90 606 CURVE SMOOTH",
"90 140 LINE SMOOTH",
"90 103 OFFCURVE",
"89 79 OFFCURVE",
"76 60 CURVE SMOOTH",
"64 42 OFFCURVE",
"47 35 OFFCURVE",
"47 20 CURVE SMOOTH",
"47 6 OFFCURVE",
"56 0 OFFCURVE",
"70 0 CURVE SMOOTH",
"190 0 LINE SMOOTH",
"205 0 OFFCURVE",
"214 7 OFFCURVE",
"214 17 CURVE SMOOTH",
"214 21 OFFCURVE",
"213 25 OFFCURVE",
"210 29 CURVE SMOOTH",
"208 33 OFFCURVE",
"207 36 OFFCURVE",
"207 39 CURVE SMOOTH",
"207 46 OFFCURVE",
"212 50 OFFCURVE",
"220 50 CURVE SMOOTH",
"224 50 OFFCURVE",
"230 48 OFFCURVE",
"235 44 CURVE",
"270 9 OFFCURVE",
"320 -10 OFFCURVE",
"385 -10 CURVE SMOOTH"
);
},
{
closed = 1;
nodes = (
"296 60 OFFCURVE",
"240 107 OFFCURVE",
"240 237 CURVE SMOOTH",
"240 367 OFFCURVE",
"296 412 OFFCURVE",
"364 412 CURVE SMOOTH",
"434 412 OFFCURVE",
"480 361 OFFCURVE",
"480 237 CURVE SMOOTH",
"480 113 OFFCURVE",
"435 60 OFFCURVE",
"365 60 CURVE SMOOTH"
);
}
);
width = 650;
},
{
associatedMasterId = "9D9E1BAB-54C5-4388-83C1-CB7B88B482E6";
layerId = "E004F3EF-B7D6-42A4-A977-69E38AE6E847";
width = 600;
}
);
leftKerningGroup = h;
leftMetricsKey = n;
rightKerningGroup = o;
rightMetricsKey = o;
unicode = 0062;
},
{
color = 1;
glyphname = c;
lastChange = "2021-08-11 11:22:11 +0000";
layers = (
{
anchors = (
{
name = bottom;
position = "{305, 0}";
},
{
name = top;
position = "{278, 478}";
}
);
layerId = "083550D2-F2E8-44E3-BE3D-E8BDF41EDFC4";
paths = (
{
closed = 1;
nodes = (
"350 -10 OFFCURVE",
"398 2 OFFCURVE",
"433 20 CURVE SMOOTH",
"478 43 OFFCURVE",
"500 67 OFFCURVE",
"510 90 CURVE SMOOTH",
"512 94 OFFCURVE",
"513 98 OFFCURVE",
"513 102 CURVE SMOOTH",
"513 111 OFFCURVE",
"507 118 OFFCURVE",
"498 118 CURVE SMOOTH",
"481 118 OFFCURVE",
"469 103 OFFCURVE",
"441 85 CURVE SMOOTH",
"412 67 OFFCURVE",
"370 50 OFFCURVE",
"316 50 CURVE SMOOTH",
"206 50 OFFCURVE",
"140 115 OFFCURVE",
"140 237 CURVE SMOOTH",
"140 359 OFFCURVE",
"211 432 OFFCURVE",
"305 432 CURVE SMOOTH",
"342 432 OFFCURVE",
"374 415 OFFCURVE",
"389 400 CURVE SMOOTH",
"396 393 OFFCURVE",
"399 388 OFFCURVE",
"399 385 CURVE SMOOTH",
"399 381 OFFCURVE",
"395 379 OFFCURVE",
"389 379 CURVE SMOOTH",
"369 379 OFFCURVE",
"356 363 OFFCURVE",
"356 335 CURVE SMOOTH",
"356 296 OFFCURVE",
"387 272 OFFCURVE",
"426 272 CURVE SMOOTH",
"465 272 OFFCURVE",
"496 300 OFFCURVE",
"496 341 CURVE SMOOTH",
"496 367 OFFCURVE",
"486 393 OFFCURVE",
"468 415 CURVE SMOOTH",
"444 444 OFFCURVE",
"381 482 OFFCURVE",
"295 482 CURVE SMOOTH",
"143 482 OFFCURVE",
"30 391 OFFCURVE",
"30 237 CURVE SMOOTH",
"30 72 OFFCURVE",
"143 -10 OFFCURVE",
"287 -10 CURVE SMOOTH"
);
}
);
width = 543;
},
{
associatedMasterId = "083550D2-F2E8-44E3-BE3D-E8BDF41EDFC4";
layerId = "0AAF2CB4-2EBD-42C4-BAB4-4CEC92C737FB";
width = 600;
},
{
anchors = (
{
name = bottom;
position = "{315, 0}";
},
{
name = top;
position = "{288, 478}";
}
);
layerId = "9D9E1BAB-54C5-4388-83C1-CB7B88B482E6";
paths = (
{
closed = 1;
nodes = (
"350 -10 OFFCURVE",
"408 2 OFFCURVE",
"443 20 CURVE SMOOTH",
"488 43 OFFCURVE",
"510 67 OFFCURVE",
"520 90 CURVE SMOOTH",
"522 94 OFFCURVE",
"523 99 OFFCURVE",
"523 105 CURVE SMOOTH",
"523 115 OFFCURVE",
"514 125 OFFCURVE",
"502 125 CURVE SMOOTH",
"490 125 OFFCURVE",
"478 119 OFFCURVE",
"451 103 CURVE SMOOTH",
"423 86 OFFCURVE",
"380 70 OFFCURVE",
"326 70 CURVE SMOOTH",
"236 70 OFFCURVE",
"170 115 OFFCURVE",
"170 237 CURVE SMOOTH",
"170 359 OFFCURVE",
"241 412 OFFCURVE",
"315 412 CURVE SMOOTH",
"352 412 OFFCURVE",
"372 392 OFFCURVE",
"382 380 CURVE SMOOTH",
"386 375 OFFCURVE",
"389 368 OFFCURVE",
"389 365 CURVE SMOOTH",
"389 361 OFFCURVE",
"385 359 OFFCURVE",
"379 359 CURVE SMOOTH",
"359 359 OFFCURVE",
"346 343 OFFCURVE",
"346 315 CURVE SMOOTH",
"346 276 OFFCURVE",
"387 252 OFFCURVE",
"426 252 CURVE SMOOTH",
"470 252 OFFCURVE",
"506 283 OFFCURVE",
"506 331 CURVE SMOOTH",
"506 362 OFFCURVE",
"500 382 OFFCURVE",
"483 407 CURVE SMOOTH",
"461 439 OFFCURVE",
"401 482 OFFCURVE",
"295 482 CURVE SMOOTH",
"133 482 OFFCURVE",
"20 391 OFFCURVE",
"20 237 CURVE SMOOTH",
"20 72 OFFCURVE",
"133 -10 OFFCURVE",
"287 -10 CURVE SMOOTH"
);
}
);
width = 553;
},
{
associatedMasterId = "9D9E1BAB-54C5-4388-83C1-CB7B88B482E6";
layerId = "859A9E8E-D924-4C9F-B844-5692BDD95CCE";
width = 600;
}
);
leftKerningGroup = o;
leftMetricsKey = o;
rightKerningGroup = c;
unicode = 0063;
},
{
color = 1;
glyphname = d;
lastChange = "2021-05-29 16:39:46 +0000";
layers = (
{
anchors = (
{
name = bottom;
position = "{248, 0}";
},
{
name = center;
position = "{465, 604}";
},
{
name = top;
position = "{158, 533}";
},
{
name = topright;
position = "{535, 468}";
}
);
layerId = "083550D2-F2E8-44E3-BE3D-E8BDF41EDFC4";
paths = (
{
closed = 1;
nodes = (
"319 -10 OFFCURVE",
"368 8 OFFCURVE",
"403 42 CURVE",
"409 47 OFFCURVE",
"415 49 OFFCURVE",
"420 49 CURVE SMOOTH",
"427 49 OFFCURVE",
"431 44 OFFCURVE",
"431 38 CURVE SMOOTH",
"431 36 OFFCURVE",
"431 33 OFFCURVE",
"429 30 CURVE SMOOTH",
"426 24 OFFCURVE",
"425 19 OFFCURVE",
"425 15 CURVE SMOOTH",
"425 5 OFFCURVE",
"432 0 OFFCURVE",
"442 0 CURVE SMOOTH",
"560 0 LINE SMOOTH",
"581 0 OFFCURVE",
"590 9 OFFCURVE",
"590 20 CURVE SMOOTH",
"590 29 OFFCURVE",
"582 35 OFFCURVE",
"570 40 CURVE SMOOTH",
"558 45 OFFCURVE",
"547 55 OFFCURVE",
"540 70 CURVE SMOOTH",
"534 84 OFFCURVE",
"530 114 OFFCURVE",
"530 150 CURVE SMOOTH",
"530 606 LINE SMOOTH",
"530 652 OFFCURVE",
"530 683 OFFCURVE",
"539 706 CURVE SMOOTH",
"547 725 OFFCURVE",
"550 733 OFFCURVE",
"550 741 CURVE SMOOTH",
"550 751 OFFCURVE",
"545 756 OFFCURVE",
"533 756 CURVE SMOOTH",
"512 756 OFFCURVE",
"504 746 OFFCURVE",
"448 746 CURVE SMOOTH",
"390 746 LINE SMOOTH",
"368 746 OFFCURVE",
"360 736 OFFCURVE",
"360 726 CURVE SMOOTH",
"360 714 OFFCURVE",
"368 706 OFFCURVE",
"380 706 CURVE SMOOTH",
"397 706 OFFCURVE",
"405 699 OFFCURVE",
"410 686 CURVE SMOOTH",
"417 667 OFFCURVE",
"420 644 OFFCURVE",
"420 606 CURVE SMOOTH",
"420 435 LINE SMOOTH",
"420 430 OFFCURVE",
"418 426 OFFCURVE",
"414 426 CURVE SMOOTH",
"411 426 OFFCURVE",
"408 428 OFFCURVE",
"403 431 CURVE",
"368 464 OFFCURVE",
"318 482 OFFCURVE",
"255 482 CURVE SMOOTH",
"111 482 OFFCURVE",
"30 392 OFFCURVE",
"30 237 CURVE SMOOTH",
"30 84 OFFCURVE",
"110 -10 OFFCURVE",
"255 -10 CURVE SMOOTH"
);
},
{
closed = 1;
nodes = (
"193 40 OFFCURVE",
"140 93 OFFCURVE",
"140 237 CURVE SMOOTH",
"140 381 OFFCURVE",
"194 432 OFFCURVE",
"275 432 CURVE SMOOTH",
"365 432 OFFCURVE",
"420 367 OFFCURVE",
"420 237 CURVE SMOOTH",
"420 107 OFFCURVE",
"363 40 OFFCURVE",
"274 40 CURVE SMOOTH"
);
}
);
width = 630;
},
{
associatedMasterId = "083550D2-F2E8-44E3-BE3D-E8BDF41EDFC4";
layerId = "0AAF2CB4-2EBD-42C4-BAB4-4CEC92C737FB";
width = 600;
},
{
anchors = (
{
name = bottom;
position = "{258, 0}";
},
{
name = center;
position = "{475, 604}";
},
{
name = top;
position = "{168, 533}";
},
{
name = topright;
position = "{545, 468}";
}
);
layerId = "9D9E1BAB-54C5-4388-83C1-CB7B88B482E6";
paths = (
{
closed = 1;
nodes = (
"319 -10 OFFCURVE",
"378 8 OFFCURVE",
"413 42 CURVE",
"419 47 OFFCURVE",
"425 49 OFFCURVE",
"430 49 CURVE SMOOTH",
"437 49 OFFCURVE",
"441 44 OFFCURVE",
"441 38 CURVE SMOOTH",
"441 36 OFFCURVE",
"441 33 OFFCURVE",
"439 30 CURVE SMOOTH",
"436 24 OFFCURVE",
"435 19 OFFCURVE",
"435 15 CURVE SMOOTH",
"435 5 OFFCURVE",
"442 0 OFFCURVE",
"452 0 CURVE SMOOTH",
"590 0 LINE SMOOTH",
"611 0 OFFCURVE",
"620 9 OFFCURVE",
"620 20 CURVE SMOOTH",
"620 29 OFFCURVE",
"612 35 OFFCURVE",
"600 40 CURVE SMOOTH",
"588 45 OFFCURVE",
"577 55 OFFCURVE",
"570 70 CURVE SMOOTH",
"564 84 OFFCURVE",
"560 114 OFFCURVE",
"560 150 CURVE SMOOTH",
"560 606 LINE SMOOTH",
"560 652 OFFCURVE",
"559 683 OFFCURVE",
"569 706 CURVE SMOOTH",
"577 725 OFFCURVE",
"580 733 OFFCURVE",
"580 741 CURVE SMOOTH",
"580 751 OFFCURVE",
"575 756 OFFCURVE",
"563 756 CURVE SMOOTH",
"542 756 OFFCURVE",
"514 746 OFFCURVE",
"438 746 CURVE SMOOTH",
"380 746 LINE SMOOTH",
"358 746 OFFCURVE",
"350 736 OFFCURVE",
"350 726 CURVE SMOOTH",
"350 714 OFFCURVE",
"358 706 OFFCURVE",
"370 706 CURVE SMOOTH",
"387 706 OFFCURVE",
"395 699 OFFCURVE",
"400 686 CURVE SMOOTH",
"407 667 OFFCURVE",
"410 644 OFFCURVE",
"410 606 CURVE SMOOTH",
"410 445 LINE SMOOTH",
"410 440 OFFCURVE",
"408 436 OFFCURVE",
"404 436 CURVE SMOOTH",
"401 436 OFFCURVE",
"398 437 OFFCURVE",
"393 441 CURVE SMOOTH",
"364 465 OFFCURVE",
"318 482 OFFCURVE",
"255 482 CURVE SMOOTH",
"101 482 OFFCURVE",
"20 382 OFFCURVE",
"20 237 CURVE SMOOTH",
"20 94 OFFCURVE",
"100 -10 OFFCURVE",
"255 -10 CURVE SMOOTH"
);
},
{
closed = 1;
nodes = (
"215 60 OFFCURVE",
"170 108 OFFCURVE",
"170 237 CURVE SMOOTH",
"170 366 OFFCURVE",
"216 412 OFFCURVE",
"286 412 CURVE SMOOTH",
"363 412 OFFCURVE",
"410 354 OFFCURVE",
"410 237 CURVE SMOOTH",
"410 120 OFFCURVE",
"361 60 OFFCURVE",
"285 60 CURVE SMOOTH"
);
}
);
width = 660;
},
{
associatedMasterId = "9D9E1BAB-54C5-4388-83C1-CB7B88B482E6";
layerId = "B1F6B359-999F-4B1B-AC75-5951E4D42160";
width = 600;
}
);
leftKerningGroup = o;
leftMetricsKey = o;
rightKerningGroup = l;
unicode = 0064;
},
{
color = 1;
glyphname = e;
lastChange = "2021-08-12 11:23:58 +0000";
layers = (
{
anchors = (
{
name = bottom;
position = "{293, 0}";
},
{
name = ogonek;
position = "{428, 21}";
},
{
name = top;
position = "{283, 478}";
}
);
layerId = "083550D2-F2E8-44E3-BE3D-E8BDF41EDFC4";
paths = (
{
closed = 1;
nodes = (
"349 -10 OFFCURVE",
"395 1 OFFCURVE",
"427 16 CURVE SMOOTH",
"458 31 OFFCURVE",
"483 50 OFFCURVE",
"499 71 CURVE SMOOTH",
"508 83 OFFCURVE",
"512 94 OFFCURVE",
"512 102 CURVE SMOOTH",
"512 112 OFFCURVE",
"506 118 OFFCURVE",
"498 118 CURVE SMOOTH",
"485 118 OFFCURVE",
"479 108 OFFCURVE",
"445 87 CURVE SMOOTH",
"412 66 OFFCURVE",
"368 50 OFFCURVE",
"317 50 CURVE SMOOTH",
"259 50 OFFCURVE",
"219 67 OFFCURVE",
"186 98 CURVE SMOOTH",
"151 131 OFFCURVE",
"143 167 OFFCURVE",
"143 191 CURVE SMOOTH",
"143 204 OFFCURVE",
"149 205 OFFCURVE",
"171 208 CURVE SMOOTH",
"260 221 OFFCURVE",
"390 240 OFFCURVE",
"443 251 CURVE SMOOTH",
"479 258 OFFCURVE",
"493 264 OFFCURVE",
"501 270 CURVE SMOOTH",
"509 276 OFFCURVE",
"514 283 OFFCURVE",
"514 296 CURVE SMOOTH",
"514 309 OFFCURVE",
"508 332 OFFCURVE",
"499 350 CURVE SMOOTH",
"485 378 OFFCURVE",
"470 402 OFFCURVE",
"436 429 CURVE SMOOTH",
"397 460 OFFCURVE",
"355 482 OFFCURVE",
"274 482 CURVE SMOOTH",
"151 482 OFFCURVE",
"30 386 OFFCURVE",
"30 237 CURVE SMOOTH",
"30 149 OFFCURVE",
"61 81 OFFCURVE",
"135 33 CURVE SMOOTH",
"183 2 OFFCURVE",
"241 -10 OFFCURVE",
"299 -10 CURVE SMOOTH"
);
},
{
closed = 1;
nodes = (
"141 257 OFFCURVE",
"140 268 OFFCURVE",
"140 291 CURVE SMOOTH",
"140 371 OFFCURVE",
"203 432 OFFCURVE",
"273 432 CURVE SMOOTH",
"316 432 OFFCURVE",
"345 411 OFFCURVE",
"362 389 CURVE SMOOTH",
"375 372 OFFCURVE",
"385 348 OFFCURVE",
"387 331 CURVE SMOOTH",
"390 308 OFFCURVE",
"387 302 OFFCURVE",
"355 294 CURVE SMOOTH",
"301 280 OFFCURVE",
"211 264 OFFCURVE",
"159 259 CURVE SMOOTH"
);
}
);
width = 544;
},
{
anchors = (
{
name = bottom;
position = "{303, 0}";
},
{
name = ogonek;
position = "{433, 21}";
},
{
name = top;
position = "{293, 478}";
}
);
layerId = "9D9E1BAB-54C5-4388-83C1-CB7B88B482E6";
paths = (
{
closed = 1;
nodes = (
"349 -10 OFFCURVE",
"405 3 OFFCURVE",
"437 18 CURVE SMOOTH",
"468 33 OFFCURVE",
"493 50 OFFCURVE",
"509 71 CURVE SMOOTH",
"518 83 OFFCURVE",
"522 94 OFFCURVE",
"522 102 CURVE SMOOTH",
"522 117 OFFCURVE",
"512 126 OFFCURVE",
"499 126 CURVE SMOOTH",
"487 126 OFFCURVE",
"473 117 OFFCURVE",
"453 106 CURVE SMOOTH",
"419 87 OFFCURVE",
"375 70 OFFCURVE",
"327 70 CURVE SMOOTH",
"279 70 OFFCURVE",
"244 85 OFFCURVE",
"216 108 CURVE SMOOTH",
"188 131 OFFCURVE",
"173 157 OFFCURVE",
"173 181 CURVE SMOOTH",
"173 194 OFFCURVE",
"179 195 OFFCURVE",
"201 198 CURVE SMOOTH",
"290 210 OFFCURVE",
"400 223 OFFCURVE",
"453 231 CURVE SMOOTH",
"489 236 OFFCURVE",
"503 244 OFFCURVE",
"511 250 CURVE SMOOTH",
"519 256 OFFCURVE",
"524 263 OFFCURVE",
"524 276 CURVE SMOOTH",
"524 301 OFFCURVE",
"518 320 OFFCURVE",
"509 342 CURVE SMOOTH",
"499 367 OFFCURVE",
"480 402 OFFCURVE",
"446 429 CURVE SMOOTH",
"407 460 OFFCURVE",
"365 482 OFFCURVE",
"284 482 CURVE SMOOTH",
"161 482 OFFCURVE",
"20 386 OFFCURVE",
"20 237 CURVE SMOOTH",
"20 138 OFFCURVE",
"62 73 OFFCURVE",
"125 34 CURVE SMOOTH",
"187 -5 OFFCURVE",
"241 -10 OFFCURVE",
"299 -10 CURVE SMOOTH"
);
},
{
closed = 1;
nodes = (
"171 267 OFFCURVE",
"170 278 OFFCURVE",
"170 301 CURVE SMOOTH",
"170 351 OFFCURVE",
"215 412 OFFCURVE",
"283 412 CURVE SMOOTH",
"316 412 OFFCURVE",
"338 400 OFFCURVE",
"353 383 CURVE SMOOTH",
"367 367 OFFCURVE",
"375 348 OFFCURVE",
"377 331 CURVE SMOOTH",
"380 308 OFFCURVE",
"377 301 OFFCURVE",
"345 294 CURVE SMOOTH",
"291 282 OFFCURVE",
"241 275 OFFCURVE",
"189 269 CURVE SMOOTH"
);
}
);
width = 554;
}
);
leftKerningGroup = o;
leftMetricsKey = o;
rightKerningGroup = e;
unicode = 0065;
},
{
color = 1;
glyphname = f;
lastChange = "2021-08-11 11:22:11 +0000";
layers = (
{
layerId = "083550D2-F2E8-44E3-BE3D-E8BDF41EDFC4";
paths = (
{
closed = 1;
nodes = (
"115 -10 OFFCURVE",
"122 0 OFFCURVE",
"170 0 CURVE SMOOTH",
"211 0 OFFCURVE",
"220 -10 OFFCURVE",
"251 -10 CURVE SMOOTH",
"272 -10 OFFCURVE",
"281 -1 OFFCURVE",
"281 10 CURVE SMOOTH",
"281 19 OFFCURVE",
"273 25 OFFCURVE",
"261 30 CURVE SMOOTH",
"249 35 OFFCURVE",
"238 45 OFFCURVE",
"231 60 CURVE SMOOTH",
"225 74 OFFCURVE",
"221 94 OFFCURVE",
"221 130 CURVE SMOOTH",
"221 382 LINE SMOOTH",
"221 410 OFFCURVE",
"227 422 OFFCURVE",
"251 422 CURVE SMOOTH",
"373 422 LINE SMOOTH",
"389 422 OFFCURVE",
"398 433 OFFCURVE",
"398 447 CURVE SMOOTH",
"398 461 OFFCURVE",
"391 472 OFFCURVE",
"373 472 CURVE SMOOTH",
"251 472 LINE SMOOTH",
"229 472 OFFCURVE",
"221 485 OFFCURVE",
"221 512 CURVE SMOOTH",
"221 622 OFFCURVE",
"247 676 OFFCURVE",
"287 676 CURVE SMOOTH",
"315 676 OFFCURVE",
"331 652 OFFCURVE",
"347 619 CURVE SMOOTH",
"362 588 OFFCURVE",
"379 572 OFFCURVE",
"399 572 CURVE SMOOTH",
"420 572 OFFCURVE",
"447 589 OFFCURVE",
"447 630 CURVE SMOOTH",
"447 688 OFFCURVE",
"394 736 OFFCURVE",
"327 736 CURVE SMOOTH",
"289 736 OFFCURVE",
"262 732 OFFCURVE",
"221 708 CURVE SMOOTH",
"181 684 OFFCURVE",
"156 642 OFFCURVE",
"143 610 CURVE SMOOTH",
"130 578 OFFCURVE",
"122 540 OFFCURVE",
"117 512 CURVE SMOOTH",
"112 486 OFFCURVE",
"110 472 OFFCURVE",
"80 472 CURVE SMOOTH",
"40 472 LINE SMOOTH",
"19 472 OFFCURVE",
"10 462 OFFCURVE",
"10 447 CURVE SMOOTH",
"10 432 OFFCURVE",
"19 422 OFFCURVE",
"35 422 CURVE SMOOTH",
"80 422 LINE SMOOTH",
"103 422 OFFCURVE",
"111 410 OFFCURVE",
"111 383 CURVE SMOOTH",
"111 130 LINE SMOOTH",
"111 93 OFFCURVE",
"110 69 OFFCURVE",
"97 50 CURVE SMOOTH",
"85 32 OFFCURVE",
"68 25 OFFCURVE",
"68 10 CURVE SMOOTH",
"68 -4 OFFCURVE",
"77 -10 OFFCURVE",
"91 -10 CURVE SMOOTH"
);
}
);
width = 427;
},
{
layerId = "9D9E1BAB-54C5-4388-83C1-CB7B88B482E6";
paths = (
{
closed = 1;
nodes = (
"125 -10 OFFCURVE",
"132 0 OFFCURVE",
"200 0 CURVE SMOOTH",
"261 0 OFFCURVE",
"270 -10 OFFCURVE",
"301 -10 CURVE SMOOTH",
"322 -10 OFFCURVE",
"331 -1 OFFCURVE",
"331 10 CURVE SMOOTH",
"331 19 OFFCURVE",
"323 25 OFFCURVE",
"311 30 CURVE SMOOTH",
"299 35 OFFCURVE",
"288 45 OFFCURVE",
"281 60 CURVE SMOOTH",
"275 74 OFFCURVE",
"271 94 OFFCURVE",
"271 130 CURVE SMOOTH",
"271 362 LINE SMOOTH",
"271 390 OFFCURVE",
"277 402 OFFCURVE",
"301 402 CURVE SMOOTH",
"423 402 LINE SMOOTH",
"444 402 OFFCURVE",
"458 418 OFFCURVE",
"458 437 CURVE SMOOTH",
"458 456 OFFCURVE",
"446 472 OFFCURVE",
"423 472 CURVE SMOOTH",
"301 472 LINE SMOOTH",
"279 472 OFFCURVE",
"271 485 OFFCURVE",
"271 512 CURVE SMOOTH",
"271 622 OFFCURVE",
"292 656 OFFCURVE",
"317 656 CURVE SMOOTH",
"341 656 OFFCURVE",
"353 642 OFFCURVE",
"367 609 CURVE SMOOTH",
"382 573 OFFCURVE",
"402 552 OFFCURVE",
"439 552 CURVE SMOOTH",
"470 552 OFFCURVE",
"497 579 OFFCURVE",
"497 620 CURVE SMOOTH",
"497 682 OFFCURVE",
"441 736 OFFCURVE",
"357 736 CURVE SMOOTH",
"319 736 OFFCURVE",
"274 731 OFFCURVE",
"234 705 CURVE SMOOTH",
"194 679 OFFCURVE",
"166 642 OFFCURVE",
"153 610 CURVE SMOOTH",
"140 578 OFFCURVE",
"132 540 OFFCURVE",
"127 512 CURVE SMOOTH",
"122 486 OFFCURVE",
"120 472 OFFCURVE",
"90 472 CURVE SMOOTH",
"50 472 LINE SMOOTH",
"24 472 OFFCURVE",
"10 457 OFFCURVE",
"10 437 CURVE SMOOTH",
"10 417 OFFCURVE",
"24 402 OFFCURVE",
"45 402 CURVE SMOOTH",
"90 402 LINE SMOOTH",
"113 402 OFFCURVE",
"121 390 OFFCURVE",
"121 363 CURVE SMOOTH",
"121 130 LINE SMOOTH",
"121 93 OFFCURVE",
"120 69 OFFCURVE",
"107 50 CURVE SMOOTH",
"95 32 OFFCURVE",
"78 25 OFFCURVE",
"78 10 CURVE SMOOTH",
"78 -4 OFFCURVE",
"87 -10 OFFCURVE",
"101 -10 CURVE SMOOTH"
);
}
);
width = 477;
}
);
leftKerningGroup = f;
rightKerningGroup = f;
unicode = 0066;
},
{
color = 1;
glyphname = g;
lastChange = "2021-12-12 09:13:31 +0000";
layers = (
{
anchors = (
{
name = bottom;
position = "{268, -240}";
},
{
name = top;
position = "{245, 498}";
}
);
layerId = "083550D2-F2E8-44E3-BE3D-E8BDF41EDFC4";
paths = (
{
closed = 1;
nodes = (
"439 -244 OFFCURVE",
"530 -168 OFFCURVE",
"530 -69 CURVE SMOOTH",
"530 27 OFFCURVE",
"446 88 OFFCURVE",
"304 88 CURVE SMOOTH",
"275 88 OFFCURVE",
"252 86 OFFCURVE",
"225 83 CURVE SMOOTH",
"212 82 OFFCURVE",
"187 79 OFFCURVE",
"167 79 CURVE SMOOTH",
"144 79 OFFCURVE",
"126 86 OFFCURVE",
"115 98 CURVE SMOOTH",
"107 107 OFFCURVE",
"102 118 OFFCURVE",
"102 130 CURVE SMOOTH",
"102 147 OFFCURVE",
"110 159 OFFCURVE",
"123 165 CURVE SMOOTH",
"130 168 OFFCURVE",
"139 170 OFFCURVE",
"149 170 CURVE SMOOTH",
"156 170 OFFCURVE",
"165 169 OFFCURVE",
"174 167 CURVE SMOOTH",
"197 162 OFFCURVE",
"240 150 OFFCURVE",
"295 150 CURVE SMOOTH",
"352 150 OFFCURVE",
"402 164 OFFCURVE",
"437 195 CURVE SMOOTH",
"469 223 OFFCURVE",
"490 264 OFFCURVE",
"490 317 CURVE SMOOTH",
"490 369 OFFCURVE",
"463 407 OFFCURVE",
"441 432 CURVE SMOOTH",
"431 444 OFFCURVE",
"421 458 OFFCURVE",
"421 472 CURVE SMOOTH",
"421 485 OFFCURVE",
"430 492 OFFCURVE",
"439 492 CURVE SMOOTH",
"446 492 OFFCURVE",
"452 486 OFFCURVE",
"454 472 CURVE SMOOTH",
"458 447 OFFCURVE",
"475 432 OFFCURVE",
"496 432 CURVE SMOOTH",
"531 432 OFFCURVE",
"555 463 OFFCURVE",
"555 499 CURVE SMOOTH",
"555 542 OFFCURVE",
"522 579 OFFCURVE",
"474 579 CURVE SMOOTH",
"438 579 OFFCURVE",
"412 565 OFFCURVE",
"395 540 CURVE SMOOTH",
"384 524 OFFCURVE",
"380 505 OFFCURVE",
"380 482 CURVE SMOOTH",
"380 474 OFFCURVE",
"378 472 OFFCURVE",
"373 472 CURVE SMOOTH",
"372 472 OFFCURVE",
"371 472 OFFCURVE",
"370 472 CURVE SMOOTH",
"354 474 OFFCURVE",
"332 482 OFFCURVE",
"285 482 CURVE SMOOTH",
"155 482 OFFCURVE",
"82 417 OFFCURVE",
"82 327 CURVE SMOOTH",
"82 296 OFFCURVE",
"87 274 OFFCURVE",
"95 256 CURVE SMOOTH",
"101 242 OFFCURVE",
"107 235 OFFCURVE",
"111 229 CURVE SMOOTH",
"116 222 OFFCURVE",
"115 218 OFFCURVE",
"106 218 CURVE SMOOTH",
"86 218 OFFCURVE",
"63 211 OFFCURVE",
"47 196 CURVE SMOOTH",
"30 180 OFFCURVE",
"20 158 OFFCURVE",
"20 124 CURVE SMOOTH",
"20 92 OFFCURVE",
"34 64 OFFCURVE",
"53 47 CURVE SMOOTH",
"74 29 OFFCURVE",
"97 20 OFFCURVE",
"126 17 CURVE SMOOTH",
"131 17 OFFCURVE",
"134 15 OFFCURVE",
"134 13 CURVE SMOOTH",
"134 10 OFFCURVE",
"131 8 OFFCURVE",
"126 7 CURVE SMOOTH",
"70 -2 OFFCURVE",
"31 -34 OFFCURVE",
"31 -91 CURVE SMOOTH",
"31 -174 OFFCURVE",
"106 -244 OFFCURVE",
"265 -244 CURVE SMOOTH"
);
},
{
closed = 1;
nodes = (
"164 -194 OFFCURVE",
"121 -151 OFFCURVE",
"121 -96 CURVE SMOOTH",
"121 -35 OFFCURVE",
"176 0 OFFCURVE",
"265 0 CURVE SMOOTH",
"361 0 OFFCURVE",
"410 -36 OFFCURVE",
"410 -94 CURVE SMOOTH",
"410 -154 OFFCURVE",
"355 -194 OFFCURVE",
"265 -194 CURVE SMOOTH"
);
},
{
closed = 1;
nodes = (
"227 200 OFFCURVE",
"192 238 OFFCURVE",
"192 317 CURVE SMOOTH",
"192 391 OFFCURVE",
"226 432 OFFCURVE",
"285 432 CURVE SMOOTH",
"349 432 OFFCURVE",
"380 389 OFFCURVE",
"380 317 CURVE SMOOTH",
"380 242 OFFCURVE",
"341 200 OFFCURVE",
"285 200 CURVE SMOOTH"
);
}
);
width = 565;
},
{
associatedMasterId = "083550D2-F2E8-44E3-BE3D-E8BDF41EDFC4";
layerId = "0AAF2CB4-2EBD-42C4-BAB4-4CEC92C737FB";
width = 600;
},
{
anchors = (
{
name = bottom;
position = "{288, -240}";
},
{
name = top;
position = "{265, 498}";
}
);
layerId = "9D9E1BAB-54C5-4388-83C1-CB7B88B482E6";
paths = (
{
closed = 1;
nodes = (
"469 -244 OFFCURVE",
"570 -168 OFFCURVE",
"570 -69 CURVE SMOOTH",
"570 27 OFFCURVE",
"496 88 OFFCURVE",
"324 88 CURVE SMOOTH",
"295 88 OFFCURVE",
"272 86 OFFCURVE",
"245 83 CURVE SMOOTH",
"232 82 OFFCURVE",
"207 79 OFFCURVE",
"187 79 CURVE SMOOTH",
"164 79 OFFCURVE",
"146 86 OFFCURVE",
"135 98 CURVE SMOOTH",
"127 107 OFFCURVE",
"122 118 OFFCURVE",
"122 130 CURVE SMOOTH",
"122 147 OFFCURVE",
"130 159 OFFCURVE",
"143 165 CURVE SMOOTH",
"150 168 OFFCURVE",
"159 170 OFFCURVE",
"169 170 CURVE SMOOTH",
"176 170 OFFCURVE",
"185 169 OFFCURVE",
"194 167 CURVE SMOOTH",
"217 162 OFFCURVE",
"260 150 OFFCURVE",
"315 150 CURVE SMOOTH",
"379 150 OFFCURVE",
"437 166 OFFCURVE",
"473 196 CURVE SMOOTH",
"505 223 OFFCURVE",
"530 264 OFFCURVE",
"530 317 CURVE SMOOTH",
"530 369 OFFCURVE",
"494 410 OFFCURVE",
"469 435 CURVE SMOOTH",
"455 449 OFFCURVE",
"446 463 OFFCURVE",
"446 477 CURVE SMOOTH",
"446 486 OFFCURVE",
"452 492 OFFCURVE",
"460 492 CURVE SMOOTH",
"467 492 OFFCURVE",
"471 486 OFFCURVE",
"474 477 CURVE SMOOTH",
"484 445 OFFCURVE",
"501 422 OFFCURVE",
"531 422 CURVE SMOOTH",
"575 422 OFFCURVE",
"595 459 OFFCURVE",
"595 499 CURVE SMOOTH",
"595 542 OFFCURVE",
"562 589 OFFCURVE",
"504 589 CURVE SMOOTH",
"461 589 OFFCURVE",
"435 572 OFFCURVE",
"418 547 CURVE SMOOTH",
"407 531 OFFCURVE",
"400 505 OFFCURVE",
"400 482 CURVE SMOOTH",
"400 474 OFFCURVE",
"398 472 OFFCURVE",
"393 472 CURVE SMOOTH",
"392 472 OFFCURVE",
"391 472 OFFCURVE",
"390 472 CURVE SMOOTH",
"374 472 OFFCURVE",
"352 482 OFFCURVE",
"305 482 CURVE SMOOTH",
"155 482 OFFCURVE",
"82 417 OFFCURVE",
"82 327 CURVE SMOOTH",
"82 296 OFFCURVE",
"87 274 OFFCURVE",
"95 256 CURVE SMOOTH",
"101 242 OFFCURVE",
"107 235 OFFCURVE",
"111 229 CURVE SMOOTH",
"116 222 OFFCURVE",
"115 218 OFFCURVE",
"106 218 CURVE SMOOTH",
"86 218 OFFCURVE",
"63 211 OFFCURVE",
"47 196 CURVE SMOOTH",
"30 180 OFFCURVE",
"20 158 OFFCURVE",
"20 124 CURVE SMOOTH",
"20 92 OFFCURVE",
"34 64 OFFCURVE",
"53 47 CURVE SMOOTH",
"74 29 OFFCURVE",
"97 17 OFFCURVE",
"126 17 CURVE SMOOTH",
"131 17 OFFCURVE",
"134 15 OFFCURVE",
"134 13 CURVE SMOOTH",
"134 10 OFFCURVE",
"131 8 OFFCURVE",
"126 7 CURVE SMOOTH",
"70 -4 OFFCURVE",
"31 -34 OFFCURVE",
"31 -91 CURVE SMOOTH",
"31 -174 OFFCURVE",
"106 -244 OFFCURVE",
"285 -244 CURVE SMOOTH"
);
},
{
closed = 1;
nodes = (
"198 -174 OFFCURVE",
"161 -140 OFFCURVE",
"161 -96 CURVE SMOOTH",
"161 -48 OFFCURVE",
"208 -20 OFFCURVE",
"285 -20 CURVE SMOOTH",
"368 -20 OFFCURVE",
"410 -49 OFFCURVE",
"410 -95 CURVE SMOOTH",
"410 -142 OFFCURVE",
"363 -174 OFFCURVE",
"285 -174 CURVE SMOOTH"
);
},
{
closed = 1;
nodes = (
"260 220 OFFCURVE",
"232 251 OFFCURVE",
"232 317 CURVE SMOOTH",
"232 378 OFFCURVE",
"259 412 OFFCURVE",
"305 412 CURVE SMOOTH",
"356 412 OFFCURVE",
"380 376 OFFCURVE",
"380 317 CURVE SMOOTH",
"380 255 OFFCURVE",
"349 220 OFFCURVE",
"305 220 CURVE SMOOTH"
);
}
);
width = 605;
},
{
associatedMasterId = "9D9E1BAB-54C5-4388-83C1-CB7B88B482E6";
layerId = "20799AC6-2E23-44E3-AB01-606D75D1CE66";
width = 600;
}
);
leftKerningGroup = g;
rightKerningGroup = g;
unicode = 0067;
},
{
color = 1;
glyphname = h;
lastChange = "2021-05-29 16:39:46 +0000";
layers = (
{
anchors = (
{
name = bottom;
position = "{308, 0}";
},
{
name = center;
position = "{188, 574}";
},
{
name = top;
position = "{408, 568}";
}
);
layerId = "083550D2-F2E8-44E3-BE3D-E8BDF41EDFC4";
paths = (
{
closed = 1;
nodes = (
"104 -10 OFFCURVE",
"111 0 OFFCURVE",
"159 0 CURVE SMOOTH",
"200 0 OFFCURVE",
"209 -10 OFFCURVE",
"240 -10 CURVE SMOOTH",
"261 -10 OFFCURVE",
"270 -1 OFFCURVE",
"270 10 CURVE SMOOTH",
"270 19 OFFCURVE",
"262 25 OFFCURVE",
"250 30 CURVE SMOOTH",
"238 35 OFFCURVE",
"227 45 OFFCURVE",
"220 60 CURVE SMOOTH",
"214 73 OFFCURVE",
"210 102 OFFCURVE",
"210 136 CURVE SMOOTH",
"211 344 OFFCURVE",
"280 422 OFFCURVE",
"345 422 CURVE SMOOTH",
"413 422 OFFCURVE",
"440 350 OFFCURVE",
"440 217 CURVE SMOOTH",
"440 130 LINE SMOOTH",
"440 93 OFFCURVE",
"439 69 OFFCURVE",
"426 50 CURVE SMOOTH",
"414 32 OFFCURVE",
"397 25 OFFCURVE",
"397 10 CURVE SMOOTH",
"397 -4 OFFCURVE",
"406 -10 OFFCURVE",
"420 -10 CURVE SMOOTH",
"444 -10 OFFCURVE",
"451 0 OFFCURVE",
"499 0 CURVE SMOOTH",
"540 0 OFFCURVE",
"549 -10 OFFCURVE",
"580 -10 CURVE SMOOTH",
"601 -10 OFFCURVE",
"610 -1 OFFCURVE",
"610 10 CURVE SMOOTH",
"610 19 OFFCURVE",
"602 25 OFFCURVE",
"590 30 CURVE SMOOTH",
"578 35 OFFCURVE",
"567 45 OFFCURVE",
"560 60 CURVE SMOOTH",
"554 74 OFFCURVE",
"550 104 OFFCURVE",
"550 140 CURVE SMOOTH",
"550 217 LINE SMOOTH",
"550 401 OFFCURVE",
"485 482 OFFCURVE",
"375 482 CURVE SMOOTH",
"296 482 OFFCURVE",
"252 440 OFFCURVE",
"221 395 CURVE SMOOTH",
"217 390 OFFCURVE",
"214 387 OFFCURVE",
"211 387 CURVE SMOOTH",
"207 387 OFFCURVE",
"205 391 OFFCURVE",
"205 400 CURVE SMOOTH",
"205 403 OFFCURVE",
"206 406 OFFCURVE",
"206 409 CURVE SMOOTH",
"210 438 OFFCURVE",
"210 457 OFFCURVE",
"210 501 CURVE SMOOTH",
"210 606 LINE SMOOTH",
"210 652 OFFCURVE",
"210 683 OFFCURVE",
"219 706 CURVE SMOOTH",
"227 725 OFFCURVE",
"230 733 OFFCURVE",
"230 741 CURVE SMOOTH",
"230 751 OFFCURVE",
"225 756 OFFCURVE",
"213 756 CURVE SMOOTH",
"192 756 OFFCURVE",
"184 746 OFFCURVE",
"128 746 CURVE SMOOTH",
"70 746 LINE SMOOTH",
"48 746 OFFCURVE",
"40 736 OFFCURVE",
"40 726 CURVE SMOOTH",
"40 714 OFFCURVE",
"48 706 OFFCURVE",
"60 706 CURVE SMOOTH",
"77 706 OFFCURVE",
"85 699 OFFCURVE",
"90 686 CURVE SMOOTH",
"97 667 OFFCURVE",
"100 644 OFFCURVE",
"100 606 CURVE SMOOTH",
"100 130 LINE SMOOTH",
"100 93 OFFCURVE",
"99 69 OFFCURVE",
"86 50 CURVE SMOOTH",
"74 32 OFFCURVE",
"57 25 OFFCURVE",
"57 10 CURVE SMOOTH",
"57 -4 OFFCURVE",
"66 -10 OFFCURVE",
"80 -10 CURVE SMOOTH"
);
}
);
width = 640;
},
{
anchors = (
{
name = bottom;
position = "{318, 0}";
},
{
name = center;
position = "{198, 574}";
},
{
name = top;
position = "{418, 568}";
}
);
layerId = "9D9E1BAB-54C5-4388-83C1-CB7B88B482E6";
paths = (
{
closed = 1;
nodes = (
"94 -10 OFFCURVE",
"101 0 OFFCURVE",
"169 0 CURVE SMOOTH",
"230 0 OFFCURVE",
"239 -10 OFFCURVE",
"270 -10 CURVE SMOOTH",
"291 -10 OFFCURVE",
"300 -1 OFFCURVE",
"300 10 CURVE SMOOTH",
"300 19 OFFCURVE",
"292 25 OFFCURVE",
"280 30 CURVE SMOOTH",
"268 35 OFFCURVE",
"257 45 OFFCURVE",
"250 60 CURVE SMOOTH",
"244 73 OFFCURVE",
"240 102 OFFCURVE",
"240 136 CURVE SMOOTH",
"240 344 OFFCURVE",
"310 402 OFFCURVE",
"355 402 CURVE SMOOTH",
"403 402 OFFCURVE",
"430 350 OFFCURVE",
"430 217 CURVE SMOOTH",
"430 130 LINE SMOOTH",
"430 93 OFFCURVE",
"429 69 OFFCURVE",
"416 50 CURVE SMOOTH",
"404 32 OFFCURVE",
"387 25 OFFCURVE",
"387 10 CURVE SMOOTH",
"387 -4 OFFCURVE",
"396 -10 OFFCURVE",
"410 -10 CURVE SMOOTH",
"434 -10 OFFCURVE",
"441 0 OFFCURVE",
"509 0 CURVE SMOOTH",
"570 0 OFFCURVE",
"579 -10 OFFCURVE",
"610 -10 CURVE SMOOTH",
"631 -10 OFFCURVE",
"640 -1 OFFCURVE",
"640 10 CURVE SMOOTH",
"640 19 OFFCURVE",
"632 25 OFFCURVE",
"620 30 CURVE SMOOTH",
"608 35 OFFCURVE",
"597 45 OFFCURVE",
"590 60 CURVE SMOOTH",
"584 74 OFFCURVE",
"580 104 OFFCURVE",
"580 140 CURVE SMOOTH",
"580 217 LINE SMOOTH",
"580 401 OFFCURVE",
"515 482 OFFCURVE",
"395 482 CURVE SMOOTH",
"330 482 OFFCURVE",
"277 454 OFFCURVE",
"251 415 CURVE SMOOTH",
"247 409 OFFCURVE",
"244 407 OFFCURVE",
"241 407 CURVE SMOOTH",
"237 407 OFFCURVE",
"235 411 OFFCURVE",
"235 420 CURVE SMOOTH",
"235 423 OFFCURVE",
"236 426 OFFCURVE",
"236 429 CURVE SMOOTH",
"236 442 OFFCURVE",
"240 457 OFFCURVE",
"240 501 CURVE",
"240 606 LINE",
"240 652 OFFCURVE",
"239 683 OFFCURVE",
"249 706 CURVE SMOOTH",
"257 725 OFFCURVE",
"260 733 OFFCURVE",
"260 741 CURVE SMOOTH",
"260 751 OFFCURVE",
"255 756 OFFCURVE",
"243 756 CURVE SMOOTH",
"222 756 OFFCURVE",
"174 746 OFFCURVE",
"118 746 CURVE SMOOTH",
"60 746 LINE SMOOTH",
"38 746 OFFCURVE",
"30 736 OFFCURVE",
"30 726 CURVE SMOOTH",
"30 714 OFFCURVE",
"38 706 OFFCURVE",
"50 706 CURVE SMOOTH",
"67 706 OFFCURVE",
"75 699 OFFCURVE",
"80 686 CURVE SMOOTH",
"87 667 OFFCURVE",
"90 644 OFFCURVE",
"90 606 CURVE SMOOTH",
"90 130 LINE SMOOTH",
"90 93 OFFCURVE",
"89 69 OFFCURVE",
"76 50 CURVE SMOOTH",
"64 32 OFFCURVE",
"47 25 OFFCURVE",
"47 10 CURVE SMOOTH",
"47 -4 OFFCURVE",
"56 -10 OFFCURVE",
"70 -10 CURVE SMOOTH"
);
}
);
width = 660;
}
);
leftKerningGroup = h;
leftMetricsKey = n;
rightKerningGroup = n;
rightMetricsKey = n;
unicode = 0068;
},
{
color = 1;
glyphname = i;
lastChange = "2021-05-29 16:39:46 +0000";
layers = (
{
anchors = (
{
name = bottom;
position = "{147, 0}";
}
);
layerId = "083550D2-F2E8-44E3-BE3D-E8BDF41EDFC4";
paths = (
{
closed = 1;
nodes = (
"94 -10 OFFCURVE",
"101 0 OFFCURVE",
"149 0 CURVE SMOOTH",
"190 0 OFFCURVE",
"199 -10 OFFCURVE",
"230 -10 CURVE SMOOTH",
"251 -10 OFFCURVE",
"260 -1 OFFCURVE",
"260 10 CURVE SMOOTH",
"260 19 OFFCURVE",
"252 25 OFFCURVE",
"240 30 CURVE SMOOTH",
"228 35 OFFCURVE",
"217 45 OFFCURVE",
"210 60 CURVE SMOOTH",
"204 74 OFFCURVE",
"200 104 OFFCURVE",
"200 140 CURVE SMOOTH",
"200 332 LINE SMOOTH",
"200 378 OFFCURVE",
"200 409 OFFCURVE",
"209 432 CURVE SMOOTH",
"217 451 OFFCURVE",
"220 459 OFFCURVE",
"220 467 CURVE SMOOTH",
"220 477 OFFCURVE",
"215 482 OFFCURVE",
"203 482 CURVE SMOOTH",
"182 482 OFFCURVE",
"174 472 OFFCURVE",
"118 472 CURVE SMOOTH",
"60 472 LINE SMOOTH",
"38 472 OFFCURVE",
"30 462 OFFCURVE",
"30 452 CURVE SMOOTH",
"30 440 OFFCURVE",
"38 432 OFFCURVE",
"50 432 CURVE SMOOTH",
"67 432 OFFCURVE",
"75 425 OFFCURVE",
"80 412 CURVE SMOOTH",
"87 393 OFFCURVE",
"90 370 OFFCURVE",
"90 332 CURVE SMOOTH",
"90 130 LINE SMOOTH",
"90 93 OFFCURVE",
"89 69 OFFCURVE",
"76 50 CURVE SMOOTH",
"64 32 OFFCURVE",
"47 25 OFFCURVE",
"47 10 CURVE SMOOTH",
"47 -4 OFFCURVE",
"56 -10 OFFCURVE",
"70 -10 CURVE SMOOTH"
);
},
{
closed = 1;
nodes = (
"186 566 OFFCURVE",
"220 600 OFFCURVE",
"220 641 CURVE SMOOTH",
"220 682 OFFCURVE",
"186 716 OFFCURVE",
"145 716 CURVE SMOOTH",
"104 716 OFFCURVE",
"70 682 OFFCURVE",
"70 641 CURVE SMOOTH",
"70 600 OFFCURVE",
"104 566 OFFCURVE",
"145 566 CURVE SMOOTH"
);
}
);
width = 290;
},
{
anchors = (
{
name = bottom;
position = "{167, 0}";
}
);
layerId = "9D9E1BAB-54C5-4388-83C1-CB7B88B482E6";
paths = (
{
closed = 1;
nodes = (
"94 -10 OFFCURVE",
"101 0 OFFCURVE",
"169 0 CURVE SMOOTH",
"230 0 OFFCURVE",
"239 -10 OFFCURVE",
"270 -10 CURVE SMOOTH",
"291 -10 OFFCURVE",
"300 -1 OFFCURVE",
"300 10 CURVE SMOOTH",
"300 19 OFFCURVE",
"292 25 OFFCURVE",
"280 30 CURVE SMOOTH",
"268 35 OFFCURVE",
"257 45 OFFCURVE",
"250 60 CURVE SMOOTH",
"244 74 OFFCURVE",
"240 104 OFFCURVE",
"240 140 CURVE SMOOTH",
"240 332 LINE SMOOTH",
"240 378 OFFCURVE",
"239 409 OFFCURVE",
"249 432 CURVE SMOOTH",
"257 451 OFFCURVE",
"260 459 OFFCURVE",
"260 467 CURVE SMOOTH",
"260 477 OFFCURVE",
"255 482 OFFCURVE",
"243 482 CURVE SMOOTH",
"222 482 OFFCURVE",
"214 472 OFFCURVE",
"138 472 CURVE SMOOTH",
"60 472 LINE SMOOTH",
"38 472 OFFCURVE",
"30 462 OFFCURVE",
"30 452 CURVE SMOOTH",
"30 440 OFFCURVE",
"38 432 OFFCURVE",
"50 432 CURVE SMOOTH",
"67 432 OFFCURVE",
"75 425 OFFCURVE",
"80 412 CURVE SMOOTH",
"87 393 OFFCURVE",
"90 370 OFFCURVE",
"90 332 CURVE SMOOTH",
"90 130 LINE SMOOTH",
"90 93 OFFCURVE",
"89 69 OFFCURVE",
"76 50 CURVE SMOOTH",
"64 32 OFFCURVE",
"47 25 OFFCURVE",
"47 10 CURVE SMOOTH",
"47 -4 OFFCURVE",
"56 -10 OFFCURVE",
"70 -10 CURVE SMOOTH"
);
},
{
closed = 1;
nodes = (
"217 546 OFFCURVE",
"260 589 OFFCURVE",
"260 641 CURVE SMOOTH",
"260 693 OFFCURVE",
"217 736 OFFCURVE",
"165 736 CURVE SMOOTH",
"113 736 OFFCURVE",
"70 693 OFFCURVE",
"70 641 CURVE SMOOTH",
"70 589 OFFCURVE",
"113 546 OFFCURVE",
"165 546 CURVE SMOOTH"
);
}
);
width = 330;
}
);
leftKerningGroup = i;
rightKerningGroup = i;
unicode = 0069;
},
{
color = 1;
glyphname = j;
lastChange = "2021-05-29 17:04:44 +0000";
layers = (
{
layerId = "083550D2-F2E8-44E3-BE3D-E8BDF41EDFC4";
paths = (
{
closed = 1;
nodes = (
"64 -244 OFFCURVE",
"92 -213 OFFCURVE",
"123 -174 CURVE SMOOTH",
"161 -126 OFFCURVE",
"184 -72 OFFCURVE",
"184 18 CURVE SMOOTH",
"184 332 LINE SMOOTH",
"184 378 OFFCURVE",
"183 409 OFFCURVE",
"193 432 CURVE SMOOTH",
"201 451 OFFCURVE",
"204 459 OFFCURVE",
"204 467 CURVE SMOOTH",
"204 477 OFFCURVE",
"199 482 OFFCURVE",
"187 482 CURVE SMOOTH",
"166 482 OFFCURVE",
"158 472 OFFCURVE",
"102 472 CURVE SMOOTH",
"44 472 LINE SMOOTH",
"22 472 OFFCURVE",
"14 462 OFFCURVE",
"14 452 CURVE SMOOTH",
"14 440 OFFCURVE",
"22 432 OFFCURVE",
"34 432 CURVE SMOOTH",
"51 432 OFFCURVE",
"59 425 OFFCURVE",
"64 412 CURVE SMOOTH",
"71 393 OFFCURVE",
"74 370 OFFCURVE",
"74 332 CURVE SMOOTH",
"74 -23 LINE SMOOTH",
"74 -131 OFFCURVE",
"69 -165 OFFCURVE",
"39 -184 CURVE SMOOTH",
"20 -196 OFFCURVE",
"10 -209 OFFCURVE",
"10 -224 CURVE SMOOTH",
"10 -238 OFFCURVE",
"19 -244 OFFCURVE",
"33 -244 CURVE SMOOTH"
);
},
{
closed = 1;
nodes = (
"170 566 OFFCURVE",
"204 600 OFFCURVE",
"204 641 CURVE SMOOTH",
"204 682 OFFCURVE",
"170 716 OFFCURVE",
"129 716 CURVE SMOOTH",
"88 716 OFFCURVE",
"54 682 OFFCURVE",
"54 641 CURVE SMOOTH",
"54 600 OFFCURVE",
"88 566 OFFCURVE",
"129 566 CURVE SMOOTH"
);
}
);
width = 254;
},
{
layerId = "9D9E1BAB-54C5-4388-83C1-CB7B88B482E6";
paths = (
{
closed = 1;
nodes = (
"74 -244 OFFCURVE",
"99 -213 OFFCURVE",
"143 -174 CURVE SMOOTH",
"207 -118 OFFCURVE",
"224 -72 OFFCURVE",
"224 18 CURVE SMOOTH",
"224 332 LINE SMOOTH",
"224 378 OFFCURVE",
"223 409 OFFCURVE",
"233 432 CURVE SMOOTH",
"241 451 OFFCURVE",
"244 459 OFFCURVE",
"244 467 CURVE SMOOTH",
"244 477 OFFCURVE",
"239 482 OFFCURVE",
"227 482 CURVE SMOOTH",
"206 482 OFFCURVE",
"158 472 OFFCURVE",
"102 472 CURVE SMOOTH",
"44 472 LINE SMOOTH",
"22 472 OFFCURVE",
"14 462 OFFCURVE",
"14 452 CURVE SMOOTH",
"14 440 OFFCURVE",
"22 432 OFFCURVE",
"34 432 CURVE SMOOTH",
"51 432 OFFCURVE",
"59 425 OFFCURVE",
"64 412 CURVE SMOOTH",
"71 393 OFFCURVE",
"74 370 OFFCURVE",
"74 332 CURVE SMOOTH",
"74 -23 LINE SMOOTH",
"74 -131 OFFCURVE",
"69 -165 OFFCURVE",
"39 -184 CURVE SMOOTH",
"20 -196 OFFCURVE",
"10 -209 OFFCURVE",
"10 -224 CURVE SMOOTH",
"10 -238 OFFCURVE",
"19 -244 OFFCURVE",
"33 -244 CURVE SMOOTH"
);
},
{
closed = 1;
nodes = (
"201 546 OFFCURVE",
"244 589 OFFCURVE",
"244 641 CURVE SMOOTH",
"244 693 OFFCURVE",
"201 736 OFFCURVE",
"149 736 CURVE SMOOTH",
"97 736 OFFCURVE",
"54 693 OFFCURVE",
"54 641 CURVE SMOOTH",
"54 589 OFFCURVE",
"97 546 OFFCURVE",
"149 546 CURVE SMOOTH"
);
}
);
width = 294;
}
);
leftKerningGroup = j;
rightKerningGroup = j;
unicode = 006A;
},
{
color = 1;
glyphname = k;
lastChange = "2021-08-11 11:22:11 +0000";
layers = (
{
anchors = (
{
name = bottom;
position = "{323, 0}";
},
{
name = top;
position = "{223, 468}";
}
);
layerId = "083550D2-F2E8-44E3-BE3D-E8BDF41EDFC4";
paths = (
{
closed = 1;
nodes = (
"104 -10 OFFCURVE",
"111 0 OFFCURVE",
"159 0 CURVE SMOOTH",
"200 0 OFFCURVE",
"209 -10 OFFCURVE",
"240 -10 CURVE SMOOTH",
"261 -10 OFFCURVE",
"270 -1 OFFCURVE",
"270 10 CURVE SMOOTH",
"270 19 OFFCURVE",
"262 25 OFFCURVE",
"250 30 CURVE SMOOTH",
"238 35 OFFCURVE",
"227 45 OFFCURVE",
"220 60 CURVE SMOOTH",
"214 74 OFFCURVE",
"210 104 OFFCURVE",
"210 140 CURVE SMOOTH",
"210 144 LINE SMOOTH",
"210 184 OFFCURVE",
"219 199 OFFCURVE",
"240 209 CURVE SMOOTH",
"248 213 OFFCURVE",
"257 215 OFFCURVE",
"267 215 CURVE SMOOTH",
"279 215 OFFCURVE",
"292 212 OFFCURVE",
"305 204 CURVE SMOOTH",
"338 183 OFFCURVE",
"362 153 OFFCURVE",
"380 123 CURVE SMOOTH",
"395 98 OFFCURVE",
"408 68 OFFCURVE",
"408 50 CURVE SMOOTH",
"408 33 OFFCURVE",
"399 25 OFFCURVE",
"399 10 CURVE SMOOTH",
"399 -4 OFFCURVE",
"408 -10 OFFCURVE",
"422 -10 CURVE SMOOTH",
"446 -10 OFFCURVE",
"447 0 OFFCURVE",
"495 0 CURVE SMOOTH",
"536 0 OFFCURVE",
"541 -10 OFFCURVE",
"572 -10 CURVE SMOOTH",
"593 -10 OFFCURVE",
"600 -1 OFFCURVE",
"600 10 CURVE SMOOTH",
"600 19 OFFCURVE",
"594 25 OFFCURVE",
"582 30 CURVE SMOOTH",
"569 36 OFFCURVE",
"556 45 OFFCURVE",
"542 64 CURVE SMOOTH",
"528 83 OFFCURVE",
"512 109 OFFCURVE",
"494 142 CURVE SMOOTH",
"473 180 OFFCURVE",
"446 217 OFFCURVE",
"422 238 CURVE SMOOTH",
"404 254 OFFCURVE",
"387 264 OFFCURVE",
"374 271 CURVE SMOOTH",
"370 273 OFFCURVE",
"368 275 OFFCURVE",
"368 277 CURVE SMOOTH",
"368 279 OFFCURVE",
"370 282 OFFCURVE",
"374 284 CURVE SMOOTH",
"396 296 OFFCURVE",
"416 308 OFFCURVE",
"444 333 CURVE SMOOTH",
"488 372 OFFCURVE",
"526 422 OFFCURVE",
"526 460 CURVE SMOOTH",
"526 473 OFFCURVE",
"518 482 OFFCURVE",
"502 482 CURVE SMOOTH",
"481 482 OFFCURVE",
"473 472 OFFCURVE",
"440 472 CURVE SMOOTH",
"369 472 LINE SMOOTH",
"353 472 OFFCURVE",
"344 463 OFFCURVE",
"344 452 CURVE SMOOTH",
"344 441 OFFCURVE",
"351 431 OFFCURVE",
"364 431 CURVE SMOOTH",
"384 431 OFFCURVE",
"396 423 OFFCURVE",
"396 407 CURVE SMOOTH",
"396 393 OFFCURVE",
"387 372 OFFCURVE",
"366 343 CURVE SMOOTH",
"327 291 OFFCURVE",
"271 267 OFFCURVE",
"239 267 CURVE SMOOTH",
"217 267 OFFCURVE",
"210 275 OFFCURVE",
"210 297 CURVE SMOOTH",
"210 606 LINE SMOOTH",
"210 652 OFFCURVE",
"210 683 OFFCURVE",
"219 706 CURVE SMOOTH",
"227 725 OFFCURVE",
"230 733 OFFCURVE",
"230 741 CURVE SMOOTH",
"230 751 OFFCURVE",
"225 756 OFFCURVE",
"213 756 CURVE SMOOTH",
"192 756 OFFCURVE",
"184 746 OFFCURVE",
"128 746 CURVE SMOOTH",
"70 746 LINE SMOOTH",
"48 746 OFFCURVE",
"40 736 OFFCURVE",
"40 726 CURVE SMOOTH",
"40 714 OFFCURVE",
"48 706 OFFCURVE",
"60 706 CURVE SMOOTH",
"77 706 OFFCURVE",
"85 699 OFFCURVE",
"90 686 CURVE SMOOTH",
"97 667 OFFCURVE",
"100 644 OFFCURVE",
"100 606 CURVE SMOOTH",
"100 130 LINE SMOOTH",
"100 93 OFFCURVE",
"99 69 OFFCURVE",
"86 50 CURVE SMOOTH",
"74 32 OFFCURVE",
"57 25 OFFCURVE",
"57 10 CURVE SMOOTH",
"57 -4 OFFCURVE",
"66 -10 OFFCURVE",
"80 -10 CURVE SMOOTH"
);
}
);
width = 610;
},
{
associatedMasterId = "083550D2-F2E8-44E3-BE3D-E8BDF41EDFC4";
layerId = "0AAF2CB4-2EBD-42C4-BAB4-4CEC92C737FB";
width = 600;
},
{
anchors = (
{
name = bottom;
position = "{333, 0}";
},
{
name = top;
position = "{233, 468}";
}
);
layerId = "9D9E1BAB-54C5-4388-83C1-CB7B88B482E6";
paths = (
{
closed = 1;
nodes = (
"94 -10 OFFCURVE",
"101 0 OFFCURVE",
"169 0 CURVE SMOOTH",
"230 0 OFFCURVE",
"239 -10 OFFCURVE",
"270 -10 CURVE SMOOTH",
"291 -10 OFFCURVE",
"300 -1 OFFCURVE",
"300 10 CURVE SMOOTH",
"300 19 OFFCURVE",
"292 25 OFFCURVE",
"280 30 CURVE SMOOTH",
"268 35 OFFCURVE",
"257 45 OFFCURVE",
"250 60 CURVE SMOOTH",
"244 74 OFFCURVE",
"240 104 OFFCURVE",
"240 140 CURVE SMOOTH",
"240 144 LINE SMOOTH",
"240 184 OFFCURVE",
"252 197 OFFCURVE",
"272 208 CURVE SMOOTH",
"278 211 OFFCURVE",
"283 212 OFFCURVE",
"287 212 CURVE SMOOTH",
"292 212 OFFCURVE",
"298 210 OFFCURVE",
"305 204 CURVE SMOOTH",
"326 185 OFFCURVE",
"352 153 OFFCURVE",
"370 123 CURVE SMOOTH",
"385 98 OFFCURVE",
"398 68 OFFCURVE",
"398 50 CURVE SMOOTH",
"398 33 OFFCURVE",
"389 25 OFFCURVE",
"389 10 CURVE SMOOTH",
"389 -4 OFFCURVE",
"398 -10 OFFCURVE",
"412 -10 CURVE SMOOTH",
"436 -10 OFFCURVE",
"437 0 OFFCURVE",
"505 0 CURVE SMOOTH",
"566 0 OFFCURVE",
"571 -10 OFFCURVE",
"602 -10 CURVE SMOOTH",
"623 -10 OFFCURVE",
"630 -1 OFFCURVE",
"630 10 CURVE SMOOTH",
"630 19 OFFCURVE",
"624 25 OFFCURVE",
"612 30 CURVE SMOOTH",
"599 36 OFFCURVE",
"586 45 OFFCURVE",
"572 64 CURVE SMOOTH",
"558 83 OFFCURVE",
"542 109 OFFCURVE",
"524 142 CURVE SMOOTH",
"503 180 OFFCURVE",
"473 224 OFFCURVE",
"452 249 CURVE SMOOTH",
"438 265 OFFCURVE",
"426 277 OFFCURVE",
"414 286 CURVE SMOOTH",
"410 289 OFFCURVE",
"408 292 OFFCURVE",
"408 294 CURVE SMOOTH",
"408 296 OFFCURVE",
"410 299 OFFCURVE",
"414 301 CURVE SMOOTH",
"436 312 OFFCURVE",
"446 316 OFFCURVE",
"474 337 CURVE SMOOTH",
"518 371 OFFCURVE",
"556 422 OFFCURVE",
"556 460 CURVE SMOOTH",
"556 473 OFFCURVE",
"548 482 OFFCURVE",
"532 482 CURVE SMOOTH",
"511 482 OFFCURVE",
"503 472 OFFCURVE",
"450 472 CURVE SMOOTH",
"359 472 LINE SMOOTH",
"343 472 OFFCURVE",
"334 463 OFFCURVE",
"334 452 CURVE SMOOTH",
"334 441 OFFCURVE",
"341 431 OFFCURVE",
"354 431 CURVE SMOOTH",
"374 431 OFFCURVE",
"386 423 OFFCURVE",
"386 407 CURVE SMOOTH",
"386 393 OFFCURVE",
"381 370 OFFCURVE",
"356 343 CURVE SMOOTH",
"325 309 OFFCURVE",
"296 287 OFFCURVE",
"269 287 CURVE SMOOTH",
"247 287 OFFCURVE",
"240 295 OFFCURVE",
"240 317 CURVE SMOOTH",
"240 606 LINE SMOOTH",
"240 652 OFFCURVE",
"239 683 OFFCURVE",
"249 706 CURVE SMOOTH",
"257 725 OFFCURVE",
"260 733 OFFCURVE",
"260 741 CURVE SMOOTH",
"260 751 OFFCURVE",
"255 756 OFFCURVE",
"243 756 CURVE SMOOTH",
"222 756 OFFCURVE",
"174 746 OFFCURVE",
"118 746 CURVE SMOOTH",
"60 746 LINE SMOOTH",
"38 746 OFFCURVE",
"30 736 OFFCURVE",
"30 726 CURVE SMOOTH",
"30 714 OFFCURVE",
"38 706 OFFCURVE",
"50 706 CURVE SMOOTH",
"67 706 OFFCURVE",
"75 699 OFFCURVE",
"80 686 CURVE SMOOTH",
"87 667 OFFCURVE",
"90 644 OFFCURVE",
"90 606 CURVE SMOOTH",
"90 130 LINE SMOOTH",
"90 93 OFFCURVE",
"89 69 OFFCURVE",
"76 50 CURVE SMOOTH",
"64 32 OFFCURVE",
"47 25 OFFCURVE",
"47 10 CURVE SMOOTH",
"47 -4 OFFCURVE",
"56 -10 OFFCURVE",
"70 -10 CURVE SMOOTH"
);
}
);
width = 640;
},
{
associatedMasterId = "9D9E1BAB-54C5-4388-83C1-CB7B88B482E6";
layerId = "08EFD50B-376E-4C3B-8C00-6B51EB88310B";
width = 600;
}
);
leftKerningGroup = h;
leftMetricsKey = n;
rightKerningGroup = k;
unicode = 006B;
},
{
color = 1;
glyphname = l;
lastChange = "2021-05-29 16:39:46 +0000";
layers = (
{
anchors = (
{
name = bottom;
position = "{161, 0}";
},
{
name = center;
position = "{155, 404}";
},
{
name = top;
position = "{152, 745}";
},
{
name = topright;
position = "{232, 568}";
}
);
layerId = "083550D2-F2E8-44E3-BE3D-E8BDF41EDFC4";
paths = (
{
closed = 1;
nodes = (
"104 -10 OFFCURVE",
"111 0 OFFCURVE",
"159 0 CURVE SMOOTH",
"200 0 OFFCURVE",
"209 -10 OFFCURVE",
"240 -10 CURVE SMOOTH",
"261 -10 OFFCURVE",
"270 -1 OFFCURVE",
"270 10 CURVE SMOOTH",
"270 19 OFFCURVE",
"262 25 OFFCURVE",
"250 30 CURVE SMOOTH",
"238 35 OFFCURVE",
"227 45 OFFCURVE",
"220 60 CURVE SMOOTH",
"214 74 OFFCURVE",
"210 104 OFFCURVE",
"210 140 CURVE SMOOTH",
"210 606 LINE SMOOTH",
"210 652 OFFCURVE",
"209 683 OFFCURVE",
"219 706 CURVE SMOOTH",
"227 725 OFFCURVE",
"230 733 OFFCURVE",
"230 741 CURVE SMOOTH",
"230 751 OFFCURVE",
"225 756 OFFCURVE",
"213 756 CURVE SMOOTH",
"192 756 OFFCURVE",
"184 746 OFFCURVE",
"128 746 CURVE SMOOTH",
"70 746 LINE SMOOTH",
"48 746 OFFCURVE",
"40 736 OFFCURVE",
"40 726 CURVE SMOOTH",
"40 714 OFFCURVE",
"48 706 OFFCURVE",
"60 706 CURVE SMOOTH",
"77 706 OFFCURVE",
"85 699 OFFCURVE",
"90 686 CURVE SMOOTH",
"97 667 OFFCURVE",
"100 644 OFFCURVE",
"100 606 CURVE SMOOTH",
"100 130 LINE SMOOTH",
"100 93 OFFCURVE",
"99 69 OFFCURVE",
"86 50 CURVE SMOOTH",
"74 32 OFFCURVE",
"57 25 OFFCURVE",
"57 10 CURVE SMOOTH",
"57 -4 OFFCURVE",
"66 -10 OFFCURVE",
"80 -10 CURVE SMOOTH"
);
}
);
width = 300;
},
{
associatedMasterId = "083550D2-F2E8-44E3-BE3D-E8BDF41EDFC4";
layerId = "0AAF2CB4-2EBD-42C4-BAB4-4CEC92C737FB";
width = 600;
},
{
anchors = (
{
name = bottom;
position = "{171, 0}";
},
{
name = center;
position = "{165, 404}";
},
{
name = top;
position = "{162, 745}";
},
{
name = topright;
position = "{242, 568}";
}
);
layerId = "9D9E1BAB-54C5-4388-83C1-CB7B88B482E6";
paths = (
{
closed = 1;
nodes = (
"94 -10 OFFCURVE",
"101 0 OFFCURVE",
"169 0 CURVE SMOOTH",
"230 0 OFFCURVE",
"239 -10 OFFCURVE",
"270 -10 CURVE SMOOTH",
"291 -10 OFFCURVE",
"300 -1 OFFCURVE",
"300 10 CURVE SMOOTH",
"300 19 OFFCURVE",
"292 25 OFFCURVE",
"280 30 CURVE SMOOTH",
"268 35 OFFCURVE",
"257 45 OFFCURVE",
"250 60 CURVE SMOOTH",
"244 74 OFFCURVE",
"240 104 OFFCURVE",
"240 140 CURVE SMOOTH",
"240 606 LINE SMOOTH",
"240 652 OFFCURVE",
"239 683 OFFCURVE",
"249 706 CURVE SMOOTH",
"257 725 OFFCURVE",
"260 733 OFFCURVE",
"260 741 CURVE SMOOTH",
"260 751 OFFCURVE",
"255 756 OFFCURVE",
"243 756 CURVE SMOOTH",
"222 756 OFFCURVE",
"194 746 OFFCURVE",
"118 746 CURVE SMOOTH",
"60 746 LINE SMOOTH",
"38 746 OFFCURVE",
"30 736 OFFCURVE",
"30 726 CURVE SMOOTH",
"30 714 OFFCURVE",
"38 706 OFFCURVE",
"50 706 CURVE SMOOTH",
"67 706 OFFCURVE",
"75 699 OFFCURVE",
"80 686 CURVE SMOOTH",
"87 667 OFFCURVE",
"90 644 OFFCURVE",
"90 606 CURVE SMOOTH",
"90 130 LINE SMOOTH",
"90 93 OFFCURVE",
"89 69 OFFCURVE",
"76 50 CURVE SMOOTH",
"64 32 OFFCURVE",
"47 25 OFFCURVE",
"47 10 CURVE SMOOTH",
"47 -4 OFFCURVE",
"56 -10 OFFCURVE",
"70 -10 CURVE SMOOTH"
);
}
);
width = 330;
}
);
leftKerningGroup = h;
leftMetricsKey = n;
rightKerningGroup = l;
unicode = 006C;
},
{
color = 1;
glyphname = m;
lastChange = "2021-05-29 16:39:46 +0000";
layers = (
{
layerId = "083550D2-F2E8-44E3-BE3D-E8BDF41EDFC4";
paths = (
{
closed = 1;
nodes = (
"104 -10 OFFCURVE",
"111 0 OFFCURVE",
"159 0 CURVE SMOOTH",
"200 0 OFFCURVE",
"209 -10 OFFCURVE",
"240 -10 CURVE SMOOTH",
"261 -10 OFFCURVE",
"270 -1 OFFCURVE",
"270 10 CURVE SMOOTH",
"270 19 OFFCURVE",
"262 25 OFFCURVE",
"250 30 CURVE SMOOTH",
"238 35 OFFCURVE",
"227 45 OFFCURVE",
"220 60 CURVE SMOOTH",
"214 74 OFFCURVE",
"210 94 OFFCURVE",
"210 130 CURVE SMOOTH",
"210 342 OFFCURVE",
"279 422 OFFCURVE",
"345 422 CURVE SMOOTH",
"413 422 OFFCURVE",
"440 350 OFFCURVE",
"440 217 CURVE SMOOTH",
"440 130 LINE SMOOTH",
"440 93 OFFCURVE",
"439 69 OFFCURVE",
"426 50 CURVE SMOOTH",
"414 32 OFFCURVE",
"397 25 OFFCURVE",
"397 10 CURVE SMOOTH",
"397 -4 OFFCURVE",
"406 -10 OFFCURVE",
"420 -10 CURVE SMOOTH",
"444 -10 OFFCURVE",
"451 0 OFFCURVE",
"499 0 CURVE SMOOTH",
"540 0 OFFCURVE",
"549 -10 OFFCURVE",
"580 -10 CURVE SMOOTH",
"601 -10 OFFCURVE",
"610 -1 OFFCURVE",
"610 10 CURVE SMOOTH",
"610 19 OFFCURVE",
"602 25 OFFCURVE",
"590 30 CURVE SMOOTH",
"578 35 OFFCURVE",
"567 45 OFFCURVE",
"560 60 CURVE SMOOTH",
"554 73 OFFCURVE",
"550 102 OFFCURVE",
"550 136 CURVE SMOOTH",
"551 315 OFFCURVE",
"612 422 OFFCURVE",
"685 422 CURVE SMOOTH",
"753 422 OFFCURVE",
"780 350 OFFCURVE",
"780 217 CURVE SMOOTH",
"780 130 LINE SMOOTH",
"780 93 OFFCURVE",
"779 69 OFFCURVE",
"766 50 CURVE SMOOTH",
"754 32 OFFCURVE",
"737 25 OFFCURVE",
"737 10 CURVE SMOOTH",
"737 -4 OFFCURVE",
"746 -10 OFFCURVE",
"760 -10 CURVE SMOOTH",
"784 -10 OFFCURVE",
"791 0 OFFCURVE",
"839 0 CURVE SMOOTH",
"880 0 OFFCURVE",
"889 -10 OFFCURVE",
"920 -10 CURVE SMOOTH",
"941 -10 OFFCURVE",
"950 -1 OFFCURVE",
"950 10 CURVE SMOOTH",
"950 19 OFFCURVE",
"942 25 OFFCURVE",
"930 30 CURVE SMOOTH",
"918 35 OFFCURVE",
"907 45 OFFCURVE",
"900 60 CURVE SMOOTH",
"894 74 OFFCURVE",
"890 104 OFFCURVE",
"890 140 CURVE SMOOTH",
"890 217 LINE SMOOTH",
"890 401 OFFCURVE",
"825 482 OFFCURVE",
"715 482 CURVE SMOOTH",
"631 482 OFFCURVE",
"582 429 OFFCURVE",
"547 365 CURVE SMOOTH",
"544 359 OFFCURVE",
"540 356 OFFCURVE",
"537 356 CURVE SMOOTH",
"535 356 OFFCURVE",
"533 358 OFFCURVE",
"531 361 CURVE",
"505 444 OFFCURVE",
"450 482 OFFCURVE",
"375 482 CURVE SMOOTH",
"291 482 OFFCURVE",
"238 429 OFFCURVE",
"209 382 CURVE SMOOTH",
"207 379 OFFCURVE",
"204 377 OFFCURVE",
"201 377 CURVE SMOOTH",
"196 377 OFFCURVE",
"191 382 OFFCURVE",
"191 395 CURVE SMOOTH",
"191 403 OFFCURVE",
"193 416 OFFCURVE",
"199 432 CURVE SMOOTH",
"207 451 OFFCURVE",
"210 459 OFFCURVE",
"210 467 CURVE SMOOTH",
"210 477 OFFCURVE",
"205 482 OFFCURVE",
"193 482 CURVE SMOOTH",
"172 482 OFFCURVE",
"164 472 OFFCURVE",
"108 472 CURVE SMOOTH",
"70 472 LINE SMOOTH",
"48 472 OFFCURVE",
"40 462 OFFCURVE",
"40 452 CURVE SMOOTH",
"40 440 OFFCURVE",
"48 432 OFFCURVE",
"60 432 CURVE SMOOTH",
"77 432 OFFCURVE",
"85 425 OFFCURVE",
"90 412 CURVE SMOOTH",
"97 393 OFFCURVE",
"100 370 OFFCURVE",
"100 332 CURVE SMOOTH",
"100 130 LINE SMOOTH",
"100 93 OFFCURVE",
"99 69 OFFCURVE",
"86 50 CURVE SMOOTH",
"74 32 OFFCURVE",
"57 25 OFFCURVE",
"57 10 CURVE SMOOTH",
"57 -4 OFFCURVE",
"66 -10 OFFCURVE",
"80 -10 CURVE SMOOTH"
);
}
);
width = 980;
},
{
associatedMasterId = "083550D2-F2E8-44E3-BE3D-E8BDF41EDFC4";
layerId = "0AAF2CB4-2EBD-42C4-BAB4-4CEC92C737FB";
width = 600;
},
{
layerId = "9D9E1BAB-54C5-4388-83C1-CB7B88B482E6";
paths = (
{
closed = 1;
nodes = (
"94 -10 OFFCURVE",
"101 0 OFFCURVE",
"169 0 CURVE SMOOTH",
"230 0 OFFCURVE",
"239 -10 OFFCURVE",
"270 -10 CURVE SMOOTH",
"291 -10 OFFCURVE",
"300 -1 OFFCURVE",
"300 10 CURVE SMOOTH",
"300 19 OFFCURVE",
"292 25 OFFCURVE",
"280 30 CURVE SMOOTH",
"268 35 OFFCURVE",
"257 45 OFFCURVE",
"250 60 CURVE SMOOTH",
"244 74 OFFCURVE",
"240 94 OFFCURVE",
"240 130 CURVE SMOOTH",
"240 342 OFFCURVE",
"309 402 OFFCURVE",
"355 402 CURVE SMOOTH",
"403 402 OFFCURVE",
"430 350 OFFCURVE",
"430 217 CURVE SMOOTH",
"430 130 LINE SMOOTH",
"430 93 OFFCURVE",
"429 69 OFFCURVE",
"416 50 CURVE SMOOTH",
"404 32 OFFCURVE",
"387 25 OFFCURVE",
"387 10 CURVE SMOOTH",
"387 -4 OFFCURVE",
"396 -10 OFFCURVE",
"410 -10 CURVE SMOOTH",
"434 -10 OFFCURVE",
"441 0 OFFCURVE",
"509 0 CURVE SMOOTH",
"570 0 OFFCURVE",
"579 -10 OFFCURVE",
"610 -10 CURVE SMOOTH",
"631 -10 OFFCURVE",
"640 -1 OFFCURVE",
"640 10 CURVE SMOOTH",
"640 19 OFFCURVE",
"632 25 OFFCURVE",
"620 30 CURVE SMOOTH",
"608 35 OFFCURVE",
"597 45 OFFCURVE",
"590 60 CURVE SMOOTH",
"584 73 OFFCURVE",
"580 102 OFFCURVE",
"580 136 CURVE SMOOTH",
"580 315 OFFCURVE",
"642 402 OFFCURVE",
"695 402 CURVE SMOOTH",
"743 402 OFFCURVE",
"770 350 OFFCURVE",
"770 217 CURVE SMOOTH",
"770 130 LINE SMOOTH",
"770 93 OFFCURVE",
"769 69 OFFCURVE",
"756 50 CURVE SMOOTH",
"744 32 OFFCURVE",
"727 25 OFFCURVE",
"727 10 CURVE SMOOTH",
"727 -4 OFFCURVE",
"736 -10 OFFCURVE",
"750 -10 CURVE SMOOTH",
"774 -10 OFFCURVE",
"781 0 OFFCURVE",
"849 0 CURVE SMOOTH",
"910 0 OFFCURVE",
"919 -10 OFFCURVE",
"950 -10 CURVE SMOOTH",
"971 -10 OFFCURVE",
"980 -1 OFFCURVE",
"980 10 CURVE SMOOTH",
"980 19 OFFCURVE",
"972 25 OFFCURVE",
"960 30 CURVE SMOOTH",
"948 35 OFFCURVE",
"937 45 OFFCURVE",
"930 60 CURVE SMOOTH",
"924 74 OFFCURVE",
"920 104 OFFCURVE",
"920 140 CURVE SMOOTH",
"920 217 LINE SMOOTH",
"920 401 OFFCURVE",
"855 482 OFFCURVE",
"725 482 CURVE SMOOTH",
"651 482 OFFCURVE",
"601 430 OFFCURVE",
"567 375 CURVE SMOOTH",
"563 369 OFFCURVE",
"560 366 OFFCURVE",
"557 366 CURVE SMOOTH",
"555 366 OFFCURVE",
"553 368 OFFCURVE",
"551 371 CURVE",
"524 440 OFFCURVE",
"480 482 OFFCURVE",
"385 482 CURVE SMOOTH",
"301 482 OFFCURVE",
"250 428 OFFCURVE",
"219 382 CURVE SMOOTH",
"217 379 OFFCURVE",
"214 377 OFFCURVE",
"211 377 CURVE SMOOTH",
"206 377 OFFCURVE",
"201 382 OFFCURVE",
"201 395 CURVE SMOOTH",
"201 403 OFFCURVE",
"203 416 OFFCURVE",
"209 432 CURVE SMOOTH",
"217 451 OFFCURVE",
"220 459 OFFCURVE",
"220 467 CURVE SMOOTH",
"220 477 OFFCURVE",
"215 482 OFFCURVE",
"203 482 CURVE SMOOTH",
"182 482 OFFCURVE",
"154 472 OFFCURVE",
"98 472 CURVE SMOOTH",
"60 472 LINE SMOOTH",
"38 472 OFFCURVE",
"30 462 OFFCURVE",
"30 452 CURVE SMOOTH",
"30 440 OFFCURVE",
"38 432 OFFCURVE",
"50 432 CURVE SMOOTH",
"67 432 OFFCURVE",
"75 425 OFFCURVE",
"80 412 CURVE SMOOTH",
"87 393 OFFCURVE",
"90 370 OFFCURVE",
"90 332 CURVE SMOOTH",
"90 130 LINE SMOOTH",
"90 93 OFFCURVE",
"89 69 OFFCURVE",
"76 50 CURVE SMOOTH",
"64 32 OFFCURVE",
"47 25 OFFCURVE",
"47 10 CURVE SMOOTH",
"47 -4 OFFCURVE",
"56 -10 OFFCURVE",
"70 -10 CURVE SMOOTH"
);
}
);
width = 1000;
},
{
associatedMasterId = "9D9E1BAB-54C5-4388-83C1-CB7B88B482E6";
layerId = "2C587198-7A68-4BD4-BBE5-BB30D87C3A05";
width = 600;
}
);
leftKerningGroup = n;
leftMetricsKey = n;
rightKerningGroup = n;
rightMetricsKey = n;
unicode = 006D;
},
{
color = 1;
glyphname = n;
lastChange = "2021-05-29 16:39:46 +0000";
layers = (
{
anchors = (
{
name = bottom;
position = "{328, 0}";
},
{
name = top;
position = "{328, 478}";
}
);
layerId = "083550D2-F2E8-44E3-BE3D-E8BDF41EDFC4";
paths = (
{
closed = 1;
nodes = (
"104 -10 OFFCURVE",
"111 0 OFFCURVE",
"159 0 CURVE SMOOTH",
"200 0 OFFCURVE",
"209 -10 OFFCURVE",
"240 -10 CURVE SMOOTH",
"261 -10 OFFCURVE",
"270 -1 OFFCURVE",
"270 10 CURVE SMOOTH",
"270 19 OFFCURVE",
"262 25 OFFCURVE",
"250 30 CURVE SMOOTH",
"238 35 OFFCURVE",
"227 45 OFFCURVE",
"220 60 CURVE SMOOTH",
"214 74 OFFCURVE",
"210 94 OFFCURVE",
"210 130 CURVE SMOOTH",
"210 342 OFFCURVE",
"279 422 OFFCURVE",
"345 422 CURVE SMOOTH",
"413 422 OFFCURVE",
"440 350 OFFCURVE",
"440 217 CURVE SMOOTH",
"440 130 LINE SMOOTH",
"440 93 OFFCURVE",
"439 69 OFFCURVE",
"426 50 CURVE SMOOTH",
"414 32 OFFCURVE",
"397 25 OFFCURVE",
"397 10 CURVE SMOOTH",
"397 -4 OFFCURVE",
"406 -10 OFFCURVE",
"420 -10 CURVE SMOOTH",
"444 -10 OFFCURVE",
"451 0 OFFCURVE",
"499 0 CURVE SMOOTH",
"540 0 OFFCURVE",
"549 -10 OFFCURVE",
"580 -10 CURVE SMOOTH",
"601 -10 OFFCURVE",
"610 -1 OFFCURVE",
"610 10 CURVE SMOOTH",
"610 19 OFFCURVE",
"602 25 OFFCURVE",
"590 30 CURVE SMOOTH",
"578 35 OFFCURVE",
"567 45 OFFCURVE",
"560 60 CURVE SMOOTH",
"554 74 OFFCURVE",
"550 104 OFFCURVE",
"550 140 CURVE SMOOTH",
"550 217 LINE SMOOTH",
"550 401 OFFCURVE",
"485 482 OFFCURVE",
"375 482 CURVE SMOOTH",
"291 482 OFFCURVE",
"238 429 OFFCURVE",
"209 382 CURVE SMOOTH",
"207 379 OFFCURVE",
"204 377 OFFCURVE",
"201 377 CURVE SMOOTH",
"196 377 OFFCURVE",
"191 382 OFFCURVE",
"191 395 CURVE SMOOTH",
"191 403 OFFCURVE",
"193 416 OFFCURVE",
"199 432 CURVE SMOOTH",
"207 451 OFFCURVE",
"210 459 OFFCURVE",
"210 467 CURVE SMOOTH",
"210 477 OFFCURVE",
"205 482 OFFCURVE",
"193 482 CURVE SMOOTH",
"172 482 OFFCURVE",
"164 472 OFFCURVE",
"108 472 CURVE SMOOTH",
"70 472 LINE SMOOTH",
"48 472 OFFCURVE",
"40 462 OFFCURVE",
"40 452 CURVE SMOOTH",
"40 440 OFFCURVE",
"48 432 OFFCURVE",
"60 432 CURVE SMOOTH",
"77 432 OFFCURVE",
"85 425 OFFCURVE",
"90 412 CURVE SMOOTH",
"97 393 OFFCURVE",
"100 370 OFFCURVE",
"100 332 CURVE SMOOTH",
"100 130 LINE SMOOTH",
"100 93 OFFCURVE",
"99 69 OFFCURVE",
"86 50 CURVE SMOOTH",
"74 32 OFFCURVE",
"57 25 OFFCURVE",
"57 10 CURVE SMOOTH",
"57 -4 OFFCURVE",
"66 -10 OFFCURVE",
"80 -10 CURVE SMOOTH"
);
}
);
width = 640;
},
{
associatedMasterId = "083550D2-F2E8-44E3-BE3D-E8BDF41EDFC4";
layerId = "0AAF2CB4-2EBD-42C4-BAB4-4CEC92C737FB";
width = 600;
},
{
anchors = (
{
name = bottom;
position = "{338, 0}";
},
{
name = top;
position = "{338, 478}";
}
);
layerId = "9D9E1BAB-54C5-4388-83C1-CB7B88B482E6";
paths = (
{
closed = 1;
nodes = (
"94 -10 OFFCURVE",
"101 0 OFFCURVE",
"169 0 CURVE SMOOTH",
"230 0 OFFCURVE",
"239 -10 OFFCURVE",
"270 -10 CURVE SMOOTH",
"291 -10 OFFCURVE",
"300 -1 OFFCURVE",
"300 10 CURVE SMOOTH",
"300 19 OFFCURVE",
"292 25 OFFCURVE",
"280 30 CURVE SMOOTH",
"268 35 OFFCURVE",
"257 45 OFFCURVE",
"250 60 CURVE SMOOTH",
"244 74 OFFCURVE",
"240 94 OFFCURVE",
"240 130 CURVE SMOOTH",
"240 342 OFFCURVE",
"309 402 OFFCURVE",
"355 402 CURVE SMOOTH",
"403 402 OFFCURVE",
"430 350 OFFCURVE",
"430 217 CURVE SMOOTH",
"430 130 LINE SMOOTH",
"430 93 OFFCURVE",
"429 69 OFFCURVE",
"416 50 CURVE SMOOTH",
"404 32 OFFCURVE",
"387 25 OFFCURVE",
"387 10 CURVE SMOOTH",
"387 -4 OFFCURVE",
"396 -10 OFFCURVE",
"410 -10 CURVE SMOOTH",
"434 -10 OFFCURVE",
"441 0 OFFCURVE",
"509 0 CURVE SMOOTH",
"570 0 OFFCURVE",
"579 -10 OFFCURVE",
"610 -10 CURVE SMOOTH",
"631 -10 OFFCURVE",
"640 -1 OFFCURVE",
"640 10 CURVE SMOOTH",
"640 19 OFFCURVE",
"632 25 OFFCURVE",
"620 30 CURVE SMOOTH",
"608 35 OFFCURVE",
"597 45 OFFCURVE",
"590 60 CURVE SMOOTH",
"584 74 OFFCURVE",
"580 104 OFFCURVE",
"580 140 CURVE SMOOTH",
"580 217 LINE SMOOTH",
"580 401 OFFCURVE",
"515 482 OFFCURVE",
"385 482 CURVE SMOOTH",
"301 482 OFFCURVE",
"250 428 OFFCURVE",
"219 382 CURVE SMOOTH",
"217 379 OFFCURVE",
"214 377 OFFCURVE",
"211 377 CURVE SMOOTH",
"206 377 OFFCURVE",
"201 382 OFFCURVE",
"201 395 CURVE SMOOTH",
"201 403 OFFCURVE",
"203 416 OFFCURVE",
"209 432 CURVE SMOOTH",
"216 451 OFFCURVE",
"220 459 OFFCURVE",
"220 467 CURVE SMOOTH",
"220 477 OFFCURVE",
"215 482 OFFCURVE",
"203 482 CURVE SMOOTH",
"182 482 OFFCURVE",
"154 472 OFFCURVE",
"98 472 CURVE SMOOTH",
"60 472 LINE SMOOTH",
"38 472 OFFCURVE",
"30 462 OFFCURVE",
"30 452 CURVE SMOOTH",
"30 440 OFFCURVE",
"38 432 OFFCURVE",
"50 432 CURVE SMOOTH",
"67 432 OFFCURVE",
"75 425 OFFCURVE",
"80 412 CURVE SMOOTH",
"87 393 OFFCURVE",
"90 370 OFFCURVE",
"90 332 CURVE SMOOTH",
"90 130 LINE SMOOTH",
"90 93 OFFCURVE",
"89 69 OFFCURVE",
"76 50 CURVE SMOOTH",
"64 32 OFFCURVE",
"47 25 OFFCURVE",
"47 10 CURVE SMOOTH",
"47 -4 OFFCURVE",
"56 -10 OFFCURVE",
"70 -10 CURVE SMOOTH"
);
}
);
width = 660;
},
{
associatedMasterId = "9D9E1BAB-54C5-4388-83C1-CB7B88B482E6";
layerId = "E8682ECD-3355-40E5-A5B8-A4FBE7782563";
width = 600;
}
);
leftKerningGroup = n;
rightKerningGroup = n;
unicode = 006E;
},
{
color = 1;
glyphname = o;
lastChange = "2021-06-14 09:24:00 +0000";
layers = (
{
anchors = (
{
name = bottom;
position = "{299, -10}";
},
{
name = center;
position = "{301, 239}";
},
{
name = ogonek;
position = "{373, 10}";
},
{
name = top;
position = "{296, 472}";
},
{
name = topright;
position = "{476, 418}";
}
);
layerId = "083550D2-F2E8-44E3-BE3D-E8BDF41EDFC4";
paths = (
{
closed = 1;
nodes = (
"456 -10 OFFCURVE",
"560 84 OFFCURVE",
"560 237 CURVE SMOOTH",
"560 392 OFFCURVE",
"455 482 OFFCURVE",
"295 482 CURVE SMOOTH",
"135 482 OFFCURVE",
"30 391 OFFCURVE",
"30 237 CURVE SMOOTH",
"30 85 OFFCURVE",
"134 -10 OFFCURVE",
"295 -10 CURVE SMOOTH"
);
},
{
closed = 1;
nodes = (
"206 40 OFFCURVE",
"140 105 OFFCURVE",
"140 237 CURVE SMOOTH",
"140 369 OFFCURVE",
"205 432 OFFCURVE",
"295 432 CURVE SMOOTH",
"392 432 OFFCURVE",
"450 370 OFFCURVE",
"450 237 CURVE SMOOTH",
"450 104 OFFCURVE",
"393 40 OFFCURVE",
"296 40 CURVE SMOOTH"
);
}
);
width = 590;
},
{
associatedMasterId = "083550D2-F2E8-44E3-BE3D-E8BDF41EDFC4";
layerId = "0AAF2CB4-2EBD-42C4-BAB4-4CEC92C737FB";
width = 600;
},
{
anchors = (
{
name = bottom;
position = "{309, -10}";
},
{
name = center;
position = "{311, 239}";
},
{
name = ogonek;
position = "{383, 10}";
},
{
name = top;
position = "{306, 472}";
},
{
name = topright;
position = "{486, 408}";
}
);
layerId = "9D9E1BAB-54C5-4388-83C1-CB7B88B482E6";
paths = (
{
closed = 1;
nodes = (
"478 -10 OFFCURVE",
"590 84 OFFCURVE",
"590 237 CURVE SMOOTH",
"590 392 OFFCURVE",
"477 482 OFFCURVE",
"305 482 CURVE SMOOTH",
"133 482 OFFCURVE",
"20 391 OFFCURVE",
"20 237 CURVE SMOOTH",
"20 85 OFFCURVE",
"132 -10 OFFCURVE",
"305 -10 CURVE SMOOTH"
);
},
{
closed = 1;
nodes = (
"227 60 OFFCURVE",
"170 118 OFFCURVE",
"170 237 CURVE SMOOTH",
"170 355 OFFCURVE",
"227 412 OFFCURVE",
"305 412 CURVE SMOOTH",
"389 412 OFFCURVE",
"440 356 OFFCURVE",
"440 237 CURVE SMOOTH",
"440 117 OFFCURVE",
"390 60 OFFCURVE",
"306 60 CURVE SMOOTH"
);
}
);
width = 610;
},
{
associatedMasterId = "9D9E1BAB-54C5-4388-83C1-CB7B88B482E6";
layerId = "CC1117B4-9E4D-40E7-B60F-B7A04CCB904D";
width = 600;
}
);
leftKerningGroup = o;
rightKerningGroup = o;
unicode = 006F;
},
